<svg width="83" height="96" viewBox="0 0 83 96" fill="none" xmlns="http://www.w3.org/2000/svg">
<path d="M79.3748 40.0155C79.0232 39.1522 78.4646 37.9022 78.0779 37.0546C77.3943 35.5702 73.617 27.3437 72.8513 25.6796C72.5154 24.9491 71.7771 24.4374 70.9216 24.4296C69.7341 24.4179 68.7614 25.3671 68.7497 26.5546C68.738 27.1561 68.7341 28.6952 68.7185 29.2968C68.6716 31.6562 67.4529 33.953 65.5154 35.2968C65.3982 35.3827 65.281 35.4608 65.156 35.5351C65.0388 34.8163 64.9138 34.0976 64.7888 33.4062C64.6677 32.914 64.3903 31.6484 64.2575 31.1367C63.7028 29.1406 63.0622 27.1601 62.2341 25.2617C62.1404 25.039 61.8669 24.3984 61.781 24.1875C60.6248 21.7344 59.2966 19.3359 57.7029 17.125L56.7888 15.8672L55.8084 14.6563C55.5349 14.3047 55.0935 13.7969 54.8006 13.4727C54.2068 12.793 53.2928 11.8321 52.6522 11.2227C51.5506 10.1329 50.367 9.09766 49.1444 8.14456C48.2147 7.37894 46.9842 6.55076 45.9882 5.87116C45.0507 5.29304 43.6874 4.45706 42.7148 3.92196L37.6093 1.01576C37.078 0.711073 36.4374 0.605603 35.7968 0.765763C34.4999 1.09779 33.7109 2.42196 34.0429 3.71886L35.0194 7.54696C35.1601 8.08993 35.2304 8.35946 35.3866 8.98446C35.6288 9.98446 35.8554 11.047 35.9647 12.0704L36.0663 12.961C36.0937 13.5235 36.1522 14.1758 36.1366 14.7501C36.1796 18.0313 35.4726 21.3282 34.1678 24.336C34.0663 24.5587 33.8709 24.9532 33.7225 25.2657C33.41 23.3985 32.8475 21.5704 32.0506 19.8516C31.7928 19.2578 31.1834 17.8868 30.91 17.2618C30.6678 16.6993 30.2069 16.2384 29.5819 16.0196C28.4178 15.6172 27.1444 16.2344 26.746 17.4024L26.2538 18.8243C24.621 23.8009 21.9804 28.4415 18.5038 32.3633C17.3866 33.6289 16.1522 34.8086 14.9179 35.9727C10.3124 40.1719 8.06632 46.4297 8.98042 52.5937C9.08198 53.3515 9.28901 54.8749 9.49604 56.4453C6.67574 54.0664 3.12104 51.0703 3.12104 51.0703C2.13276 50.1718 0.519442 50.9648 0.652242 52.3164C0.777242 53.6992 1.05068 56.2305 1.23036 57.582C1.59755 59.8281 2.08583 62.1367 2.74596 64.3125C2.85534 64.75 3.07408 65.3359 3.21471 65.7734C3.56627 66.914 4.11705 68.2422 4.55061 69.3554C4.75373 69.8241 5.27717 70.9609 5.48811 71.4492C5.70686 71.8789 6.31623 73.0859 6.52721 73.4883C6.77721 73.9727 7.38659 74.9805 7.66001 75.4805C8.02329 76.0899 8.49985 76.8086 8.88661 77.4063C9.87099 78.8829 10.9491 80.2969 12.0741 81.6641C12.6366 82.3008 13.5116 83.3282 14.1053 83.9219C16.6991 86.7422 20.5037 89.6016 23.6365 92.0781C23.7459 93.0156 23.8787 93.9609 24.0662 94.9062C24.1365 95.2734 24.6365 95.289 24.7615 94.9648C25.7225 92.3632 26.3396 89.746 26.9021 87.0664C27.0818 86.1445 27.2849 85.2305 27.3748 84.293C27.5896 82.2539 27.2966 80.1641 26.6521 78.2149C26.1287 76.504 25.5583 74.8087 24.9607 73.1211C24.4685 71.707 23.8904 70.1914 23.3669 68.7852C23.0779 67.9805 22.8513 67.1563 22.6833 66.3164L29.945 74.8672C32.277 77.6094 33.7653 80.9492 34.2458 84.5195L35.5427 94.1093C35.574 94.3515 35.7849 94.5312 36.0271 94.5312C36.0505 94.5312 36.0701 94.5312 36.0935 94.5273C36.3591 94.4882 36.5466 94.246 36.5115 93.9804L35.2146 84.3906C34.7068 80.6367 33.1443 77.125 30.6912 74.2386L22.4139 64.4925C22.3826 64.1956 22.3592 63.8909 22.3436 63.5862C22.3123 62.8284 22.3279 61.9221 22.3904 61.1643C22.4295 60.7971 22.4764 60.3167 22.5311 59.9377C22.5389 59.8752 22.5506 59.8088 22.5623 59.7424C22.7811 60.4768 23.0154 61.2033 23.2654 61.9221C23.8084 63.8283 25.5232 65.383 27.4802 65.6291C28.4334 65.7815 29.3864 65.5979 30.2614 65.2346C30.6521 65.0783 31.1442 64.9338 31.4958 64.719C32.2771 64.3049 32.8942 63.6252 33.2692 62.844C34.4176 63.5315 35.7731 63.8596 37.0504 63.7111C36.9645 63.8127 36.8786 63.9104 36.7965 64.0158C35.2418 65.9572 34.2184 68.3517 34.0035 70.8244C33.8981 72.0314 33.9996 73.258 34.3238 74.4182C34.3941 74.7229 34.8316 74.801 35.0074 74.5432C35.1871 74.2932 35.3434 74.0432 35.4957 73.7893C37.6168 70.1955 40.2066 66.801 43.6051 64.3987C45.2067 63.2815 46.7496 62.0628 48.2223 60.7737C49.9137 59.2971 50.6442 56.8909 49.9332 54.7854C49.9879 54.762 50.0504 54.7386 50.1051 54.7151C50.7613 54.4026 51.4879 54.0589 52.1363 53.7307C52.4957 53.551 52.3082 52.9964 51.9097 53.0745C51.1988 53.2151 50.4214 53.4026 49.7105 53.555C48.6089 53.7815 47.4332 53.7737 46.3746 53.4964C45.5895 53.3206 44.5543 52.7776 43.816 52.4417L42.4566 51.8167C40.5035 51.012 38.9918 49.3011 38.4722 47.2698C43.7456 47.2112 49.2882 47.0471 54.5422 46.8088C54.7961 46.801 55.0344 46.9612 55.136 47.1916C56.0344 49.0041 56.9563 50.801 57.8626 52.6057C58.6048 54.1057 59.4329 55.6057 60.1478 57.1213C61.7376 60.7072 61.179 65.1213 58.7494 68.2153C56.6791 70.7856 54.2689 73.6919 52.2103 76.2934C52.0384 76.5161 51.1556 77.6059 51.015 77.8051C50.054 79.0942 49.4212 80.6567 49.2416 82.2426C49.1361 83.0825 49.1595 83.9301 49.2845 84.7699C49.7103 87.9847 50.1673 91.1918 50.7064 94.3949C50.7338 94.5551 50.8705 94.6801 51.0385 94.684C51.2338 94.6918 51.3939 94.5434 51.4017 94.3481C51.4369 93.4574 51.4642 92.5629 51.4877 91.6762C52.9252 91.0355 54.3588 90.3832 55.7924 89.7348C58.8549 88.3129 61.9916 87.0629 64.8471 85.227C65.476 84.852 66.3705 84.2114 66.976 83.7895C80.46 74.0004 85.636 55.4925 79.374 40.0165L79.3748 40.0155ZM41.5158 54.3595L42.9533 54.7696C43.9572 55.0509 45.0471 55.4025 46.0861 55.4571C46.9845 55.5118 47.8713 55.4298 48.7189 55.215C48.5119 55.7462 48.2423 56.2306 47.883 56.6525C47.3908 57.2462 46.7658 57.6758 46.0627 57.9258C45.9611 57.9649 45.6056 58.129 45.5041 58.168C44.1603 58.7735 42.8518 59.418 41.5705 60.1328C41.5783 58.1601 41.4259 56.2109 41.1955 54.2656C41.3009 54.2969 41.4064 54.3282 41.5158 54.3595ZM10.6798 76.7035C10.5157 76.4105 10.336 76.1019 10.1564 75.7933L18.4884 67.4613C18.5548 68.1019 18.6524 68.7386 18.793 69.3754C18.836 69.5707 18.8868 69.77 18.9337 69.977L11.2696 77.6411C11.0703 77.3286 10.8751 77.016 10.6798 76.7035ZM9.4142 74.4808C9.2267 74.0902 8.88686 73.4808 8.62904 72.9769L18.6134 62.9925C18.4455 64.0394 18.3712 65.1019 18.3986 66.1683L9.6486 74.9183C9.57047 74.7698 9.48842 74.6253 9.4142 74.4808ZM18.9845 61.2388L8.1835 72.0398C7.94912 71.5242 7.63662 70.8289 7.49991 70.5398C7.44522 70.3913 7.3671 70.196 7.27725 69.9812L18.0823 59.1762C18.3479 59.8715 18.6526 60.5473 18.9924 61.2074C18.9924 61.2191 18.9884 61.2271 18.9845 61.2388ZM6.6915 68.5083C6.5665 68.1645 6.29306 67.356 6.10556 66.813L10.8712 62.0474C12.004 62.8013 13.6368 61.8872 13.4767 60.4497L13.4688 60.395C13.4688 60.395 13.3985 59.7466 13.379 59.5356L17.129 55.7856C17.2774 56.5903 17.4806 57.3794 17.7306 58.1528L6.89056 68.9928C6.80853 68.8053 6.74228 68.6372 6.6915 68.5083ZM5.1329 63.4419L8.5704 60.0044C9.21103 60.5825 9.7579 61.0747 10.129 61.4106L5.7696 65.77C5.53913 64.9965 5.32431 64.2231 5.1329 63.4419ZM4.1056 57.938C4.01185 57.3599 3.94154 56.5083 3.88294 55.7818C4.41028 56.2583 4.98064 56.7701 5.55484 57.2896L4.19934 58.6451C4.16809 58.4107 4.13294 58.1763 4.1056 57.938ZM4.38294 59.8442L6.28134 57.9458C6.8165 58.4302 7.34384 58.9067 7.83994 59.352L4.86724 62.3247C4.68365 61.5005 4.52357 60.6724 4.38294 59.8442ZM16.7419 52.4301L16.8435 53.6801C16.8669 53.9887 16.8982 54.2973 16.9373 54.602L13.2419 58.2973C13.113 57.0746 13.0505 56.4769 12.9607 55.6175L16.7185 51.8598C16.7185 52.0473 16.7263 52.2348 16.7419 52.4301ZM16.8201 50.3754L12.8318 54.3637C12.7458 53.5082 12.6286 52.5825 12.5505 51.6801L22.3474 41.8832C21.9334 42.7543 21.3552 43.5512 20.6326 44.227L19.5115 45.2778C18.0467 46.6489 17.1131 48.4379 16.8201 50.3754ZM23.1013 38.0434C23.1364 38.6528 23.0974 39.2622 22.9919 39.8481L12.4759 50.3641C12.4759 50.286 12.472 50.2078 12.472 50.1297C12.4798 49.0906 12.6048 48.0516 12.8314 47.0438L23.0264 36.8488L23.1013 38.0434ZM17.6716 38.9418C18.2341 38.434 18.781 37.9262 19.3513 37.4027C20.1091 36.7074 20.8825 35.9105 21.5857 35.1605C22.0232 34.6918 22.445 34.2074 22.8591 33.7152L22.9606 35.5355L13.4294 45.0667C14.3122 42.719 15.7732 40.5863 17.6716 38.9418ZM11.82 78.4728L19.2341 71.0587C19.4606 71.8165 19.6911 72.5743 19.9294 73.3321L13.0466 80.2149C12.6247 79.6407 12.2184 79.0627 11.82 78.4728ZM13.6403 81.0001L20.2614 74.379C20.4996 75.1251 20.7457 75.8673 20.9957 76.6095L14.9645 82.6407C14.7067 82.3438 14.4645 82.0509 14.2731 81.7931C14.0583 81.5313 13.8512 81.2658 13.6403 81.0001ZM15.6091 83.3751L21.3513 77.6329C21.6052 78.3634 21.8669 79.0899 22.1325 79.8126L17.027 84.9181C16.7419 84.6212 16.4567 84.3283 16.1794 84.0275C16.0114 83.8361 15.8122 83.6095 15.6091 83.3751ZM17.7107 85.6173L22.4998 80.8282C22.7615 81.6095 22.9529 82.4063 23.0701 83.2188L19.2185 87.0704C18.7068 86.5978 18.2068 86.1095 17.7107 85.6173ZM19.9412 87.7345L23.199 84.4767C23.2068 84.5705 23.2107 84.6642 23.2146 84.758C23.2302 85.6213 23.2537 86.4846 23.2849 87.3518L21.4997 89.137C20.8708 88.5745 20.4059 88.1526 20.4059 88.1526C20.2497 88.0159 20.0935 87.8751 19.9412 87.7345ZM22.2264 89.797L23.3514 88.672C23.367 88.9376 23.3826 89.2033 23.4021 89.4689C23.4412 89.965 23.4803 90.4611 23.5271 90.9611C23.117 90.5939 22.66 90.1877 22.2264 89.797ZM30.742 61.574C30.4685 61.6678 30.2224 61.6912 29.9529 61.6521H29.906L29.781 61.6561C29.6248 61.6639 29.1873 61.6834 29.0232 61.6912C28.781 61.7303 28.5427 61.66 28.3513 61.5428C28.0545 61.3631 27.8943 61.0975 27.8631 60.7889C27.8396 60.6873 27.7224 60.2107 27.699 60.117C26.9568 57.2029 26.0271 54.3358 24.9802 51.5232C24.9411 51.4138 24.863 51.2029 24.8161 51.1013C24.4646 50.5076 24.7771 49.6794 25.3864 49.3747C25.4646 49.3356 25.8708 49.1442 25.9568 49.1013C26.1052 49.031 26.5036 48.8435 26.6443 48.7692L26.7575 48.7146C27.07 48.4802 27.445 48.4138 27.8044 48.4724C27.9763 49.4724 28.1794 50.488 28.3904 51.4568C28.9451 53.9724 29.5974 56.4685 30.3592 58.9373C30.5701 59.656 30.8631 60.367 31.2889 60.9842C31.3279 61.0467 31.3709 61.1014 31.4139 61.156C31.2107 61.3435 30.9841 61.4959 30.742 61.574ZM40.5858 60.6951C40.199 60.9334 39.824 61.1873 39.4608 61.4607C38.8123 61.4139 38.16 61.3904 37.5077 61.3748L37.5936 61.3631C36.6014 61.2107 35.7967 60.7029 35.2655 60.074C34.8163 59.5349 34.5624 58.9138 34.5077 58.2342L34.453 57.7967C34.035 54.6912 33.4686 51.6209 32.7303 48.5819L32.4998 47.6717C32.3826 47.1639 32.1053 46.4842 32.1639 45.9451C32.2069 45.2654 32.535 44.6131 33.0741 44.1326C33.3084 43.9295 33.7303 43.6873 33.9998 43.4803C34.0311 43.4568 34.0155 43.4647 34.0311 43.4412C34.0545 43.3983 34.0858 43.3631 34.117 43.3318C34.3123 44.0975 34.5155 44.867 34.7264 45.6326C34.5076 46.328 34.5037 47.1014 34.7811 47.8279C35.1053 48.9217 35.6326 49.9373 36.3084 50.8357C37.4607 54.238 38.8358 57.5545 40.5858 60.6951ZM38.3358 46.6091C38.3592 46.6599 38.367 46.7146 38.367 46.7693C38.3553 46.7185 38.3436 46.6638 38.3358 46.6091ZM40.0741 43.0622C40.0741 43.0622 39.5311 43.113 39.1014 43.156C39.0272 42.8669 38.953 42.5778 38.8787 42.2888C38.8397 42.1482 38.8084 42.0153 38.8201 41.8669C38.8514 41.5271 39.0467 41.1599 39.3983 41.0153L39.8748 40.8278C39.9608 40.7849 40.4022 40.6247 40.4725 40.57C41.0037 40.2419 41.7303 40.3278 42.2342 40.7028C42.5662 40.9841 42.9608 41.445 43.3045 41.7614C43.6365 42.0818 43.9725 42.3943 44.3279 42.6989C42.8591 42.8161 41.3983 42.9411 40.0741 43.0622ZM53.4691 42.0231C52.5159 42.0856 49.9847 42.2614 49.0003 42.3278C47.8909 42.4059 46.6878 42.4997 45.4612 42.6012C45.344 41.9606 45.1877 41.3434 45.0159 40.734C44.7815 39.9762 44.6291 39.1988 44.1369 38.5309C44.1213 38.5114 44.1057 38.4919 44.094 38.4763C44.258 38.2575 44.469 38.0856 44.719 38.0153C45.0002 37.9294 45.1955 37.9763 45.383 38.1247C45.3908 38.1286 45.3908 38.1325 45.3987 38.1325H45.4729C46.2463 38.1091 47.0159 38.0388 47.7737 37.9138C47.9299 37.8903 48.094 37.8942 48.2502 37.8825C49.2112 37.8669 50.1604 38.2184 50.883 38.8825C51.0744 39.0934 51.258 39.3161 51.4533 39.5231C52.2815 40.4138 53.1408 41.2497 54.1174 41.9801C53.9807 41.9919 53.4691 42.0231 53.4691 42.0231ZM64.8441 83.0311C63.2386 84.2967 61.5082 85.367 59.7074 86.3592C56.9652 87.8397 54.2308 89.3319 51.5043 90.8358C51.5511 88.7616 51.5746 86.6874 51.5824 84.617C51.5746 83.9725 51.6293 83.3045 51.7933 82.6873C52.0824 81.5779 52.6214 80.5701 53.391 79.742C53.4926 79.6405 54.5394 78.5545 54.6527 78.4451C55.6957 77.3865 57.7699 75.2185 58.8011 74.1482C59.6605 73.2615 60.5199 72.3357 61.3714 71.4412C61.93 70.8592 62.512 70.1482 62.9847 69.4881C66.012 65.16 66.4808 59.2461 64.1722 54.4801C63.9847 54.0661 63.7035 53.5192 63.5121 53.1129C62.2074 50.4332 60.8754 47.7613 59.5355 45.0934C59.1605 44.32 58.6097 43.6325 57.93 43.1051C57.2815 42.6012 56.5159 42.2535 55.7112 42.0856C55.5823 40.2653 55.0979 38.5856 54.4768 36.902C53.2268 33.8395 49.4768 32.2301 46.3791 33.3981C45.7463 33.6208 45.1174 33.8825 44.5119 34.1754C44.4728 34.1989 44.3712 34.2419 44.3244 34.2614C43.922 34.4255 43.5314 34.6637 43.2111 34.9528C42.6212 35.4606 42.2267 36.1755 42.0861 36.9216C41.1915 36.5661 40.1877 36.4685 39.2423 36.6794C38.8048 36.7575 38.3165 36.8044 37.8751 36.9294C36.086 37.3982 34.7267 38.8513 34.211 40.57C33.7891 40.5114 33.3555 40.5388 32.9415 40.6638C32.6602 40.7419 32.3477 40.8044 32.0665 40.8825C29.5977 41.4606 27.8282 43.7614 27.629 46.2731C27.1837 46.1325 26.7032 46.0856 26.2267 46.152C25.6915 46.2067 25.0587 46.2848 24.5236 46.3473C23.3166 46.5426 22.1877 47.2497 21.4806 48.2575C20.6759 49.3395 20.3712 50.8552 20.6681 52.2106L20.7774 52.7536C20.9649 53.6481 21.172 54.5505 21.3946 55.445C21.0001 56.2575 20.6212 57.07 20.254 57.8903C19.9415 58.5309 19.6642 59.1872 19.4259 59.8551C18.5431 57.8981 17.9962 55.7926 17.8243 53.609L17.7228 52.359C17.5313 49.9606 18.4298 47.6402 20.1837 45.9957L21.3048 44.9449C22.672 43.6637 23.5782 41.9996 23.9298 40.2027C23.9298 40.191 23.9376 40.1793 23.9376 40.1675C24.0743 39.4566 24.1251 38.73 24.086 37.9956L23.7852 32.6597C23.7852 32.6441 23.7774 32.6246 23.7774 32.6051C25.7852 30.0426 27.4844 27.2379 28.8555 24.2848C28.9766 24.7379 29.0782 25.1949 29.1602 25.6559C29.5821 27.5973 29.3008 30.6989 29.2305 32.6871C29.1446 34.941 32.0117 36.0113 33.4102 34.1949C34.1173 33.2534 35.1758 31.9058 35.8399 30.9449C36.672 29.7808 37.4102 28.5308 38.043 27.2418C40.9375 21.4449 41.7305 14.6128 40.2071 8.31176C40.1915 8.24145 40.172 8.16332 40.1524 8.0852C40.7931 8.45239 41.3086 8.74926 41.5586 8.8977C41.9883 9.16332 42.8945 9.71411 43.3281 9.9836C43.6875 10.2063 44.6875 10.9289 45.039 11.1555C45.3515 11.3586 45.8398 11.7805 46.1367 11.9953C46.4649 12.261 46.9063 12.5656 47.2148 12.8625C53.5703 18.1984 58.1678 25.6245 60.0468 33.7145C60.2578 34.4762 60.4453 35.6481 60.6015 36.4293C60.7617 37.3746 60.914 38.359 61.0664 39.3199C61.0976 39.5426 61.164 39.7613 61.2617 39.9762C61.8007 41.1168 63.1679 41.6012 64.3086 41.0621L66.0938 40.2144C66.625 39.9644 67.1641 39.6597 67.6641 39.3433C69.6446 38.0621 71.1953 36.1714 72.1172 34.0113C73.3047 36.4371 74.4649 38.8082 75.0078 39.9019C82.3594 54.8629 77.9925 72.8511 64.8441 83.0311Z" fill="#FEFDF9"/>
</svg>
