<svg width="95" height="94" viewBox="0 0 95 94" fill="none" xmlns="http://www.w3.org/2000/svg">
<path d="M83.2419 57.1209C81.8825 56.3357 80.3239 56.0779 78.8083 56.3748L76.9606 49.4725C76.7926 48.8514 76.4957 48.2928 76.0973 47.8319L76.0934 13.0859C76.0934 8.1992 72.1168 4.2226 67.2301 4.2226H64.6403V2.5312C64.6403 1.1367 63.5036 0 62.1091 0H59.6755C58.281 0 57.1443 1.1367 57.1443 2.5312V4.2226H49.4099V2.5312C49.4099 1.1367 48.2732 0 46.8787 0H44.4451C43.0506 0 41.9139 1.1367 41.9139 2.5312V4.2226H34.1795V2.5312C34.1795 1.1367 33.0428 0 31.6483 0H29.2147C27.8202 0 26.6835 1.1367 26.6835 2.5312V4.2226H18.9491V2.5312C18.9491 1.1367 17.8124 0 16.4179 0H13.9843C12.5898 0 11.4531 1.1367 11.4531 2.5312V4.2226H8.8633C3.9766 4.2226 0 8.1992 0 13.0859V50.0509C0 53.3204 1.1719 56.1486 3.4844 58.4611L7.0586 62.0353C9.3711 64.3478 12.1992 65.5197 15.4688 65.5197H42.8558C41.5628 67.6642 41.1097 70.3088 41.805 72.9142C43.1683 78.0001 48.4144 81.0275 53.5 79.6642L54.1211 79.4962L57.1211 90.6952C57.6016 92.4921 59.2305 93.6757 61.0078 93.6757C61.3515 93.6757 61.6992 93.6328 62.0469 93.539C64.1914 92.9648 65.4649 90.7538 64.8907 88.6132L61.9024 77.4652C66.9336 76.5433 71.5196 78.1566 75.6054 79.598C76.6952 79.9808 77.7226 80.3441 78.746 80.6605C79.1561 80.7855 79.5741 80.848 79.9843 80.848C81.0312 80.848 82.0429 80.4457 82.832 79.6839C83.9297 78.6253 84.3515 77.1136 83.957 75.637L82.1093 68.7347C85.2695 67.6527 87.1015 64.2816 86.2226 61.0081C85.7812 59.3597 84.7187 57.9769 83.2304 57.1175L83.2419 57.1209ZM59.7809 2.62889H62.0153V9.46869H59.7809V2.62889ZM44.5539 2.62889H46.7883V9.46869H44.5539V2.62889ZM29.3269 2.62889H31.5613V9.46869H29.3269V2.62889ZM14.0999 2.62889H16.3343V9.46869H14.0999V2.62889ZM8.88109 6.85159H11.4709V9.57039C11.4709 10.9649 12.6076 12.1016 14.0021 12.1016H16.4357C17.8302 12.1016 18.9669 10.9649 18.9669 9.57039V6.85159H26.7013V9.57039C26.7013 10.9649 27.838 12.1016 29.2325 12.1016H31.6661C33.0606 12.1016 34.1973 10.9649 34.1973 9.57039V6.85159H41.9317V9.57039C41.9317 10.9649 43.0684 12.1016 44.4629 12.1016H46.8965C48.291 12.1016 49.4277 10.9649 49.4277 9.57039V6.85159H57.1621V9.57039C57.1621 10.9649 58.2988 12.1016 59.6933 12.1016H62.1269C63.5214 12.1016 64.6581 10.9649 64.6581 9.57039V6.85159H67.2479C70.6854 6.85159 73.4823 9.64849 73.4823 13.086V14.3946H2.64229V13.086C2.64229 9.64849 5.43919 6.85159 8.87669 6.85159H8.88109ZM5.36159 56.6016C4.26389 55.5039 3.50999 54.293 3.08039 52.9414C4.04523 53.5312 5.18199 53.8711 6.39289 53.8711H9.23269C10.5765 53.8711 11.6702 54.9649 11.6702 56.3086V59.1484C11.6702 60.3593 12.01 61.4961 12.5999 62.4609C11.2483 62.0312 10.0335 61.2734 8.93968 60.1797L5.36159 56.6016ZM14.2991 59.1485V56.3087C14.2991 53.5118 12.0257 51.2384 9.23269 51.2384H6.39289C4.33039 51.2384 2.65069 49.5587 2.65069 47.4962V17.0232H73.4747V46.4412C72.1583 46.2732 70.8692 46.7381 69.9474 47.7303C69.2911 48.4373 68.6466 49.1795 67.9786 49.9647V22.8007C67.9786 22.453 67.838 22.1171 67.5919 21.871C67.3458 21.6249 67.0098 21.4843 66.6622 21.4843H9.45118C8.72462 21.4843 8.13478 22.0741 8.13478 22.8007V45.6797C8.13478 46.4062 8.72462 46.9961 9.45118 46.9961H19.5762V57.1211C19.5762 57.8476 20.166 58.4375 20.8926 58.4375H58.1586C57.3812 58.7851 56.5609 59.0859 55.6898 59.3203L48.5648 61.2305C47.3031 61.5703 46.1703 62.1446 45.1976 62.8985H18.0336C15.9711 62.8985 14.2914 61.2188 14.2914 59.1563L14.2991 59.1485ZM62.3501 55.8008H56.5337V46.9922H65.3423V52.9531C64.4165 53.9453 63.4321 54.914 62.3501 55.8008ZM22.2171 35.5508H31.0257V44.3594H22.2171V35.5508ZM42.4671 44.3594H33.6585V35.5508H42.4671V44.3594ZM45.096 25.9684L47.6429 28.5153L45.096 31.0622V25.9684ZM49.5022 30.3746L52.0491 32.9215H46.9593L49.5062 30.3746H49.5022ZM51.3616 28.5152L53.9085 25.9683V31.0581L51.3616 28.5112V28.5152ZM45.096 35.5504H53.9046V44.359H45.096V35.5504ZM56.537 35.5504H65.3456V44.359H56.537V35.5504ZM65.3456 32.9215H56.537V24.1129H65.3456V32.9215ZM49.5016 26.6559L46.9547 24.109H52.0445L49.4976 26.6559H49.5016ZM42.4664 24.109V32.9176H33.6578V24.109H42.4664ZM31.0254 24.109V32.9176H22.2168V24.109H31.0254ZM19.5844 24.109V32.9176H10.7758V24.109H19.5844ZM10.7758 35.55H19.5844V44.3586H10.7758V35.55ZM22.2168 46.991H31.0254V55.7996H22.2168V46.991ZM33.6578 55.7996V46.991H42.4664V55.7996H33.6578ZM45.0988 55.7996V46.991H53.9074V55.7996H45.0988ZM52.8371 77.1236C49.1535 78.1119 45.3527 75.9166 44.3644 72.233C43.3761 68.5494 45.5714 64.7486 49.255 63.7603L55.1105 62.1939L58.6925 75.5569L52.837 77.1272L52.8371 77.1236ZM61.3879 91.0026C60.6457 91.2018 59.8801 90.7604 59.6809 90.0182L56.6809 78.8192L59.3723 78.0966L62.3723 89.2956C62.5715 90.0378 62.1301 90.8034 61.3879 91.0026ZM64.9856 74.5536C63.7747 74.5536 62.5286 74.663 61.2434 74.9169L57.6379 61.4679C63.216 59.5617 66.677 55.5226 69.7549 51.9288C69.9307 51.7256 70.0986 51.5264 70.2705 51.3272L77.251 77.3862C77.0049 77.3003 76.7549 77.2104 76.501 77.1245C73.0283 75.9018 69.2237 74.5581 64.981 74.5581L64.9856 74.5536ZM81.0286 77.7919C80.7864 78.0263 80.5012 78.163 80.1966 78.2059L72.4114 49.144C72.6965 49.0268 73.009 49.0033 73.341 49.0854C73.8957 49.2221 74.2825 49.6049 74.4308 50.1557L81.4425 76.3197C81.591 76.8743 81.4465 77.3939 81.0324 77.7924L81.0286 77.7919ZM81.4426 66.1869L79.4973 58.9252C80.3333 58.8041 81.1848 58.9643 81.9348 59.3979C82.8138 59.9057 83.4426 60.722 83.7043 61.6908C84.2083 63.5619 83.2043 65.4878 81.4465 66.187L81.4426 66.1869ZM84.384 54.0229C83.8723 53.5073 83.8723 52.6752 84.384 52.1635L86.7278 49.8197C87.2396 49.308 88.0755 49.308 88.5872 49.8197C89.099 50.3353 89.099 51.1674 88.5872 51.6791L86.2434 54.0229C85.9856 54.2807 85.6497 54.4096 85.3138 54.4096C84.9778 54.4096 84.6419 54.2807 84.384 54.0229ZM93.7121 60.3667L90.4816 61.2339C90.3684 61.2651 90.2512 61.2808 90.1418 61.2808C89.5598 61.2808 89.0285 60.894 88.8723 60.3042C88.6848 59.605 89.0989 58.8823 89.802 58.6948L93.0325 57.8276C93.7317 57.6401 94.4544 58.0542 94.6419 58.7573C94.8294 59.4565 94.4153 60.1792 93.7121 60.3667ZM93.8996 69.5347C93.7434 70.1206 93.2121 70.5112 92.6301 70.5112C92.5169 70.5112 92.4036 70.4956 92.2903 70.4644L89.0559 69.5972C88.3567 69.4097 87.9387 68.687 88.1262 67.9878C88.3137 67.2886 89.0364 66.8706 89.7356 67.0581L92.97 67.9253C93.6692 68.1128 94.0872 68.8355 93.8996 69.5347Z" fill="#FEFDF9"/>
</svg>
