<svg width="22" height="23" viewBox="0 0 22 23" fill="none" xmlns="http://www.w3.org/2000/svg">
<path fill-rule="evenodd" clip-rule="evenodd" d="M20.0961 1.41875C20.0421 1.42291 19.9885 1.43181 19.9358 1.44547L6.66008 4.64996C6.3131 4.73371 6.0463 5.01126 5.9763 5.36126L4.91931 10.6462C4.59019 10.5168 4.20134 10.5852 3.93531 10.8512L1.18531 13.6012C0.827335 13.9592 0.827335 14.5396 1.18531 14.8975L7.60198 21.3142C7.95996 21.6722 8.54036 21.6722 8.89834 21.3142L11.6483 18.5642C11.9144 18.2982 11.9827 17.9093 11.8534 17.5802L17.1383 16.5232C17.4883 16.4532 17.7658 16.1864 17.8496 15.8395L21.0541 2.56373C21.0677 2.51095 21.0767 2.4572 21.0808 2.40314C21.1005 2.14566 21.0119 1.88144 20.815 1.68452C20.6527 1.52221 20.4447 1.43349 20.2324 1.41837C20.1872 1.41512 20.1416 1.41522 20.0961 1.41875ZM14.3988 9.39707L18.5113 5.28458L16.2048 14.8403L10.3848 16.0043L6.49524 12.1147L7.65924 6.29477L17.215 3.98822L13.1025 8.10071C12.7435 7.92891 12.3414 7.8327 11.9168 7.8327C10.398 7.8327 9.16683 9.06392 9.16683 10.5827C9.16683 12.1015 10.398 13.3327 11.9168 13.3327C13.4356 13.3327 14.6668 12.1015 14.6668 10.5827C14.6668 10.1581 14.5706 9.75607 14.3988 9.39707ZM12.5763 9.94597C12.7355 10.1109 12.8335 10.3353 12.8335 10.5827C12.8335 11.089 12.4231 11.4994 11.9168 11.4994C11.4106 11.4994 11.0002 11.089 11.0002 10.5827C11.0002 10.0764 11.4106 9.66603 11.9168 9.66603C12.1642 9.66603 12.3887 9.76401 12.5536 9.92327C12.5573 9.92711 12.561 9.93092 12.5648 9.93472C12.5686 9.93851 12.5724 9.94226 12.5763 9.94597ZM9.7038 17.916L8.25016 19.3697L3.12986 14.2494L4.5835 12.7957L9.7038 17.916Z" fill="#FEFDF9"/>
</svg>
