<svg width="31" height="31" viewBox="0 0 31 31" fill="none" xmlns="http://www.w3.org/2000/svg">
<path d="M9.17694 27.498C8.94903 27.5226 8.84941 27.3745 8.74907 27.2343C8.70033 27.1656 8.66091 27.1071 8.56058 27.1165C8.46956 27.1252 8.39502 27.0674 8.39287 26.9785C8.39 26.86 8.2438 26.7834 8.30328 26.6606C8.3814 26.498 8.50037 26.3708 8.65733 26.274C9.07803 26.0146 9.45 25.6937 9.79187 25.3361C10.0886 25.0261 10.3982 24.7284 10.6913 24.4162C11.0146 24.0715 11.3471 23.7334 11.656 23.375C11.8237 23.1799 11.9921 22.9826 12.1778 22.8063C12.587 22.4168 12.9167 21.9529 13.3488 21.583C13.5216 21.4356 13.6807 21.2376 13.8663 21.1357C14.1315 20.9897 14.3221 20.7643 14.5515 20.588C14.9779 20.2606 15.4445 19.9651 15.7763 19.5236C15.8838 19.3805 16.0314 19.3393 16.1992 19.3379C16.2522 19.3379 16.3009 19.3429 16.3418 19.3834C16.4106 19.4521 16.4772 19.8979 16.4084 19.9557C16.1497 20.1718 16.0365 20.502 15.7878 20.7274C15.5599 20.9341 15.3599 21.1725 15.147 21.3965C15.0675 21.4796 14.9872 21.5663 14.8776 21.6061C14.7607 21.648 14.7163 21.7643 14.6389 21.8416C14.502 21.9789 14.3802 22.1292 14.2153 22.2354C14.1673 22.2665 14.1544 22.3236 14.1673 22.3749C14.2053 22.5274 14.1286 22.6264 14.0268 22.7196C13.642 23.0708 13.2686 23.4393 12.9217 23.8244C12.4874 24.3064 12.0022 24.732 11.5442 25.185C11.1901 25.5348 10.8375 25.8852 10.4921 26.2436C10.3086 26.4337 10.1617 26.654 9.99756 26.8607C9.81838 27.0869 9.65928 27.3412 9.37116 27.4539C9.30093 27.4814 9.23356 27.5132 9.17694 27.4987V27.498Z" fill="white"/>
<path d="M12.0508 27.5177C11.795 27.5061 11.6459 27.4086 11.5448 27.2416C11.4452 27.0769 11.5513 26.9483 11.6516 26.8421C12.116 26.3493 12.5597 25.8391 12.9918 25.316C13.2979 24.9453 13.6691 24.6389 14.0569 24.3491C14.4661 24.0428 14.833 23.6793 15.2279 23.3534C15.4745 23.1497 15.716 22.9415 15.9332 22.7067C15.9955 22.6395 16.0794 22.56 15.9719 22.456C15.9145 22.4003 15.9583 22.3534 16.0041 22.3331C16.103 22.2898 16.1862 22.1966 16.3202 22.2551C16.4083 22.2941 16.4872 22.2276 16.5345 22.1518C16.637 21.987 16.7911 21.875 16.9308 21.7486C17.0233 21.6655 17.4175 21.651 17.5171 21.7182C17.6669 21.8194 17.6941 22.0651 17.5615 22.2052C17.2999 22.4813 17.0218 22.7428 16.771 23.0275C16.5646 23.2624 16.3116 23.4517 16.1496 23.7335C16.0765 23.8614 15.8887 23.9011 15.7741 24.0189C15.6157 24.1815 15.453 24.3405 15.2308 24.4293C15.0767 24.4908 15.0058 24.6678 14.8775 24.7762C14.6811 24.9417 14.4983 25.1238 14.3149 25.3044C14.2425 25.3752 14.1887 25.446 14.2196 25.5746C14.2504 25.7033 14.1873 25.8312 14.0784 25.9251C13.9178 26.0638 13.7386 26.1787 13.5681 26.303C13.2921 26.5039 13.0728 26.7691 12.7919 26.9613C12.7546 26.9866 12.7317 27.0357 12.6822 27.0393C12.4787 27.0559 12.3884 27.22 12.2809 27.3565C12.2049 27.4526 12.1261 27.5263 12.0515 27.5169L12.0508 27.5177Z" fill="white"/>
<path d="M19.792 28.065C19.5598 28.0831 19.4236 27.9581 19.2645 27.8988C19.1498 27.8562 19.0617 27.8295 19.0008 27.9733C18.975 28.0332 18.9148 28.0578 18.8424 28.0491C18.651 28.026 18.4769 28.0072 18.322 27.8417C18.1701 27.6784 17.9537 27.5744 17.7594 27.453C17.6842 27.406 17.619 27.3526 17.5702 27.2825C17.2678 26.8496 16.8571 26.5418 16.4085 26.2875C16.2393 26.1914 16.139 26.057 16.0644 25.898C16.0229 25.8091 15.9677 25.7499 15.896 25.6906C15.7183 25.5439 15.6029 25.3221 15.8308 25.0858C15.9032 25.0107 15.9749 25.0027 16.0752 25.0099C16.5769 25.0482 16.946 25.351 17.3352 25.622C17.6025 25.8077 17.8849 25.9702 18.1536 26.1523C18.5779 26.4392 19.0301 26.6834 19.4215 27.0209C19.6236 27.1958 19.8529 27.3381 20.0679 27.4971C20.1539 27.5607 20.255 27.6141 20.2199 27.7565C20.1826 27.9082 20.1174 28.0253 19.9461 28.0441C19.878 28.0513 19.8099 28.0621 19.7906 28.065H19.792Z" fill="white"/>
<path d="M22.0109 26.6223C21.9378 26.6267 21.8776 26.5891 21.8174 26.5588C21.5121 26.4056 21.2269 26.222 20.9423 26.0298C20.3776 25.6483 19.9769 25.0897 19.4408 24.6829C19.2 24.5001 18.9556 24.3252 18.6847 24.1851C18.5457 24.1135 18.4181 24.0622 18.2633 24.0405C18.1479 24.0247 18.0125 23.9683 17.9745 23.8267C17.9315 23.667 18.0139 23.5485 18.1278 23.4495C18.244 23.3476 18.3844 23.2941 18.479 23.1431C18.5937 22.9596 19.0502 23.0022 19.2015 23.1691C19.4853 23.4842 19.8121 23.7428 20.1561 23.9929C20.5266 24.2624 20.8771 24.5688 21.2233 24.8737C21.5408 25.1541 21.8697 25.4192 22.2066 25.6743C22.3772 25.8037 22.3936 25.8737 22.2947 26.0609C22.2496 26.1469 22.2567 26.2401 22.2682 26.3311C22.2904 26.506 22.1915 26.6209 22.0124 26.6216L22.0109 26.6223Z" fill="white"/>
<path d="M7.84936 17.5983C7.7311 17.5066 7.66803 17.4162 7.69957 17.2645C7.71104 17.2103 7.7096 17.146 7.69169 17.094C7.65083 16.9755 7.69814 16.8996 7.78127 16.8223C7.88161 16.7283 7.96331 16.6987 8.10809 16.7623C8.42702 16.9025 8.73233 17.0405 8.88284 17.3895C8.90864 17.4488 8.97888 17.487 9.02188 17.5412C9.40961 18.0268 9.89123 18.4112 10.3621 18.8072C10.4682 18.8968 10.557 19.0059 10.6201 19.1273C10.6975 19.2769 10.8122 19.3882 10.9426 19.4785C11.1032 19.589 11.192 19.743 11.2673 19.9135C11.2931 19.9713 11.3146 20.032 11.3476 20.0855C11.5038 20.3391 11.3597 20.6158 11.0587 20.6274C10.7441 20.639 10.5011 20.4807 10.2983 20.2618C10.1586 20.1115 10.0525 19.9308 9.9156 19.7776C9.76724 19.6107 9.59595 19.4655 9.44401 19.3022C9.21037 19.0507 8.96096 18.8159 8.71441 18.5774C8.71441 18.5774 7.92963 17.8158 7.85151 17.5998L7.84936 17.5983Z" fill="white"/>
<path d="M23.3203 19.3397C23.2937 19.701 23.0508 19.9178 22.7906 20.1179C22.5892 20.2726 22.3656 20.3889 22.185 20.5811C22.0123 20.7646 21.7822 20.8889 21.5987 21.0732C21.4088 21.2647 20.9487 21.2459 20.7373 21.0746C20.7108 21.0529 20.6842 21.0291 20.6649 21.0016C20.5588 20.8521 20.6269 20.4127 20.7724 20.295C21.1006 20.029 21.3952 19.722 21.7543 19.4943C21.856 19.43 21.9127 19.3187 22.0116 19.245C22.2459 19.0695 22.5154 19.0543 22.7863 19.0304C22.815 19.0283 22.8537 19.0369 22.8623 19.0102C22.8953 18.9062 22.9576 18.8758 23.0587 18.9098C23.1719 18.9481 23.2644 19.0044 23.2966 19.1338C23.3138 19.2017 23.331 19.2674 23.3203 19.3404V19.3397Z" fill="white"/>
<path d="M15.9925 16.5424C15.6506 16.5569 15.508 16.4109 15.5123 16.0908C15.5181 15.6609 15.5496 15.2266 15.5073 14.801C15.4779 14.5055 15.5238 14.2251 15.5711 13.9484C15.6162 13.6846 15.8241 13.4975 16.0764 13.4057C16.3387 13.3103 16.6848 13.634 16.6203 13.9202C16.5257 14.3422 16.5465 14.762 16.5558 15.1898C16.5644 15.5684 16.5494 15.9557 16.449 16.33C16.4268 16.4131 16.3673 16.4536 16.3007 16.4861C16.1953 16.5381 16.0807 16.5446 15.9925 16.5424Z" fill="white"/>
<path d="M30.083 4.96641H27.5309V0.933073C27.5309 0.730673 27.3676 0.566406 27.1663 0.566406H22.7913C22.5901 0.566406 22.4268 0.730673 22.4268 0.933073V4.96641H8.57259V0.933073C8.57259 0.730673 8.40926 0.566406 8.20801 0.566406H3.83301C3.63176 0.566406 3.46842 0.730673 3.46842 0.933073V4.96641H0.916341C0.715091 4.96641 0.551758 5.13067 0.551758 5.33307V11.1997V30.2664C0.551758 30.4688 0.715091 30.6331 0.916341 30.6331H30.083C30.2843 30.6331 30.4476 30.4688 30.4476 30.2664V11.1997V5.33307C30.4476 5.13067 30.2843 4.96641 30.083 4.96641ZM23.1559 1.29974H26.8018V6.43307H23.1559V1.29974ZM4.19759 1.29974H7.84342V6.43307H4.19759V1.29974ZM29.7184 29.8997H1.28092V11.5664H29.7184V29.8997ZM29.7184 10.8331H1.28092V5.69974H3.46842V6.79974C3.46842 7.00214 3.63176 7.16641 3.83301 7.16641H8.20801C8.40926 7.16641 8.57259 7.00214 8.57259 6.79974V5.69974H22.4268V6.79974C22.4268 7.00214 22.5901 7.16641 22.7913 7.16641H27.1663C27.3676 7.16641 27.5309 7.00214 27.5309 6.79974V5.69974H29.7184V10.8331Z" fill="#EFEFEF"/>
</svg>
