<svg width="52" height="49" viewBox="0 0 52 49" fill="none" xmlns="http://www.w3.org/2000/svg">
<path d="M4.97609 46.52C4.2203 46.601 3.88994 46.1126 3.5572 45.6504C3.39559 45.424 3.26487 45.231 2.93213 45.262C2.63029 45.2906 2.38311 45.1 2.37598 44.8069C2.36647 44.4162 1.88163 44.1636 2.07889 43.7586C2.33795 43.2225 2.73249 42.8032 3.25298 42.4839C4.64811 41.6285 5.88162 40.5707 7.0153 39.3913C7.99926 38.3691 9.026 37.3875 9.99807 36.3582C11.07 35.2217 12.1727 34.1067 13.1971 32.9249C13.7533 32.2816 14.3118 31.6311 14.9273 31.0498C16.2844 29.7656 17.3777 28.2359 18.8109 27.016C19.3837 26.53 19.9113 25.8771 20.5269 25.5412C21.4062 25.0599 22.0384 24.3165 22.799 23.7352C24.2131 22.6559 25.7604 21.6814 26.8608 20.2256C27.2173 19.7539 27.7069 19.618 28.263 19.6133C28.4389 19.6133 28.6005 19.63 28.736 19.7634C28.9641 19.9897 29.1852 21.4598 28.957 21.6504C28.099 22.3628 27.7235 23.4517 26.8988 24.195C26.143 24.8765 25.4799 25.6627 24.774 26.4013C24.5102 26.6753 24.244 26.9612 23.8804 27.0923C23.493 27.2305 23.3456 27.6141 23.0889 27.869C22.635 28.3217 22.231 28.8173 21.6843 29.1675C21.5251 29.27 21.4823 29.4582 21.5251 29.6274C21.651 30.1301 21.3967 30.4565 21.0592 30.7639C19.7829 31.9218 18.5447 33.1369 17.3944 34.4069C15.9541 35.9961 14.3451 37.3994 12.8263 38.8933C11.6523 40.0465 10.4829 41.202 9.33734 42.3838C8.72891 43.0104 8.24168 43.7371 7.69742 44.4186C7.10324 45.1643 6.57561 46.003 5.62018 46.3747C5.38726 46.4652 5.16385 46.57 4.97609 46.5224V46.52Z" fill="#FEFDF9"/>
<path d="M14.5067 46.5908C13.6582 46.5527 13.1639 46.231 12.8288 45.6807C12.4984 45.1374 12.8502 44.7133 13.1829 44.3631C14.723 42.7381 16.1942 41.056 17.6273 39.331C18.6422 38.1087 19.8733 37.0985 21.1591 36.1431C22.5162 35.1329 23.7331 33.9344 25.0426 32.8599C25.8602 32.188 26.6612 31.5018 27.3813 30.7274C27.5881 30.5059 27.8662 30.2438 27.5097 29.9007C27.3195 29.7172 27.4645 29.5624 27.6166 29.4956C27.9446 29.3527 28.2203 29.0453 28.6647 29.2383C28.9571 29.367 29.2185 29.1478 29.3754 28.8976C29.7152 28.3544 30.2262 27.9851 30.6897 27.5681C30.9963 27.2941 32.3035 27.2465 32.6338 27.468C33.1306 27.8016 33.2209 28.6117 32.7812 29.0739C31.9137 29.9841 30.9915 30.8466 30.1597 31.7853C29.4752 32.5597 28.6362 33.1839 28.0991 34.1131C27.8567 34.5348 27.234 34.6659 26.8537 35.0543C26.3284 35.5903 25.7889 36.1145 25.0521 36.4076C24.5412 36.6101 24.3059 37.1938 23.8804 37.5512C23.2292 38.0968 22.6232 38.6973 22.0147 39.2929C21.7747 39.5264 21.5964 39.7599 21.6986 40.184C21.8008 40.6081 21.5917 41.0298 21.2304 41.3396C20.698 41.797 20.1039 42.1759 19.5382 42.5857C18.6232 43.248 17.8959 44.1224 16.9642 44.7562C16.8406 44.8396 16.7646 45.0016 16.6006 45.0135C15.9256 45.0683 15.6261 45.6092 15.2696 46.0595C15.0177 46.3764 14.7563 46.6194 14.5091 46.5884L14.5067 46.5908Z" fill="#FEFDF9"/>
<path d="M40.1753 48.3951C39.4053 48.4547 38.9537 48.0425 38.4261 47.8471C38.0458 47.7065 37.7535 47.6184 37.5515 48.0925C37.4659 48.2903 37.2663 48.3713 37.0262 48.3427C36.3916 48.2664 35.8141 48.2045 35.3007 47.6589C34.7969 47.1204 34.0791 46.7773 33.435 46.377C33.1855 46.2222 32.9692 46.0459 32.8076 45.8147C31.8046 44.3876 30.4427 43.3726 28.9549 42.5339C28.394 42.217 28.0613 41.7738 27.8141 41.2497C27.6763 40.9566 27.4932 40.7612 27.2556 40.5659C26.6662 40.0822 26.2835 39.3507 27.0393 38.5716C27.2793 38.3238 27.517 38.2976 27.8498 38.3215C29.5134 38.4477 30.7374 39.446 32.028 40.3395C32.9145 40.9518 33.8509 41.4879 34.7422 42.0883C36.1492 43.0342 37.6489 43.8396 38.9466 44.9522C39.6168 45.5288 40.3774 45.9982 41.0904 46.5224C41.3756 46.732 41.7107 46.9084 41.5942 47.3777C41.4706 47.8781 41.2544 48.2641 40.6863 48.326C40.4605 48.3498 40.2348 48.3856 40.1706 48.3951H40.1753Z" fill="#FEFDF9"/>
<path d="M47.5334 43.6383C47.291 43.6526 47.0913 43.5287 46.8917 43.4286C45.8792 42.9235 44.9333 42.3183 43.9897 41.6846C42.1169 40.4265 40.7883 38.5848 39.0105 37.2434C38.2119 36.6406 37.4015 36.064 36.5031 35.6018C36.042 35.3659 35.619 35.1967 35.1056 35.1252C34.7229 35.0728 34.2738 34.887 34.1478 34.42C34.0052 33.8934 34.2785 33.5027 34.6564 33.1763C35.0414 32.8403 35.5073 32.664 35.821 32.1661C36.2013 31.5609 37.7152 31.7014 38.2167 32.2518C39.1579 33.2906 40.2417 34.1436 41.3825 34.968C42.6112 35.8567 43.7734 36.8669 44.9214 37.8724C45.9743 38.7968 47.0652 39.6712 48.1822 40.5123C48.7479 40.9388 48.8025 41.1699 48.4745 41.787C48.3248 42.0705 48.3486 42.3779 48.3866 42.6781C48.4603 43.2547 48.1323 43.6335 47.5381 43.6359L47.5334 43.6383Z" fill="#FEFDF9"/>
<path d="M0.572377 13.8798C0.180221 13.5772 -0.0289289 13.2794 0.075646 12.779C0.113673 12.6003 0.10892 12.3883 0.0495023 12.2167C-0.0859697 11.826 0.0708926 11.5758 0.34659 11.3209C0.679328 11.0111 0.950273 10.9134 1.43037 11.1231C2.488 11.5853 3.50047 12.0404 3.99958 13.1912C4.08514 13.3866 4.31806 13.5129 4.46066 13.6916C5.74646 15.2927 7.3436 16.5602 8.9051 17.8659C9.25685 18.1613 9.55156 18.5211 9.76071 18.9214C10.0174 19.4146 10.3977 19.7815 10.8302 20.0793C11.3626 20.4439 11.6573 20.9513 11.9069 21.5136C11.9924 21.7042 12.0637 21.9044 12.1731 22.0807C12.6912 22.917 12.2135 23.8295 11.2153 23.8677C10.1719 23.9058 9.36618 23.384 8.69357 22.6621C8.23011 22.1665 7.87836 21.5708 7.42441 21.0657C6.93243 20.5153 6.3644 20.0364 5.86054 19.498C5.08573 18.6688 4.25864 17.8945 3.44106 17.1082C3.44106 17.1082 0.838568 14.5969 0.579507 13.8845L0.572377 13.8798Z" fill="#FEFDF9"/>
<path d="M51.8757 19.6196C51.7878 20.811 50.9821 21.5257 50.1194 22.1857C49.4515 22.6956 48.71 23.0792 48.111 23.713C47.5383 24.3181 46.7753 24.7279 46.1669 25.3355C45.5371 25.9669 44.0112 25.905 43.3101 25.3403C43.2222 25.2688 43.1342 25.1902 43.0701 25.0996C42.7183 24.6064 42.9441 23.1578 43.4266 22.7694C44.5151 21.8927 45.4919 20.88 46.6826 20.1295C47.0201 19.9175 47.2079 19.5506 47.5359 19.3075C48.3131 18.7286 49.2067 18.6785 50.1051 18.5999C50.2002 18.5927 50.3285 18.6213 50.357 18.5332C50.4664 18.1901 50.6731 18.09 51.0082 18.202C51.3838 18.3283 51.6904 18.5141 51.7973 18.9406C51.8543 19.1646 51.9114 19.3814 51.8757 19.622V19.6196Z" fill="#FEFDF9"/>
<path d="M27.5762 10.399C26.4425 10.4467 25.9696 9.96538 25.9838 8.90989C26.0029 7.49224 26.1074 6.0603 25.9672 4.65694C25.8698 3.68246 26.0219 2.75801 26.1787 1.84547C26.3285 0.975822 27.0177 0.358728 27.8543 0.0561376C28.7242 -0.258366 29.8721 0.80904 29.6582 1.75255C29.3445 3.14399 29.4134 4.52828 29.4443 5.93878C29.4728 7.18727 29.4229 8.46434 29.0902 9.69853C29.0165 9.97253 28.8193 10.106 28.5982 10.2132C28.2488 10.3847 27.8686 10.4062 27.5762 10.399Z" fill="#FEFDF9"/>
</svg>
