<svg width="30" height="39" viewBox="0 0 30 39" fill="none" xmlns="http://www.w3.org/2000/svg">
<path fill-rule="evenodd" clip-rule="evenodd" d="M14.9153 39C10.57 34.9957 4.48679 33.6028 2.40128 30.2946C-2.9867 22.1115 2.22753 19.674 3.2703 11.8393C6.22498 16.0178 4.48695 19.4998 7.61553 20.3705C6.39888 10.9687 16.306 13.0581 15.7846 0C27.2559 9.40185 16.1323 17.0624 22.2154 22.2854C21.8677 18.455 23.432 14.973 25.6914 12.1874C24.8224 20.7186 32.4699 20.5444 29.1675 29.0756C27.2555 34.1247 18.5651 34.8212 14.9151 38.9997L14.9153 39ZM14.9153 37.0848C18.9127 33.7766 26.3865 32.2098 27.7771 28.5536C30.2104 22.4599 26.039 21.7634 24.6485 16.5404C23.0842 20.0224 23.7795 22.286 24.1271 25.7681C20.6511 22.8083 18.2178 21.5896 19.0866 16.1923C19.608 12.3619 21.3462 8.00923 17.1747 3.30847C16.4794 8.8799 13.6986 11.1432 11.6128 13.2326C8.48422 16.5407 8.83186 18.1075 9.35323 22.286C5.008 21.0673 4.8341 21.0673 3.61745 16.3665C2.05316 20.8934 -0.379984 23.679 3.61745 29.5985C5.18174 32.036 11.2648 34.1254 14.9148 37.0851L14.9153 37.0848Z" fill="#EFEFEF"/>
</svg>
