<svg width="24" height="25" viewBox="0 0 24 25" fill="none" xmlns="http://www.w3.org/2000/svg">
<path fill-rule="evenodd" clip-rule="evenodd" d="M7 2.5C7 1.94772 7.44771 1.5 8 1.5C8.55229 1.5 9 1.94772 9 2.5V3.5H15V2.5C15 1.94772 15.4477 1.5 16 1.5C16.5523 1.5 17 1.94772 17 2.5V3.5H19C20.6569 3.5 22 4.84315 22 6.5V20.5C22 22.1569 20.6569 23.5 19 23.5H5C3.34315 23.5 2 22.1569 2 20.5V6.5C2 4.84315 3.34315 3.5 5 3.5H7V2.5ZM4 9.5V6.5C4 5.94772 4.44772 5.5 5 5.5H7V6.5C7 7.05228 7.44771 7.5 8 7.5C8.55229 7.5 9 7.05228 9 6.5V5.5H15V6.5C15 7.05228 15.4477 7.5 16 7.5C16.5523 7.5 17 7.05228 17 6.5V5.5H19C19.5523 5.5 20 5.94772 20 6.5V9.5H4ZM20 11.5H4V20.5C4 21.0523 4.44772 21.5 5 21.5H19C19.5523 21.5 20 21.0523 20 20.5V11.5Z" fill="#FEFDF9"/>
</svg>
