<svg width="26" height="27" viewBox="0 0 26 27" fill="none" xmlns="http://www.w3.org/2000/svg">
<path d="M18.4165 7.00065C19.0148 7.00065 19.4998 7.48568 19.4998 8.08398C19.4998 8.68229 19.0148 9.16732 18.4165 9.16732H18.4057C17.8074 9.16732 17.3223 8.68229 17.3223 8.08398C17.3223 7.48568 17.8074 7.00065 18.4057 7.00065H18.4165Z" fill="#FEFDF9"/>
<path fill-rule="evenodd" clip-rule="evenodd" d="M23.8332 1.58398C24.4315 1.58398 24.9165 2.06901 24.9165 2.66732V13.5007C24.9165 13.7882 24.8022 14.0639 24.5988 14.2671L15.2938 23.5613C14.992 23.8633 14.6334 24.1032 14.239 24.2667C13.8444 24.4303 13.4215 24.5144 12.9944 24.5144C12.5673 24.5144 12.1444 24.4303 11.7499 24.2667C11.3555 24.1032 10.9972 23.8637 10.6955 23.5617L2.92797 15.7942L3.69401 15.0281L2.9257 15.7919C2.32038 15.183 1.98062 14.3593 1.98062 13.5007C1.98062 12.642 2.32038 11.8183 2.92569 11.2094L12.2338 1.90129C12.437 1.69812 12.7125 1.58398 12.9998 1.58398H23.8332ZM4.46132 14.2634L4.46231 14.2644L12.2275 22.0296C12.3281 22.1303 12.4481 22.2107 12.5796 22.2652C12.7111 22.3197 12.8521 22.3478 12.9944 22.3478C13.1368 22.3478 13.2778 22.3197 13.4093 22.2652C13.5408 22.2107 13.6603 22.1308 13.7609 22.03L13.7618 22.0292L22.7498 13.0515V3.75065H13.4486L4.46231 12.7369L4.46132 12.7379C4.26017 12.9408 4.14729 13.2149 4.14729 13.5007C4.14729 13.7864 4.26017 14.0605 4.46132 14.2634Z" fill="#FEFDF9"/>
</svg>
