<svg width="22" height="23" viewBox="0 0 22 23" fill="none" xmlns="http://www.w3.org/2000/svg">
<g clip-path="url(#clip0_1907_7831)">
<path fill-rule="evenodd" clip-rule="evenodd" d="M12 5.25004C10.0118 5.25004 8.4 6.81706 8.4 8.75007C8.4 10.6831 10.0118 12.2501 12 12.2501C13.9882 12.2501 15.6 10.6831 15.6 8.75007C15.6 6.81706 13.9882 5.25004 12 5.25004ZM10.2 8.75007C10.2 7.78356 11.0059 7.00005 12 7.00005C12.9941 7.00005 13.8 7.78356 13.8 8.75007C13.8 9.71657 12.9941 10.5001 12 10.5001C11.0059 10.5001 10.2 9.71657 10.2 8.75007Z" fill="#FEFDF9"/>
<path fill-rule="evenodd" clip-rule="evenodd" d="M11.5003 20.8529C11.5005 20.8531 11.5008 20.8532 12 20.1252L11.5003 20.8529C11.8026 21.0488 12.1969 21.0491 12.4992 20.8532L12 20.1252C12.4992 20.8532 12.499 20.8534 12.4992 20.8532L12.5023 20.8512L12.5083 20.8473L12.5289 20.8337C12.5464 20.8222 12.5714 20.8055 12.6034 20.784C12.6673 20.741 12.7592 20.6783 12.875 20.597C13.1065 20.4344 13.4343 20.1971 13.8263 19.8936C14.6088 19.2878 15.6546 18.4126 16.7034 17.3363C18.7642 15.2214 21 12.1643 21 8.75007C21 6.4294 20.0518 4.20379 18.364 2.56283C16.6761 0.921879 14.3869 0 12 0C9.61305 0 7.32387 0.921879 5.63604 2.56283C3.94821 4.20379 3 6.4294 3 8.75007C3 12.1643 5.23584 15.2214 7.29664 17.3363C8.34545 18.4126 9.3912 19.2878 10.1737 19.8936C10.5657 20.1971 10.8935 20.4344 11.125 20.597C11.2408 20.6783 11.3327 20.741 11.3966 20.784C11.4286 20.8055 11.4536 20.8222 11.4711 20.8337L11.4917 20.8473L11.4977 20.8512L11.5003 20.8529ZM6.90883 3.80028C8.25909 2.48752 10.0904 1.75001 12 1.75001C13.9096 1.75001 15.7409 2.48752 17.0912 3.80028C18.4414 5.11305 19.2 6.89354 19.2 8.75007C19.2 11.4609 17.3858 14.0913 15.3966 16.1327C14.4204 17.1345 13.4412 17.9547 12.705 18.5246C12.431 18.7367 12.1917 18.9134 12 19.0512C11.8083 18.9134 11.569 18.7367 11.295 18.5246C10.5588 17.9547 9.57955 17.1345 8.60336 16.1327C6.61416 14.0913 4.8 11.4609 4.8 8.75007C4.8 6.89354 5.55857 5.11305 6.90883 3.80028Z" fill="#FEFDF9"/>
</g>
<defs>
<clipPath id="clip0_1907_7831">
<rect width="22" height="22" fill="white" transform="matrix(-1 0 0 1 22 0.5)"/>
</clipPath>
</defs>
</svg>
