<?xml version="1.0" encoding="UTF-8"?>
<svg id="Calque_1" xmlns="http://www.w3.org/2000/svg" version="1.1" viewBox="0 0 238 55">
  <!-- Generator: Adobe Illustrator 29.1.0, SVG Export Plug-In . SVG Version: 2.1.0 Build 142)  -->
  <defs>
    <style>
      .st0 {
        fill: #fefdf9;
      }
    </style>
  </defs>
  <g id="Layer_1">
    <g id="VmX0ZF">
      <g id="Group">
        <path id="Vector" class="st0" d="M5.5,46.5c-.8,0-1.1-.4-1.4-.9-.2-.2-.3-.4-.6-.4-.3,0-.5-.2-.6-.5,0-.4-.5-.6-.3-1,.3-.5.7-1,1.2-1.3,1.4-.9,2.6-1.9,3.8-3.1,1-1,2-2,3-3,1.1-1.1,2.2-2.3,3.2-3.4.6-.6,1.1-1.3,1.7-1.9,1.4-1.3,2.5-2.8,3.9-4,.6-.5,1.1-1.1,1.7-1.5.9-.5,1.5-1.2,2.3-1.8,1.4-1.1,3-2.1,4.1-3.5.4-.5.8-.6,1.4-.6.2,0,.3,0,.5.2.2.2.4,1.7.2,1.9-.9.7-1.2,1.8-2.1,2.5-.8.7-1.4,1.5-2.1,2.2-.3.3-.5.6-.9.7-.4.1-.5.5-.8.8-.5.5-.9.9-1.4,1.3-.2.1-.2.3-.2.5.1.5-.1.8-.5,1.1-1.3,1.2-2.5,2.4-3.7,3.6-1.4,1.6-3,3-4.6,4.5-1.2,1.2-2.3,2.3-3.5,3.5-.6.6-1.1,1.4-1.6,2-.6.7-1.1,1.6-2.1,2-.2,0-.5.2-.6.1h0Z"/>
        <path id="Vector_2" class="st0" d="M15,46.6c-.8,0-1.3-.4-1.7-.9-.3-.5,0-1,.4-1.3,1.5-1.6,3-3.3,4.4-5,1-1.2,2.2-2.2,3.5-3.2,1.4-1,2.6-2.2,3.9-3.3.8-.7,1.6-1.4,2.3-2.1.2-.2.5-.5.1-.8-.2-.2,0-.3.1-.4.3-.1.6-.5,1-.3.3.1.6,0,.7-.3.3-.5.9-.9,1.3-1.3.3-.3,1.6-.3,1.9-.1.5.3.6,1.1.1,1.6-.9.9-1.8,1.8-2.6,2.7-.7.8-1.5,1.4-2.1,2.3-.2.4-.9.6-1.2.9-.5.5-1.1,1.1-1.8,1.4-.5.2-.7.8-1.2,1.1-.7.5-1.3,1.1-1.9,1.7-.2.2-.4.5-.3.9.1.4-.1.8-.5,1.2-.5.5-1.1.8-1.7,1.2-.9.7-1.6,1.5-2.6,2.2-.1,0-.2.2-.4.3-.7,0-1,.6-1.3,1-.3.3-.5.6-.8.5h0Z"/>
        <path id="Vector_3" class="st0" d="M40.7,48.4c-.8,0-1.2-.4-1.7-.5-.4-.1-.7-.2-.9.2,0,.2-.3.3-.5.3-.6,0-1.2-.1-1.7-.7-.5-.5-1.2-.9-1.9-1.3-.2-.2-.5-.3-.6-.6-1-1.4-2.4-2.4-3.9-3.3-.6-.3-.9-.8-1.1-1.3-.1-.3-.3-.5-.6-.7-.6-.5-1-1.2-.2-2,.2-.2.5-.3.8-.3,1.7.1,2.9,1.1,4.2,2,.9.6,1.8,1.1,2.7,1.7,1.4.9,2.9,1.8,4.2,2.9.7.6,1.4,1,2.1,1.6.3.2.6.4.5.9-.1.5-.3.9-.9.9-.2,0-.5,0-.5,0h0Z"/>
        <path id="Vector_4" class="st0" d="M48,43.6c-.2,0-.4-.1-.6-.2-1-.5-2-1.1-2.9-1.7-1.9-1.3-3.2-3.1-5-4.4-.8-.6-1.6-1.2-2.5-1.6-.5-.2-.9-.4-1.4-.5-.4,0-.8-.2-1-.7-.1-.5.1-.9.5-1.2.4-.3.9-.5,1.2-1,.4-.6,1.9-.5,2.4,0,.9,1,2,1.9,3.2,2.7,1.2.9,2.4,1.9,3.5,2.9,1.1.9,2.1,1.8,3.3,2.6.6.4.6.7.3,1.3-.1.3-.1.6,0,.9,0,.6-.3,1-.8,1h0Z"/>
        <path id="Vector_5" class="st0" d="M1.1,13.9c-.4-.3-.6-.6-.5-1.1,0-.2,0-.4,0-.6-.1-.4,0-.6.3-.9.3-.3.6-.4,1.1-.2,1.1.5,2.1.9,2.6,2.1,0,.2.3.3.5.5,1.3,1.6,2.9,2.9,4.4,4.2.4.3.6.7.9,1.1.3.5.6.9,1.1,1.2.5.4.8.9,1.1,1.4,0,.2.2.4.3.6.5.8,0,1.7-1,1.8-1,0-1.8-.5-2.5-1.2-.5-.5-.8-1.1-1.3-1.6-.5-.6-1.1-1-1.6-1.6-.8-.8-1.6-1.6-2.4-2.4,0,0-2.6-2.5-2.9-3.2h0Z"/>
        <path id="Vector_6" class="st0" d="M52.4,19.6c0,1.2-.9,1.9-1.8,2.6-.7.5-1.4.9-2,1.5-.6.6-1.3,1-1.9,1.6-.6.6-2.2.6-2.9,0,0,0-.2-.2-.2-.2-.4-.5-.1-1.9.4-2.3,1.1-.9,2.1-1.9,3.3-2.6.3-.2.5-.6.9-.8.8-.6,1.7-.6,2.6-.7,0,0,.2,0,.3,0,.1-.3.3-.4.7-.3.4.1.7.3.8.7,0,.2.1.4,0,.7h0Z"/>
        <path id="Vector_7" class="st0" d="M28.1,10.4c-1.1,0-1.6-.4-1.6-1.5,0-1.4.1-2.8,0-4.3,0-1,0-1.9.2-2.8.1-.9.8-1.5,1.7-1.8.9-.3,2,.8,1.8,1.7-.3,1.4-.2,2.8-.2,4.2,0,1.2,0,2.5-.4,3.8,0,.3-.3.4-.5.5-.3.2-.7.2-1,.2Z"/>
      </g>
    </g>
    <g id="Group_2">
      <path id="Vector_8" class="st0" d="M78.2,28.5v-.7h14l.8,5.4-.7.2c-1.3-2.6-3.2-4.1-6.3-4.1h-1.7v7.4h.8c2.4,0,3.4-1.4,3.6-3.1h.8v7.9h-.8c-.3-1.8-1.1-3.4-3.6-3.4h-.8v5.5c0,2.5,1,2.9,2.8,3.3v.8h-8.9v-.8c1.3-.2,1.6-.8,1.6-3.3v-11.9c0-2.5-.3-3.1-1.6-3.3Z"/>
      <path id="Vector_9" class="st0" d="M92.3,41.4c0-4.1,3.1-7.8,7-7.8s5.2,3.8,5.2,6.7h-8.1c.2,3.4,2,5.2,4.2,5.2s2-.5,2.9-1.2l.6.7c-1.2,1.7-3.1,3.1-5.5,3.1s-6.2-2.7-6.2-6.7h0ZM100.3,39c0-1.6-.5-3.9-1.8-3.9s-2,1.5-2.1,3.9h3.9Z"/>
      <path id="Vector_10" class="st0" d="M112.6,45.6c.7,0,1.6-.5,2.4-1.2v-6.6c0-.9-.5-1.4-1.4-1.4v-.7c2.1-.6,4.1-1.5,5.3-2.1l.5.5c-.1.8-.2,3-.2,4.3h0v4.7c0,1.7.8,2,1.7,2l.2.7c-1.4.6-3.5,1.6-4.7,2.3l-.7-.3c-.2-.5-.3-1.3-.4-2-1.2,1.1-2.7,2.3-4.2,2.3-2.6,0-4.2-1.6-4.2-4.2v-5.5c0-1.4-.3-2-1.5-2.1v-.7c2.1-.6,4.1-1.5,5.3-2.1l.5.5c-.1.8-.2,3-.2,4.3v4.6c0,1.5.4,2.5,1.6,2.5h0Z"/>
      <path id="Vector_11" class="st0" d="M142.6,45l.2.7c-1.4.6-3.5,1.6-4.7,2.3l-.7-.3c-.1-.4-.3-1-.3-1.6-1.5,1.3-2.9,1.9-4.3,1.9-2.5,0-5.2-2.5-5.2-6.5s3.7-8,7.5-8,1.1,0,1.7.2v-3.1c0-.9-.5-1.4-1.4-1.4v-.7c2.1-.6,4.1-1.5,5.3-2.1l.5.5c-.1.8-.2,3-.2,4.3h0v11.7c0,1.7.8,2,1.7,2h0ZM134.7,45.8c.7,0,1.3-.4,2-1.1v-8.2c-.8-.8-1.7-1.4-2.6-1.4-1.5,0-2.5,2.4-2.5,5.1s1.3,5.6,3.1,5.6Z"/>
      <path id="Vector_12" class="st0" d="M142.9,41.4c0-4.1,3.1-7.8,7-7.8s5.2,3.8,5.2,6.7h-8.1c.2,3.4,2,5.2,4.2,5.2s2-.5,2.9-1.2l.6.7c-1.2,1.7-3.1,3.1-5.5,3.1s-6.2-2.7-6.2-6.7h0ZM150.9,39c0-1.6-.5-3.9-1.8-3.9s-2,1.5-2.1,3.9h3.9Z"/>
      <path id="Vector_13" class="st0" d="M161.7,37.8c0-6,4.9-10.4,10.6-10.4s5.3.6,7,1.4l.2,5-.7.2c-2.6-3.2-4.8-5.1-7.2-5.1s-4.6,3.7-4.6,7.7,3,9.9,6.8,9.9,4-2.2,5.8-5.2h.7c0,.1-.1,5.1-.1,5.1-1.7.8-4.9,1.7-7.3,1.7-6,0-11.1-4.4-11.1-10.4h0Z"/>
      <path id="Vector_14" class="st0" d="M189.6,46.8c-1,.7-2.2,1.4-3.8,1.4s-3.6-1.2-3.6-3.1,2.2-3.2,4.4-3.8l2.9-.8v-1.7c0-2.2-.1-3.5-1.7-3.5s-1.7.8-1.7,1.8.4,1.3.8,1.7l-3.6,1c-.8-.5-1.1-1.3-1.1-1.9,0-2.1,4.1-4.2,7.3-4.2s4.1,1.5,4.1,3.9v7.6c0,.6.3.8.6.8s.7-.2,1.1-.4l.4.7c-1.1,1-2.4,2-4,2s-1.9-.5-2.2-1.4h0ZM188.2,46c.5,0,.9-.2,1.3-.5v-3.6l-.6.2c-1.4.4-2.3,1.1-2.3,2.3s.7,1.6,1.6,1.6Z"/>
      <path id="Vector_15" class="st0" d="M198.5,44.6v-6.4c-.1-1.3-.9-1.5-1.7-1.5l-.2-.7c1.4-.6,3.5-1.6,4.7-2.3l.7.3c.2.7.3,1.5.5,2.4,1.2-1.2,3-2.7,4.6-2.7s3.5,1,4,2.7c1.2-1.2,3-2.7,4.6-2.7,2.6,0,4.2,1.6,4.2,4.2v6.8c.1,1.6.6,2.1,1.4,2.3v.8h-7.1v-.8c1-.2,1.5-.9,1.5-3.1h0v-5.1c0-1.5-.4-2.5-1.6-2.5s-2,.7-2.8,1.6v6c0,2.3.5,2.9,1.4,3.1v.8h-7.1v-.8c1-.2,1.5-.9,1.5-3.1v-5.1c0-1.5-.4-2.5-1.6-2.5s-2,.7-2.8,1.6v6h0c0,2.3.6,2.9,1.5,3.1v.8h-7.1v-.8c.8-.2,1.3-.7,1.4-2.3h0Z"/>
      <path id="Vector_16" class="st0" d="M224.3,51.2v-13c-.1-1.3-.9-1.5-1.7-1.5l-.2-.7c1.4-.6,3.5-1.6,4.7-2.3l.7.3c.1.4.3,1,.3,1.6,1.5-1.2,2.8-1.9,4.2-1.9,2.5,0,5.2,2.5,5.2,6.5s-3.7,8-7.5,8-1.1,0-1.6-.1v3.2c0,1.8.5,2.6,2.7,2.9v.8h-8.2v-.8c1-.2,1.3-1.2,1.3-2.9h0ZM231,46.6c1.5,0,2.5-2.4,2.5-5.1s-1.3-5.6-3.1-5.6-1.3.4-1.9,1v8.3c.8.8,1.7,1.3,2.6,1.3Z"/>
    </g>
    <g id="Group_3">
      <path id="Vector_17" class="st0" d="M79.4,17v-6.1c0-1.3-.2-1.5-.9-1.7v-.4h4.2v.4c-.6.2-1,.4-1,1.7v6.3c0,.7.2,1.1,1.2,1.1,1.6,0,2.7-.9,3.2-2.6h.4c0,0-.4,3.4-.4,3.4h-7.6v-.4c.7-.2.9-.4.9-1.7Z"/>
      <path id="Vector_18" class="st0" d="M87,15.9c0-2.1,1.6-4,3.6-4s2.7,1.9,2.7,3.5h-4.2c.1,1.8,1.1,2.7,2.1,2.7s1-.2,1.5-.6l.3.3c-.6.9-1.6,1.6-2.8,1.6s-3.2-1.4-3.2-3.5ZM91.1,14.7c0-.8-.2-2-.9-2s-1,.8-1.1,2h2,0Z"/>
      <path id="Vector_19" class="st0" d="M98.6,17.1v-6.1c0-1.3-.2-1.5-.9-1.7v-.4h3.6c3.2,0,4.8,1.3,4.8,3.1s-2.3,3.3-4.3,3.3v-.4c1.4-.3,1.9-1.4,1.9-2.7s-.6-2.5-2.5-2.5h-.3v7.4c0,1.3.6,1.5,1.7,1.7v.4h-4.9v-.4c.7-.2.9-.4.9-1.7h0Z"/>
      <path id="Vector_20" class="st0" d="M107.5,17.3v-3c0-.7-.5-.8-.9-.8v-.4c.6-.3,1.7-.8,2.3-1.2h.4c.1.6.2,1.2.3,1.8.5-.8,1.2-1.7,1.9-1.7s1.1.5,1.3.9l-.7,1.7c-.3-.3-.6-.6-1.2-.6s-.8.1-1.2.6v2.8c0,.9.3,1.3,1.4,1.5v.4h-4.2v-.4c.5-.1.7-.6.7-1.5h0Z"/>
      <path id="Vector_21" class="st0" d="M112.9,15.6c0-1.9,1.5-3.8,3.7-3.8s3.7,1.6,3.7,3.7-1.5,3.8-3.6,3.8-3.7-1.7-3.7-3.7h0ZM117,18.6c.8,0,1.1-1.1,1.1-2.3,0-1.9-1-3.6-2-3.6s-1.1.9-1.1,2.1c0,2,.9,3.8,2,3.8Z"/>
      <path id="Vector_22" class="st0" d="M121.6,18.7v-4.7c0-.5-.2-.7-.7-.7v-.4c1.1-.3,2.1-.8,2.7-1.1l.3.3c0,.4-.1,1.5-.1,2.2h0v4.2c0,1.4-2,3.3-3.2,4.3l-.3-.3c.9-1.2,1.3-2.4,1.3-3.8ZM122.8,8.3c.6,0,1.1.5,1.1,1.1s-.6,1.3-1.2,1.3-1.1-.5-1.1-1.1.6-1.3,1.2-1.3Z"/>
      <path id="Vector_23" class="st0" d="M125,15.9c0-2.1,1.6-4,3.6-4s2.7,1.9,2.7,3.5h-4.2c.1,1.8,1.1,2.7,2.1,2.7s1-.2,1.5-.6l.3.3c-.6.9-1.6,1.6-2.8,1.6s-3.2-1.4-3.2-3.5ZM129.2,14.7c0-.8-.2-2-.9-2s-1,.8-1.1,2h2,0Z"/>
      <path id="Vector_24" class="st0" d="M132.6,17.5v-4.5h-.8v-.5c-.1,0,2.3-2.3,2.3-2.3h.6v1.9h1.7v.3c.1,0-.2.6-.2.6h-1.4v4.3c0,.6.1,1,.6,1s.6-.1.9-.3l.2.4c-.5.5-1.3,1-2.1,1s-1.8-.5-1.8-1.9h0Z"/>
    </g>
    <g id="Group_4">
      <path id="Vector_25" class="st0" d="M67.2,10.4c0-.5,0-.8.4-1.1.1,0,.3-.2.3-.4.2-.4.4-.4.7-.4.4,0,.6.1.7.6.3,1.1.7,2.1.3,3.2,0,.2,0,.4,0,.7-.2,2,0,4,.1,6,0,.5,0,.9-.1,1.3-.1.5-.2,26.3-.1,26.8,0,.6,0,1.2-.2,1.8,0,.2-.1.4-.2.6-.2.9-1,1.2-1.6.6-.6-.7-.8-1.6-.8-2.6,0-.7.2-26.6.2-27.2,0-.7,0-1.5,0-2.2,0-1.1,0-2.2,0-3.4,0,0,0-3.6.2-4.3h0Z"/>
    </g>
  </g>
</svg>