<svg width="238" height="55" viewBox="0 0 238 55" fill="none" xmlns="http://www.w3.org/2000/svg">
<g id="Layer_1" clip-path="url(#clip0_910_16865)">
<g id="VmX0ZF">
<g id="Group">
<path id="Vector" d="M5.47463 46.52C4.71884 46.601 4.38848 46.1126 4.05574 45.6504C3.89412 45.424 3.7634 45.231 3.43066 45.262C3.12882 45.2906 2.88165 45.1 2.87452 44.8069C2.86501 44.4162 2.38016 44.1636 2.57743 43.7586C2.83649 43.2225 3.23102 42.8032 3.75152 42.4839C5.14664 41.6285 6.38015 40.5707 7.51384 39.3913C8.49779 38.3691 9.52453 37.3875 10.4966 36.3582C11.5685 35.2217 12.6713 34.1067 13.6956 32.9249C14.2518 32.2816 14.8103 31.6311 15.4259 31.0498C16.783 29.7656 17.8763 28.2359 19.3094 27.016C19.8822 26.53 20.4098 25.8771 21.0254 25.5412C21.9048 25.0599 22.537 24.3165 23.2975 23.7352C24.7117 22.6559 26.2589 21.6814 27.3593 20.2256C27.7158 19.7539 28.2054 19.618 28.7616 19.6133C28.9374 19.6133 29.099 19.63 29.2345 19.7634C29.4627 19.9897 29.6837 21.4598 29.4556 21.6504C28.5976 22.3628 28.222 23.4517 27.3973 24.195C26.6415 24.8765 25.9784 25.6627 25.2726 26.4013C25.0087 26.6753 24.7426 26.9612 24.3789 27.0923C23.9915 27.2305 23.8442 27.6141 23.5875 27.869C23.1335 28.3217 22.7295 28.8173 22.1828 29.1675C22.0236 29.27 21.9808 29.4582 22.0236 29.6274C22.1496 30.1301 21.8953 30.4565 21.5578 30.7639C20.2815 31.9218 19.0432 33.1369 17.8929 34.4069C16.4526 35.9961 14.8436 37.3994 13.3249 38.8933C12.1508 40.0465 10.9814 41.202 9.83588 42.3838C9.22744 43.0104 8.74022 43.7371 8.19595 44.4186C7.60178 45.1643 7.07415 46.003 6.11871 46.3747C5.8858 46.4652 5.66239 46.57 5.47463 46.5224V46.52Z" fill="black"/>
<path id="Vector_2" d="M15.0048 46.5908C14.1563 46.5527 13.6619 46.231 13.3268 45.6807C12.9965 45.1374 13.3482 44.7133 13.6809 44.3631C15.221 42.7381 16.6922 41.056 18.1254 39.331C19.1402 38.1087 20.3714 37.0985 21.6572 36.1431C23.0143 35.1329 24.2311 33.9344 25.5407 32.8599C26.3583 32.188 27.1592 31.5018 27.8794 30.7274C28.0861 30.5059 28.3642 30.2438 28.0077 29.9007C27.8176 29.7172 27.9625 29.5624 28.1147 29.4956C28.4426 29.3527 28.7183 29.0453 29.1628 29.2383C29.4551 29.367 29.7166 29.1478 29.8734 28.8976C30.2133 28.3544 30.7243 27.9851 31.1877 27.5681C31.4943 27.2941 32.8015 27.2465 33.1319 27.468C33.6286 27.8016 33.7189 28.6117 33.2792 29.0739C32.4117 29.9841 31.4896 30.8466 30.6577 31.7853C29.9732 32.5597 29.1343 33.1839 28.5971 34.1131C28.3547 34.5348 27.732 34.6659 27.3517 35.0543C26.8265 35.5903 26.287 36.1145 25.5502 36.4076C25.0392 36.6101 24.8039 37.1938 24.3785 37.5512C23.7273 38.0968 23.1212 38.6973 22.5128 39.2929C22.2727 39.5264 22.0945 39.7599 22.1967 40.184C22.2989 40.6081 22.0897 41.0298 21.7285 41.3396C21.1961 41.797 20.6019 42.1759 20.0362 42.5857C19.1212 43.248 18.3939 44.1224 17.4623 44.7562C17.3387 44.8396 17.2626 45.0016 17.0986 45.0135C16.4237 45.0683 16.1242 45.6092 15.7677 46.0595C15.5158 46.3764 15.2543 46.6194 15.0071 46.5884L15.0048 46.5908Z" fill="black"/>
<path id="Vector_3" d="M40.6734 48.3951C39.9033 48.4547 39.4518 48.0425 38.9241 47.8471C38.5439 47.7065 38.2515 47.6184 38.0495 48.0925C37.9639 48.2903 37.7643 48.3713 37.5242 48.3427C36.8897 48.2664 36.3121 48.2045 35.7988 47.6589C35.2949 47.1204 34.5771 46.7773 33.9331 46.377C33.6835 46.2222 33.4672 46.0459 33.3056 45.8147C32.3026 44.3876 30.9408 43.3726 29.453 42.5339C28.8921 42.217 28.5593 41.7738 28.3122 41.2497C28.1743 40.9566 27.9913 40.7612 27.7536 40.5659C27.1642 40.0822 26.7816 39.3507 27.5373 38.5716C27.7774 38.3238 28.0151 38.2976 28.3478 38.3215C30.0115 38.4477 31.2355 39.446 32.526 40.3395C33.4126 40.9518 34.349 41.4879 35.2402 42.0883C36.6472 43.0342 38.1469 43.8396 39.4446 44.9522C40.1149 45.5288 40.8754 45.9982 41.5884 46.5224C41.8736 46.732 42.2087 46.9084 42.0923 47.3777C41.9687 47.8781 41.7524 48.2641 41.1844 48.326C40.9586 48.3498 40.7328 48.3856 40.6686 48.3951H40.6734Z" fill="black"/>
<path id="Vector_4" d="M48.0314 43.6383C47.789 43.6526 47.5894 43.5287 47.3897 43.4286C46.3772 42.9235 45.4313 42.3183 44.4878 41.6846C42.6149 40.4265 41.2863 38.5848 39.5086 37.2434C38.71 36.6406 37.8995 36.064 37.0011 35.6018C36.5401 35.3659 36.117 35.1967 35.6036 35.1252C35.221 35.0728 34.7718 34.887 34.6458 34.42C34.5032 33.8934 34.7766 33.5027 35.1544 33.1763C35.5395 32.8403 36.0053 32.664 36.319 32.1661C36.6993 31.5609 38.2133 31.7014 38.7147 32.2518C39.6559 33.2906 40.7397 34.1436 41.8805 34.968C43.1093 35.8567 44.2715 36.8669 45.4194 37.8724C46.4723 38.7968 47.5632 39.6712 48.6803 40.5123C49.2459 40.9388 49.3006 41.1699 48.9726 41.787C48.8229 42.0705 48.8466 42.3779 48.8847 42.6781C48.9583 43.2547 48.6303 43.6335 48.0362 43.6359L48.0314 43.6383Z" fill="black"/>
<path id="Vector_5" d="M1.07042 13.8798C0.678268 13.5772 0.469118 13.2794 0.573693 12.779C0.61172 12.6003 0.606967 12.3883 0.547549 12.2167C0.412077 11.826 0.56894 11.5758 0.844637 11.3209C1.17738 11.0111 1.44832 10.9134 1.92841 11.1231C2.98605 11.5853 3.99852 12.0404 4.49763 13.1912C4.58319 13.3866 4.81611 13.5129 4.95871 13.6916C6.2445 15.2927 7.84165 16.5602 9.40314 17.8659C9.75489 18.1613 10.0496 18.5211 10.2588 18.9214C10.5154 19.4146 10.8957 19.7815 11.3283 20.0793C11.8607 20.4439 12.1554 20.9513 12.4049 21.5136C12.4905 21.7042 12.5618 21.9044 12.6711 22.0807C13.1892 22.917 12.7115 23.8295 11.7133 23.8677C10.6699 23.9058 9.86422 23.384 9.19162 22.6621C8.72816 22.1665 8.37641 21.5708 7.92246 21.0657C7.43048 20.5153 6.86245 20.0364 6.35859 19.498C5.58378 18.6688 4.75669 17.8945 3.9391 17.1082C3.9391 17.1082 1.33661 14.5969 1.07755 13.8845L1.07042 13.8798Z" fill="black"/>
<path id="Vector_6" d="M52.3733 19.6196C52.2854 20.811 51.4797 21.5257 50.6169 22.1857C49.9491 22.6956 49.2075 23.0792 48.6086 23.713C48.0358 24.3181 47.2729 24.7279 46.6645 25.3355C46.0346 25.9669 44.5088 25.905 43.8077 25.3403C43.7197 25.2688 43.6318 25.1902 43.5676 25.0996C43.2159 24.6064 43.4417 23.1578 43.9241 22.7694C45.0127 21.8927 45.9895 20.88 47.1802 20.1295C47.5177 19.9175 47.7055 19.5506 48.0334 19.3075C48.8106 18.7286 49.7043 18.6785 50.6027 18.5999C50.6977 18.5927 50.8261 18.6213 50.8546 18.5332C50.9639 18.1901 51.1707 18.09 51.5058 18.202C51.8813 18.3283 52.1879 18.5141 52.2949 18.9406C52.3519 19.1646 52.4089 19.3814 52.3733 19.622V19.6196Z" fill="black"/>
<path id="Vector_7" d="M28.0743 10.399C26.9406 10.4467 26.4676 9.96538 26.4819 8.90989C26.5009 7.49224 26.6055 6.0603 26.4653 4.65694C26.3678 3.68246 26.5199 2.75801 26.6768 1.84547C26.8265 0.975822 27.5158 0.358728 28.3524 0.0561376C29.2222 -0.258366 30.3702 0.80904 30.1563 1.75255C29.8425 3.14399 29.9115 4.52828 29.9424 5.93878C29.9709 7.18727 29.921 8.46434 29.5882 9.69853C29.5146 9.97253 29.3173 10.106 29.0963 10.2132C28.7469 10.3847 28.3666 10.4062 28.0743 10.399Z" fill="black"/>
</g>
</g>
<g id="Group_2">
<path id="Vector_8" d="M78.1973 28.4609V27.7461H92.1747L92.9994 33.1403L92.2602 33.3404C90.9221 30.7148 89.0707 29.259 85.9406 29.259H84.2602V36.6785H85.0279C87.4759 36.6785 88.3862 35.2513 88.6143 33.624H89.382V41.558H88.6143C88.3291 39.7306 87.4759 38.1914 85.0279 38.1914H84.2602V43.7C84.2602 46.1827 85.2561 46.6115 87.1075 46.9546V47.7242H78.1973V46.9546C79.5353 46.7831 79.792 46.1565 79.792 43.7V31.7703C79.792 29.3162 79.4498 28.6586 78.1973 28.4609Z" fill="black"/>
<path id="Vector_9" d="M92.2891 41.3895C92.2891 37.3367 95.4216 33.627 99.2932 33.627C103.165 33.627 104.446 37.3938 104.446 40.334H96.3318C96.5315 43.7292 98.3806 45.5281 100.489 45.5281C101.57 45.5281 102.452 45.0706 103.393 44.3296L104.02 44.9848C102.796 46.6693 100.888 48.0965 98.5255 48.0965C95.2528 48.0965 92.2914 45.3565 92.2914 41.3895H92.2891ZM100.261 39.0498C100.261 37.4224 99.7757 35.1399 98.4376 35.1399C97.2421 35.1399 96.4459 36.5957 96.3318 39.0498H100.261Z" fill="black"/>
<path id="Vector_10" d="M112.643 45.5562C113.382 45.5562 114.238 45.0416 115.005 44.3864V37.8223C114.92 36.8812 114.52 36.4523 113.582 36.3951L113.496 35.6827C115.687 35.1109 117.71 34.1698 118.877 33.6289L119.419 34.115C119.276 34.9417 119.219 37.0837 119.219 38.4537H119.191V43.1045C119.219 44.789 120.015 45.0725 120.871 45.1011L121.042 45.8421C119.647 46.414 117.541 47.4694 116.374 48.1247L115.664 47.8387C115.493 47.2955 115.35 46.5831 115.264 45.8421C114.097 46.9548 112.531 48.1247 111.022 48.1247C108.431 48.1247 106.837 46.5545 106.837 43.9289V38.4489C106.837 37.0503 106.523 36.4785 105.384 36.3951L105.299 35.6827C107.49 35.1109 109.513 34.1698 110.68 33.6289L111.222 34.115C111.079 34.9417 111.022 37.0837 111.022 38.4537V43.0473C111.022 44.5889 111.393 45.5586 112.645 45.5586L112.643 45.5562Z" fill="black"/>
<path id="Vector_11" d="M142.58 45.013L142.751 45.754C141.356 46.3258 139.25 47.3813 138.083 48.0365L137.372 47.7506C137.258 47.3218 137.116 46.7809 137.03 46.1805C135.549 47.4647 134.154 48.1199 132.759 48.1199C130.226 48.1199 127.606 45.6373 127.606 41.613C127.606 36.7907 131.335 33.6218 135.065 33.6218C135.578 33.6218 136.146 33.679 136.716 33.7933V30.6817C136.631 29.7405 136.232 29.3117 135.293 29.2545L135.207 28.5421C137.398 27.9703 139.421 27.0291 140.588 26.4883L141.13 26.9743C140.987 27.8011 140.93 29.9431 140.93 31.3131H140.902V43.014C140.93 44.6985 141.726 44.982 142.582 45.0106L142.58 45.013ZM134.722 45.754C135.404 45.754 136.032 45.3537 136.714 44.6699V36.5071C135.889 35.6804 134.977 35.1085 134.095 35.1085C132.557 35.1085 131.618 37.4768 131.618 40.1597C131.618 43.0712 132.928 45.754 134.722 45.754Z" fill="black"/>
<path id="Vector_12" d="M142.894 41.3895C142.894 37.3367 146.026 33.627 149.898 33.627C153.769 33.627 155.05 37.3938 155.05 40.334H146.936C147.136 43.7292 148.985 45.5281 151.093 45.5281C152.175 45.5281 153.056 45.0706 153.998 44.3296L154.625 44.9848C153.401 46.6693 151.492 48.0965 149.13 48.0965C145.857 48.0965 142.896 45.3565 142.896 41.3895H142.894ZM150.865 39.0498C150.865 37.4224 150.38 35.1399 149.042 35.1399C147.847 35.1399 147.05 36.5957 146.936 39.0498H150.865Z" fill="black"/>
<path id="Vector_13" d="M161.688 37.7644C161.688 31.8007 166.584 27.3477 172.251 27.3477C174.642 27.3477 177.517 27.9481 179.255 28.7748L179.426 33.7974L178.772 34.0261C176.21 30.8572 173.99 28.9464 171.571 28.9464C168.666 28.9464 166.986 32.5989 166.986 36.6231C166.986 41.5599 170.033 46.499 173.762 46.499C175.811 46.499 177.776 44.2737 179.571 41.2764L180.224 41.3907L180.082 46.3846C178.344 47.2114 175.157 48.1263 172.766 48.1263C166.789 48.1263 161.691 43.7304 161.691 37.7668L161.688 37.7644Z" fill="black"/>
<path id="Vector_14" d="M189.645 46.7551C188.65 47.4961 187.397 48.1251 185.831 48.1251C183.868 48.1251 182.216 46.898 182.216 45.0706C182.216 42.9596 184.436 41.9017 186.601 41.3037L189.505 40.5055V38.7638C189.505 36.5957 189.391 35.2543 187.825 35.2543C186.8 35.2543 186.087 36.0239 186.087 37.0245C186.087 37.625 186.487 38.3088 186.912 38.7662L183.354 39.7645C182.587 39.2499 182.244 38.5089 182.244 37.8513C182.244 35.7975 186.344 33.627 189.56 33.627C191.951 33.627 193.688 35.1399 193.688 37.4796V45.0706C193.688 45.6424 193.973 45.8402 194.313 45.8402C194.653 45.8402 195.052 45.6686 195.395 45.4399L195.822 46.1523C194.77 47.122 193.403 48.1203 191.865 48.1203C190.869 48.1203 189.957 47.6629 189.645 46.7503V46.7551ZM188.222 45.9855C188.678 45.9855 189.103 45.7854 189.503 45.4995V41.9327L188.904 42.1043C187.509 42.5331 186.598 43.1883 186.598 44.3582C186.598 45.2707 187.252 45.9855 188.222 45.9855Z" fill="black"/>
<path id="Vector_15" d="M198.499 44.6437V38.194C198.356 36.9098 197.617 36.681 196.847 36.6524L196.676 35.9114C198.071 35.3396 200.177 34.2841 201.344 33.6289L202.054 33.9148C202.225 34.57 202.397 35.4278 202.511 36.2831C203.678 35.0847 205.472 33.6289 207.121 33.6289C209.17 33.6289 210.594 34.6272 211.107 36.3403C212.274 35.1133 214.069 33.6289 215.746 33.6289C218.337 33.6289 219.932 35.199 219.932 37.8247V44.6461C220.046 46.2448 220.528 46.757 221.298 46.9572V47.7268H214.18V46.9572C215.148 46.7285 215.718 46.0732 215.718 43.8169H215.746V38.7086C215.746 37.1671 215.376 36.1974 214.123 36.1974C213.241 36.1974 212.158 36.9383 211.304 37.7961V43.8169C211.304 46.0709 211.818 46.7285 212.7 46.9572V47.7268H205.581V46.9572C206.549 46.7285 207.119 46.0732 207.119 43.8169V38.7086C207.119 37.1671 206.748 36.1974 205.496 36.1974C204.614 36.1974 203.533 36.9383 202.677 37.7961V43.8169H202.705C202.705 46.0709 203.276 46.7285 204.243 46.9572V47.7268H197.125V46.9572C197.893 46.757 198.378 46.2448 198.492 44.6461L198.499 44.6437Z" fill="black"/>
<path id="Vector_16" d="M224.262 51.2077V38.194C224.12 36.9098 223.381 36.681 222.611 36.6524L222.439 35.9114C223.835 35.3396 225.94 34.2841 227.107 33.6289L227.818 33.9148C227.932 34.3437 228.075 34.9131 228.16 35.485C229.612 34.2579 230.979 33.6289 232.346 33.6289C234.879 33.6289 237.498 36.1116 237.498 40.1358C237.498 44.9582 233.769 48.127 230.04 48.127C229.555 48.127 228.987 48.0699 228.445 47.9841V51.2101C228.445 53.009 228.959 53.7786 231.15 54.0931V54.8627H222.922V54.0931C223.918 53.8929 224.26 52.866 224.26 51.2101L224.262 51.2077ZM231.01 46.6403C232.548 46.6403 233.486 44.272 233.486 41.5892C233.486 38.6776 232.177 35.9948 230.382 35.9948C229.729 35.9948 229.101 36.3665 228.448 37.0217V45.2989C229.272 46.0971 230.128 46.6403 231.01 46.6403Z" fill="black"/>
</g>
<g id="Group_3">
<path id="Vector_17" d="M79.4251 17.0388V10.9441C79.4251 9.67895 79.2635 9.3978 78.5742 9.23578V8.83789H82.7287V9.23578C82.0965 9.3978 81.7305 9.67657 81.7305 10.9441V17.2151C81.7305 17.8918 81.98 18.3635 82.9188 18.3635C84.535 18.3635 85.576 17.4653 86.1202 15.7141L86.5029 15.7736L86.1511 19.145H78.5742V18.7471C79.2635 18.5851 79.4251 18.3064 79.4251 17.0388Z" fill="black"/>
<path id="Vector_18" d="M87.0166 15.8758C87.0166 13.7863 88.6328 11.873 90.6292 11.873C92.6256 11.873 93.2863 13.8172 93.2863 15.3326H89.101C89.2032 17.0838 90.1586 18.013 91.2448 18.013C91.8033 18.013 92.2572 17.7771 92.7421 17.3935L93.0653 17.7319C92.4331 18.6015 91.4492 19.3354 90.2323 19.3354C88.5448 19.3354 87.0166 17.9225 87.0166 15.8758ZM91.1283 14.6678C91.1283 13.8292 90.8787 12.6522 90.1895 12.6522C89.5739 12.6522 89.1628 13.4027 89.1033 14.6678H91.1307H91.1283Z" fill="black"/>
<path id="Vector_19" d="M98.6165 17.0674V10.9441C98.6165 9.67895 98.4549 9.3978 97.7656 9.23578V8.83789H101.319C104.475 8.83789 106.151 10.1483 106.151 11.9734C106.151 14.1225 103.817 15.2256 101.849 15.2256L101.82 14.8135C103.23 14.5037 103.788 13.372 103.788 12.1497C103.788 10.8393 103.156 9.617 101.262 9.617H100.924V17.065C100.924 18.3302 101.526 18.6113 102.628 18.7424V19.1403H97.768V18.7424C98.4572 18.5804 98.6189 18.3302 98.6189 17.065L98.6165 17.0674Z" fill="black"/>
<path id="Vector_20" d="M107.53 17.2586V14.2255C107.456 13.5632 107.073 13.4464 106.679 13.4297L106.591 13.0461C107.311 12.7507 108.397 12.2075 108.998 11.8691L109.364 12.0169C109.481 12.4433 109.6 13.0628 109.643 13.637C110.127 12.8269 110.876 11.9597 111.537 11.9597C112.197 11.9597 112.682 12.5053 112.844 12.8127L112.11 14.49C111.815 14.1946 111.463 13.8562 110.905 13.8562C110.508 13.8562 110.082 13.9897 109.685 14.4447V17.2562C109.685 18.183 109.949 18.5809 111.08 18.7429V19.1408H106.836V18.7429C107.349 18.6405 107.525 18.1092 107.525 17.2562L107.53 17.2586Z" fill="black"/>
<path id="Vector_21" d="M112.92 15.6256C112.92 13.7124 114.389 11.873 116.575 11.873C118.603 11.873 120.276 13.5218 120.276 15.5542C120.276 17.5865 118.793 19.352 116.649 19.352C114.505 19.352 112.92 17.6437 112.92 15.628V15.6256ZM117.046 18.5539C117.823 18.5539 118.163 17.4936 118.163 16.2427C118.163 14.3724 117.179 12.6665 116.181 12.6665C115.373 12.6665 115.035 13.5647 115.035 14.8013C115.035 16.7884 115.974 18.5539 117.046 18.5539Z" fill="black"/>
<path id="Vector_22" d="M121.597 18.6872V14.0364C121.552 13.5503 121.347 13.3287 120.862 13.3001L120.817 12.9332C121.949 12.6378 122.99 12.1541 123.593 11.873L123.871 12.1231C123.798 12.5496 123.769 13.6552 123.769 14.3604H123.755V18.5252C123.755 19.9667 121.713 21.7774 120.553 22.7805L120.275 22.4708C121.214 21.3081 121.597 20.1001 121.597 18.6872ZM122.83 8.30859C123.432 8.30859 123.931 8.82324 123.931 9.44271C123.931 10.1646 123.344 10.7674 122.697 10.7674C122.139 10.7674 121.597 10.2957 121.597 9.61903C121.597 8.83991 122.155 8.30859 122.83 8.30859Z" fill="black"/>
<path id="Vector_23" d="M125.048 15.8758C125.048 13.7863 126.664 11.873 128.66 11.873C130.657 11.873 131.318 13.8172 131.318 15.3326H127.132C127.234 17.0838 128.19 18.013 129.276 18.013C129.835 18.013 130.288 17.7771 130.773 17.3935L131.097 17.7319C130.464 18.6015 129.48 19.3354 128.264 19.3354C126.574 19.3354 125.048 17.9225 125.048 15.8758ZM129.16 14.6678C129.16 13.8292 128.91 12.6522 128.221 12.6522C127.605 12.6522 127.192 13.4027 127.135 14.6678H129.162H129.16Z" fill="black"/>
<path id="Vector_24" d="M132.552 17.4792V12.9594H131.789L131.687 12.4876L134.108 10.2051H134.724V12.0754H136.383L136.485 12.3542L136.133 12.957H134.71V17.2266C134.71 17.8151 134.857 18.2273 135.311 18.2273C135.634 18.2273 135.957 18.0939 136.236 17.9628L136.457 18.3298C135.943 18.8158 135.149 19.3447 134.372 19.3447C133.462 19.3447 132.552 18.8444 132.552 17.4744V17.4792Z" fill="black"/>
</g>
<g id="Group_4">
<path id="Vector_25" d="M67.2314 10.4217C67.1815 9.93564 67.2361 9.58063 67.595 9.30663C67.7234 9.20894 67.8469 9.06122 67.9135 8.8992C68.068 8.53228 68.3056 8.47033 68.617 8.48939C68.9949 8.51084 69.2112 8.63473 69.3657 9.12078C69.7079 10.1882 70.0288 11.2199 69.6366 12.3707C69.5701 12.566 69.6295 12.8186 69.6081 13.0425C69.4108 15.0606 69.5891 17.0691 69.7245 19.0777C69.7554 19.5304 69.7127 19.9902 69.5962 20.4143C69.4536 20.9361 69.4156 46.7016 69.494 47.2138C69.5891 47.8428 69.4583 48.4028 69.2706 48.9674C69.2064 49.1604 69.1304 49.3487 69.09 49.5488C68.8951 50.4947 68.0751 50.7877 67.4714 50.1063C66.8392 49.3939 66.68 48.4623 66.7156 47.4855C66.7394 46.8159 66.9272 20.9099 66.9628 20.238C67.0008 19.5089 66.9557 18.7751 66.9818 18.0436C67.0199 16.9214 66.9985 15.7992 66.989 14.677C66.989 14.677 66.9628 11.096 67.2314 10.4193V10.4217Z" fill="black"/>
</g>
</g>
<defs>
<clipPath id="clip0_910_16865">
<rect width="237" height="55" fill="white" transform="translate(0.5)"/>
</clipPath>
</defs>
</svg>
