<svg width="20" height="20" viewBox="0 0 20 20" fill="none" xmlns="http://www.w3.org/2000/svg">
<path d="M7 0H2C0.9 0 0 0.9 0 2V7C0 8.1 0.9 9 2 9H7C8.1 9 9 8.1 9 7V2C9 0.9 8.1 0 7 0ZM7 11H2C0.9 11 0 11.9 0 13V18C0 19.1 0.9 20 2 20H7C8.1 20 9 19.1 9 18V13C9 11.9 8.1 11 7 11ZM18 11H13C11.9 11 11 11.9 11 13V18C11 19.1 11.9 20 13 20H18C19.1 20 20 19.1 20 18V13C20 11.9 19.1 11 18 11Z" fill="#FEFDF9"/>
<path d="M15.5 9C17.9853 9 20 6.98528 20 4.5C20 2.01472 17.9853 0 15.5 0C13.0147 0 11 2.01472 11 4.5C11 6.98528 13.0147 9 15.5 9Z" fill="#FEFDF9"/>
</svg>
