<svg width="35" height="44" viewBox="0 0 35 44" fill="none" xmlns="http://www.w3.org/2000/svg">
<path d="M4.22785 9.2491H3.89395C3.70075 9.2491 3.54395 9.4068 3.54395 9.6011C3.54395 9.79541 3.70075 9.9531 3.89395 9.9531H28.0978C28.2287 9.9531 28.3484 9.87989 28.4086 9.76267C30.1523 6.37362 28.4604 3.78994 28.3876 3.68187C28.3225 3.58507 28.214 3.52734 28.0978 3.52734H3.89395C3.70075 3.52734 3.54395 3.68504 3.54395 3.87934C3.54395 4.07365 3.70075 4.23134 3.89395 4.23134H4.24885C4.42385 4.77694 4.9345 6.74462 4.22785 9.2491ZM27.8997 4.23134C28.2053 4.78645 29.0789 6.74322 27.8812 9.2491H4.9527C5.57115 6.89387 5.20855 5.02827 4.98175 4.23134H27.8997Z" fill="#EFEFEF"/>
<path d="M30.7861 25.4162C30.721 25.3194 30.6125 25.2617 30.4963 25.2617H6.29238C6.09918 25.2617 5.94238 25.4194 5.94238 25.6137C5.94238 25.808 6.09918 25.9657 6.29238 25.9657H6.64763C6.82263 26.5113 7.33328 28.4794 6.62663 30.9835H6.29238C6.09918 30.9835 5.94238 31.1412 5.94238 31.3355C5.94238 31.5298 6.09918 31.6875 6.29238 31.6875H30.4963C30.6272 31.6875 30.7469 31.6143 30.8071 31.497C32.5508 28.108 30.8589 25.5247 30.7861 25.4162ZM30.2796 30.9835H7.35113C7.96958 28.6286 7.60698 26.7626 7.38018 25.9657H30.2978C30.6034 26.5205 31.4773 28.4772 30.2796 30.9835Z" fill="#EFEFEF"/>
<path d="M30.7864 11.0705C30.7213 10.9737 30.6128 10.916 30.4966 10.916H6.29269C6.09949 10.916 5.94269 11.0737 5.94269 11.268C5.94269 11.4623 6.09949 11.62 6.29269 11.62H6.64794C6.82294 12.166 7.33324 14.1336 6.62694 16.6378H6.29269C6.09949 16.6378 5.94269 16.7955 5.94269 16.9898C5.94269 17.1841 6.09949 17.3418 6.29269 17.3418H20.2713V18.0891H3.93789C3.74469 18.0891 3.58789 18.2468 3.58789 18.4411C3.58789 18.6354 3.74469 18.7931 3.93789 18.7931H4.29314C4.46814 19.339 4.97844 21.3067 4.27214 23.8108H3.93789C3.74469 23.8108 3.58789 23.9685 3.58789 24.1628C3.58789 24.3571 3.74469 24.5148 3.93789 24.5148H28.1418C28.2727 24.5148 28.3924 24.4416 28.4526 24.3244C30.1963 20.9353 28.5044 18.3517 28.4316 18.2436C28.3665 18.1468 28.258 18.0891 28.1418 18.0891H25.6963V17.3418H30.4966C30.6275 17.3418 30.7472 17.2686 30.8074 17.1513C32.5511 13.7623 30.8592 11.179 30.7864 11.0705ZM20.9713 11.62H24.9963V21.3271L23.1623 20.2342C23.0524 20.1683 22.9156 20.1683 22.8053 20.2342L20.9713 21.3271V11.62ZM7.35179 16.6378C7.97024 14.2829 7.60799 12.4173 7.38084 11.62H20.2713V16.6378H7.35179ZM27.9437 18.7927C28.2492 19.3478 29.1228 21.3046 27.9251 23.8105H4.99664C5.61509 21.4556 5.25284 19.5896 5.02569 18.7927H20.271V21.9449C20.271 22.0712 20.3385 22.1881 20.4477 22.2508C20.5569 22.3134 20.691 22.312 20.7995 22.248L22.9835 20.9463L25.1675 22.248C25.2224 22.2807 25.284 22.2972 25.346 22.2972C25.4058 22.2972 25.4653 22.2821 25.5192 22.2511C25.6284 22.1885 25.696 22.072 25.696 21.9452V18.7927H27.9437ZM30.2799 16.6378H25.6963V11.62H30.2985C30.6037 12.1748 31.4776 14.1315 30.2799 16.6378Z" fill="#EFEFEF"/>
</svg>
