<svg width="21" height="30" viewBox="0 0 21 30" fill="none" xmlns="http://www.w3.org/2000/svg">
<path id="Vector" d="M10.5 0.455078C4.71027 0.455078 0 5.16658 0 10.9578C0 18.1448 9.39644 28.6958 9.79654 29.1414C10.1723 29.56 10.8284 29.5593 11.2035 29.1414C11.6035 28.6958 21 18.1448 21 10.9578C20.9999 5.16658 16.2897 0.455078 10.5 0.455078ZM10.5 16.242C7.58704 16.242 5.21725 13.8715 5.21725 10.9578C5.21725 8.04404 7.5871 5.67362 10.5 5.67362C13.4129 5.67362 15.7828 8.0441 15.7828 10.9578C15.7828 13.8715 13.4129 16.242 10.5 16.242Z" fill="#1C1C1C"/>
</svg>
