<svg width="30" height="28" viewBox="0 0 30 28" fill="none" xmlns="http://www.w3.org/2000/svg">
<g id="VmX0ZF">
<g id="Group">
<path id="Vector" d="M2.87719 26.8989C2.4402 26.9458 2.24919 26.6634 2.05681 26.3961C1.96336 26.2652 1.88778 26.1536 1.6954 26.1716C1.52088 26.1881 1.37796 26.0779 1.37384 25.9084C1.36834 25.6825 1.08801 25.5365 1.20207 25.3023C1.35185 24.9923 1.57997 24.7499 1.88091 24.5653C2.68756 24.0707 3.40076 23.4591 4.05624 22.7772C4.62515 22.1862 5.21879 21.6186 5.78083 21.0235C6.40059 20.3664 7.03821 19.7217 7.63048 19.0384C7.95204 18.6664 8.27497 18.2904 8.63088 17.9542C9.41554 17.2117 10.0477 16.3273 10.8763 15.622C11.2075 15.3409 11.5125 14.9635 11.8684 14.7692C12.3769 14.491 12.7424 14.0612 13.1822 13.725C13.9998 13.101 14.8944 12.5375 15.5306 11.6958C15.7368 11.4231 16.0198 11.3446 16.3414 11.3418C16.4431 11.3418 16.5365 11.3514 16.6149 11.4286C16.7468 11.5595 16.8746 12.4094 16.7427 12.5196C16.2466 12.9315 16.0295 13.5611 15.5526 13.9909C15.1156 14.3849 14.7322 14.8395 14.3241 15.2666C14.1716 15.425 14.0177 15.5903 13.8074 15.6661C13.5834 15.746 13.4982 15.9677 13.3498 16.1151C13.0873 16.3769 12.8537 16.6634 12.5377 16.8659C12.4456 16.9252 12.4209 17.034 12.4456 17.1318C12.5184 17.4225 12.3714 17.6112 12.1763 17.7889C11.4383 18.4584 10.7224 19.161 10.0573 19.8953C9.22453 20.8141 8.29421 21.6255 7.41611 22.4893C6.73726 23.156 6.06117 23.8241 5.39881 24.5074C5.04702 24.8697 4.76532 25.2899 4.45063 25.6839C4.10708 26.1151 3.80202 26.6 3.2496 26.8149C3.11493 26.8672 2.98575 26.9279 2.87719 26.9003V26.8989Z" fill="white"/>
<path id="Vector_2" d="M8.38759 26.9382C7.89701 26.9162 7.61118 26.7302 7.41742 26.412C7.22641 26.0979 7.42979 25.8527 7.62217 25.6502C8.51264 24.7107 9.36326 23.7381 10.1919 22.7407C10.7787 22.034 11.4905 21.4499 12.2339 20.8975C13.0186 20.3134 13.7222 19.6205 14.4793 18.9992C14.952 18.6107 15.4151 18.2139 15.8315 17.7662C15.9511 17.6381 16.1118 17.4866 15.9057 17.2882C15.7958 17.1821 15.8796 17.0926 15.9676 17.054C16.1572 16.9714 16.3166 16.7936 16.5736 16.9052C16.7426 16.9796 16.8938 16.8529 16.9845 16.7082C17.181 16.3941 17.4764 16.1806 17.7444 15.9395C17.9216 15.7811 18.6774 15.7536 18.8685 15.8817C19.1557 16.0745 19.2079 16.5429 18.9537 16.8102C18.4521 17.3364 17.9189 17.8351 17.4379 18.3779C17.0422 18.8256 16.5571 19.1865 16.2465 19.7238C16.1064 19.9676 15.7463 20.0434 15.5264 20.2679C15.2228 20.5779 14.9108 20.881 14.4848 21.0504C14.1894 21.1675 14.0533 21.505 13.8074 21.7116C13.4308 22.0271 13.0804 22.3743 12.7286 22.7187C12.5898 22.8537 12.4868 22.9887 12.5459 23.2339C12.6049 23.4791 12.484 23.7229 12.2751 23.902C11.9673 24.1665 11.6238 24.3855 11.2967 24.6225C10.7677 25.0055 10.3472 25.511 9.80849 25.8775C9.73703 25.9257 9.69306 26.0194 9.59824 26.0263C9.20797 26.0579 9.03483 26.3707 8.8287 26.631C8.68304 26.8142 8.53188 26.9548 8.38896 26.9368L8.38759 26.9382Z" fill="white"/>
<path id="Vector_3" d="M23.2286 27.9808C22.7834 28.0153 22.5223 27.777 22.2172 27.664C21.9974 27.5827 21.8284 27.5318 21.7115 27.8059C21.6621 27.9202 21.5466 27.9671 21.4079 27.9505C21.0409 27.9065 20.707 27.8706 20.4102 27.5552C20.1189 27.2438 19.7039 27.0455 19.3315 26.814C19.1872 26.7245 19.0621 26.6225 18.9687 26.4889C18.3888 25.6637 17.6014 25.0769 16.7411 24.592C16.4168 24.4088 16.2245 24.1525 16.0815 23.8495C16.0018 23.68 15.896 23.567 15.7586 23.4541C15.4178 23.1744 15.1966 22.7515 15.6336 22.301C15.7723 22.1578 15.9098 22.1426 16.1022 22.1564C17.0641 22.2294 17.7718 22.8066 18.518 23.3232C19.0305 23.6773 19.572 23.9872 20.0873 24.3344C20.9008 24.8813 21.7679 25.3469 22.5182 25.9902C22.9057 26.3236 23.3454 26.595 23.7577 26.8981C23.9226 27.0193 24.1164 27.1212 24.049 27.3926C23.9776 27.6819 23.8525 27.9051 23.5241 27.9409C23.3935 27.9547 23.263 27.9753 23.2259 27.9808H23.2286Z" fill="white"/>
<path id="Vector_4" d="M27.4833 25.2323C27.3431 25.2406 27.2277 25.169 27.1122 25.1111C26.5268 24.819 25.9799 24.4691 25.4344 24.1027C24.3515 23.3753 23.5833 22.3105 22.5555 21.5349C22.0937 21.1863 21.6251 20.853 21.1057 20.5857C20.8391 20.4493 20.5945 20.3515 20.2977 20.3102C20.0764 20.2799 19.8167 20.1724 19.7439 19.9024C19.6614 19.598 19.8195 19.3721 20.038 19.1833C20.2606 18.9891 20.5299 18.8871 20.7113 18.5992C20.9312 18.2493 21.8065 18.3306 22.0965 18.6488C22.6407 19.2494 23.2673 19.7426 23.9269 20.2193C24.6373 20.7331 25.3093 21.3172 25.973 21.8986C26.5818 22.4331 27.2126 22.9386 27.8584 23.4249C28.1855 23.6715 28.2171 23.8051 28.0274 24.1619C27.9409 24.3259 27.9546 24.5036 27.9766 24.6772C28.0192 25.0105 27.8296 25.2296 27.486 25.2309L27.4833 25.2323Z" fill="white"/>
<path id="Vector_5" d="M0.330941 8.02546C0.104201 7.85051 -0.0167263 7.67831 0.0437376 7.38902C0.0657244 7.2857 0.0629761 7.16309 0.0286216 7.06391C-0.0497066 6.83798 0.0409892 6.69333 0.200394 6.54593C0.392779 6.36685 0.549435 6.31036 0.82702 6.43159C1.43853 6.69884 2.02393 6.96196 2.31251 7.62734C2.36198 7.7403 2.49665 7.81332 2.5791 7.91663C3.32253 8.84238 4.24598 9.57525 5.14881 10.3302C5.35219 10.501 5.52259 10.709 5.64352 10.9404C5.79193 11.2256 6.0118 11.4378 6.2619 11.61C6.56971 11.8207 6.74011 12.1142 6.8844 12.4393C6.93387 12.5495 6.9751 12.6652 7.03831 12.7671C7.33788 13.2507 7.06167 13.7783 6.48451 13.8003C5.88125 13.8224 5.4154 13.5207 5.02651 13.1033C4.75854 12.8167 4.55517 12.4723 4.2927 12.1803C4.00824 11.8621 3.67981 11.5852 3.38849 11.2738C2.94051 10.7944 2.46229 10.3467 1.98957 9.8921C1.98957 9.8921 0.484849 8.44012 0.335063 8.02822L0.330941 8.02546Z" fill="white"/>
<path id="Vector_6" d="M29.994 11.345C29.9431 12.0338 29.4773 12.4471 28.9785 12.8287C28.5923 13.1235 28.1636 13.3453 27.8173 13.7117C27.4861 14.0616 27.045 14.2985 26.6932 14.6498C26.3291 15.0149 25.4468 14.9791 25.0414 14.6526C24.9906 14.6113 24.9398 14.5658 24.9027 14.5134C24.6993 14.2283 24.8298 13.3907 25.1088 13.1662C25.7382 12.6592 26.3029 12.0737 26.9914 11.6398C27.1865 11.5172 27.2951 11.305 27.4847 11.1645C27.9341 10.8298 28.4508 10.8008 28.9702 10.7554C29.0252 10.7512 29.0994 10.7678 29.1159 10.7168C29.1791 10.5184 29.2987 10.4606 29.4924 10.5253C29.7095 10.5983 29.8868 10.7058 29.9486 10.9524C29.9816 11.0819 30.0146 11.2072 29.994 11.3464V11.345Z" fill="white"/>
<path id="Vector_7" d="M15.9442 6.01258C15.2887 6.04013 15.0152 5.76186 15.0235 5.15158C15.0344 4.33192 15.0949 3.50399 15.0138 2.69258C14.9575 2.12915 15.0454 1.59465 15.1361 1.06703C15.2227 0.564208 15.6212 0.207412 16.1049 0.0324581C16.6079 -0.149384 17.2716 0.467777 17.1479 1.0133C16.9665 1.81782 17.0064 2.6182 17.0243 3.43373C17.0407 4.15559 17.0119 4.89397 16.8195 5.60757C16.7769 5.76599 16.6629 5.84313 16.5351 5.90513C16.333 6.00431 16.1132 6.01671 15.9442 6.01258Z" fill="white"/>
</g>
</g>
</svg>
