<svg width="42" height="34" viewBox="0 0 42 34" fill="none" xmlns="http://www.w3.org/2000/svg">
<g id="Layer_1" clip-path="url(#clip0_934_14388)">
<path id="Vector" d="M35.6515 26.1986L26.4331 0.407534C26.3755 0.174658 26.145 0 25.857 0C25.6265 0 25.396 0.174658 25.3384 0.407534C25.3384 0.465753 22.9186 8.03425 12.9512 11.7021H12.8936L1.88907 15.7192C1.14007 16.0103 0.563923 16.5342 0.275847 17.2329C-0.0698437 17.9315 -0.0698437 18.7466 0.160617 19.4452L3.32945 28.411C3.73276 29.5753 4.88506 30.3322 6.03736 30.3322C6.38305 30.3322 6.67113 30.274 7.01682 30.1575L8.57243 29.5753L10.0704 33.6507C10.1857 33.8836 10.3585 34 10.589 34C10.6466 34 10.7042 34 10.8194 33.9418L18.1365 31.2055C18.3094 31.1473 18.4246 31.0308 18.4822 30.9144C18.5398 30.7979 18.5398 30.6233 18.4822 30.4486L16.9842 26.4315L17.9637 26.0822H18.1365C28.104 22.4144 34.7297 26.7226 34.7873 26.7808C34.9025 26.839 35.0178 26.8973 35.0754 26.8973C35.1906 26.8973 35.3059 26.839 35.4211 26.7808C35.652 26.6644 35.7096 26.4315 35.652 26.1986H35.6515ZM17.2147 30.4486L10.9923 32.7774L9.66712 29.226L15.89 26.9555L17.2147 30.4486ZM16.0048 25.6747L8.74527 28.3527H8.68766L6.61351 29.1096C5.69167 29.4589 4.71221 28.9349 4.42414 28.0616L1.2553 19.0959C1.08246 18.6301 1.14007 18.1644 1.31292 17.7568C1.48577 17.3493 1.88907 17 2.29238 16.8836L12.7783 13.0411C12.8936 13.274 13.0088 13.5651 13.124 13.9144C13.1816 14.1473 13.2969 14.3801 13.4121 14.6712L16.5809 23.637C16.6385 23.8116 16.6962 23.9863 16.7538 24.161C16.9266 24.6267 17.0419 25.0342 17.0995 25.3253L16.0048 25.6747ZM26.0874 23.5205C23.8404 23.5205 21.1901 23.8699 18.2518 24.8596L17.7908 23.5205C17.7332 23.4041 17.7332 23.3459 17.6756 23.2295L14.5068 14.2637C14.4492 14.1473 14.3916 14.0308 14.3916 13.9144C14.3339 13.6815 14.2187 13.5069 14.1611 13.274L13.9306 12.6336C21.4782 9.7226 24.7047 4.71575 25.9146 2.21233L34.0959 25.1507C32.5403 24.4521 29.7748 23.5205 26.0874 23.5205Z" fill="#EFEFEF"/>
<path id="Vector_2" d="M34.1535 12.9822C33.9807 12.9822 33.7502 12.8657 33.6926 12.6911C33.5774 12.4582 33.6926 12.1089 33.9807 11.9924L38.7627 9.95478C38.9932 9.83834 39.3389 9.95478 39.4541 10.2459C39.5693 10.4787 39.4541 10.8281 39.166 10.9445L34.384 12.9822H34.1535Z" fill="#EFEFEF"/>
<path id="Vector_3" d="M31.8495 7.51051C31.6767 7.51051 31.5614 7.45229 31.4462 7.33585C31.2734 7.10297 31.331 6.81188 31.5614 6.63722L35.825 3.37694C36.0554 3.20229 36.3435 3.26051 36.5163 3.49338C36.6892 3.72626 36.6316 4.01736 36.4011 4.19201L32.1376 7.45229C32.08 7.51051 31.9647 7.51051 31.8495 7.51051Z" fill="#EFEFEF"/>
<path id="Vector_4" d="M36.2278 17.8154C35.9974 17.8154 35.7669 17.6408 35.7093 17.4079C35.6517 17.1168 35.8245 16.8839 36.1126 16.8257L41.4132 15.9524C41.7013 15.8942 41.9317 16.1271 41.9893 16.3599C42.0469 16.651 41.8741 16.8839 41.586 16.9421L36.2854 17.8154H36.2278Z" fill="#EFEFEF"/>
</g>
<defs>
<clipPath id="clip0_934_14388">
<rect width="42" height="34" fill="white"/>
</clipPath>
</defs>
</svg>
