<svg width="27" height="28" viewBox="0 0 27 28" fill="none" xmlns="http://www.w3.org/2000/svg">
<path id="Vector" d="M20.998 28C18.5177 27.9977 16.0759 27.362 13.8887 26.1491L13.2138 25.7602C8.55032 23.16 4.72709 19.1952 2.21979 14.3591L1.84483 13.6592C0.64467 11.378 0.0106949 8.82292 9.32546e-07 6.22431V5.18219C-0.000629008 4.3531 0.317911 3.55804 0.884917 2.97352L3.41968 0.344883C3.66585 0.0876195 4.01334 -0.0363772 4.36003 0.00932052C4.70672 0.0550183 5.01325 0.265247 5.18951 0.578194L8.56419 6.58205C8.90545 7.19316 8.80691 7.96599 8.32421 8.46409L5.48948 11.4038C5.25406 11.6452 5.19921 12.0182 5.3545 12.3215L5.87945 13.3481C7.76483 16.9697 10.6329 19.9387 14.1287 21.8873L15.1186 22.4472C15.411 22.6082 15.7707 22.5513 16.0035 22.3072L18.8382 19.3675C19.3185 18.867 20.0638 18.7648 20.653 19.1186L26.4425 22.6183C26.7443 22.8011 26.9471 23.119 26.991 23.4784C27.0351 23.838 26.9156 24.1984 26.6675 24.4537L24.1327 27.0823C23.5691 27.6703 22.8023 28.0006 22.0029 28H20.998Z" fill="#1C1C1C"/>
</svg>
