<svg width="253" height="46" viewBox="0 0 253 46" fill="none" xmlns="http://www.w3.org/2000/svg">
<g id="logo_cultureghem_new-01 1" clip-path="url(#clip0_910_29276)">
<path id="Vector" d="M55.3002 6.79772C54.7002 5.09772 54.0002 3.39772 53.4002 1.79772C52.8002 0.297723 52.5002 0.097723 51.0002 0.697723C47.2002 1.99772 43.4002 3.39772 39.7002 4.79772C38.9002 5.09772 38.3002 5.09772 37.4002 4.79772C27.8002 0.797723 18.5002 1.89772 9.30018 6.19772C8.20018 6.69772 7.90018 7.39772 8.20018 8.49772C8.60018 9.89772 8.80018 11.2977 9.20018 12.6977C9.40018 13.4977 9.20018 13.6977 8.40018 13.5977C6.00018 13.5977 3.60018 13.5977 1.20018 13.5977C0.100176 13.5977 -0.199824 13.9977 0.000176039 14.9977C1.10018 19.1977 2.10018 23.3977 3.20018 27.5977C3.40018 28.5977 4.00018 28.7977 4.90018 28.4977C6.30018 28.0977 7.70018 27.6977 9.20018 27.2977C10.1002 27.0977 10.4002 26.5977 10.1002 25.5977C9.70018 24.2977 9.40018 22.8977 9.10018 21.4977C9.00018 21.1977 8.80018 20.8977 9.10018 20.5977C9.70018 20.1977 11.0002 20.6977 11.2002 21.4977C12.3002 26.1977 13.4002 30.9977 14.5002 35.6977C14.7002 36.5977 15.1002 36.9977 16.0002 36.8977C19.0002 36.8977 22.1002 36.8977 25.1002 36.8977C28.1002 36.8977 31.1002 36.8977 34.1002 36.8977C35.1002 36.8977 35.7002 36.5977 35.9002 35.4977C37.4002 28.5977 39.1002 21.6977 40.6002 14.7977C40.8002 14.0977 41.1002 13.6977 41.8002 13.4977C45.9002 12.0977 50.0002 10.5977 54.1002 9.09772C55.6002 8.69772 55.8002 8.29772 55.3002 6.79772ZM31.5002 14.9977C30.8002 18.5977 30.1002 22.0977 29.4002 25.6977C29.3002 26.4977 29.0002 26.9977 28.0002 26.8977C27.1002 26.7977 26.2002 26.8977 25.4002 26.8977C24.4002 26.8977 23.4002 26.7977 22.4002 26.8977C21.6002 26.9977 21.4002 26.5977 21.3002 25.9977C20.6002 22.2977 19.9002 18.5977 19.2002 14.9977C19.1002 14.3977 19.3002 14.1977 19.8002 14.0977C21.4002 13.5977 23.0002 12.9977 24.7002 12.3977C25.1002 12.1977 25.6002 12.2977 26.0002 12.3977C27.7002 12.9977 29.3002 13.5977 31.0002 14.0977C31.5002 14.0977 31.6002 14.3977 31.5002 14.9977Z" fill="#646464"/>
<g id="Group">
<path id="Vector_2" d="M190.1 18.3984C191.2 25.3984 192.4 32.3984 193.4 38.6984C194.4 32.4984 195.5 25.4984 196.7 18.3984C198.5 18.3984 200.3 18.3984 202.1 18.3984C202.1 27.3984 202.1 36.2984 202.1 45.2984C201 45.2984 200 45.2984 198.9 45.2984C198.9 37.8984 198.9 30.5984 198.9 23.2984H198.8C198.2 26.8984 197.6 30.3984 197.1 33.9984C196.5 37.4984 196 41.0984 195.4 44.5984C195.3 44.8984 194.9 45.2984 194.5 45.3984C193.6 45.4984 192.7 45.3984 191.7 45.3984C190.5 38.1984 189.4 30.9984 188.2 23.7984C188.1 23.7984 188.1 23.7984 188 23.7984C188 30.8984 188 38.0984 188 45.2984C186.9 45.2984 185.8 45.2984 184.7 45.2984C184.7 36.2984 184.7 27.3984 184.7 18.3984C186.4 18.3984 188.2 18.3984 190.1 18.3984Z" fill="#FEFDF9"/>
<path id="Vector_3" d="M167.4 45.2969C166.3 45.2969 165.2 45.2969 163.9 45.2969C163.9 41.1969 163.9 37.0969 163.9 32.9969C162.3 32.9969 160.8 32.9969 159.2 32.9969C159.2 37.0969 159.2 41.0969 159.2 45.2969C158 45.2969 156.9 45.2969 155.7 45.2969C155.7 36.3969 155.7 27.3969 155.7 18.3969C156.8 18.3969 157.9 18.3969 159.1 18.3969C159.1 22.0969 159.1 25.7969 159.1 29.4969C160.7 29.4969 162.2 29.4969 163.8 29.4969C163.8 25.7969 163.8 22.0969 163.8 18.2969C165 18.2969 166.1 18.2969 167.3 18.2969C167.4 27.2969 167.4 36.1969 167.4 45.2969Z" fill="#FEFDF9"/>
<path id="Vector_4" d="M58.3999 18.3984C59.5999 18.3984 60.6999 18.3984 61.9999 18.3984C61.9999 18.8984 61.9999 19.2984 61.9999 19.7984C61.9999 26.2984 61.9999 32.8984 61.9999 39.3984C61.9999 41.3984 62.6999 42.3984 64.0999 42.4984C65.4999 42.4984 66.2999 41.4984 66.2999 39.3984C66.2999 32.8984 66.2999 26.3984 66.2999 19.8984C66.2999 19.3984 66.2999 18.9984 66.2999 18.3984C67.4999 18.3984 68.6999 18.3984 69.8999 18.3984C69.8999 18.7984 69.9999 19.1984 69.9999 19.5984C69.9999 26.0984 69.9999 32.5984 69.9999 39.0984C69.9999 39.3984 69.9999 39.6984 69.9999 40.0984C69.5999 44.3984 67.0999 46.2984 62.7999 45.5984C60.4999 45.1984 58.8999 43.4984 58.5999 41.1984C58.4999 40.5984 58.4999 39.8984 58.4999 39.2984C58.4999 32.7984 58.4999 26.2984 58.4999 19.7984C58.3999 19.2984 58.3999 18.7984 58.3999 18.3984Z" fill="#FEFDF9"/>
<path id="Vector_5" d="M104.6 18.3984C105.8 18.3984 106.9 18.3984 108.1 18.3984C108.1 18.6984 108.2 18.9984 108.2 19.2984C108.2 26.0984 108.2 32.9984 108.2 39.7984C108.2 42.8984 106.9 44.8984 104.4 45.4984C99.6002 46.5984 96.6002 44.0984 96.7002 39.7984C96.8002 33.0984 96.7002 26.4984 96.7002 19.7984C96.7002 19.3984 96.7002 18.8984 96.7002 18.3984C97.9002 18.3984 99.0002 18.3984 100.3 18.3984C100.3 18.8984 100.3 19.2984 100.3 19.7984C100.3 26.2984 100.3 32.6984 100.3 39.1984C100.3 39.8984 100.4 40.5984 100.6 41.1984C100.9 42.0984 101.6 42.4984 102.6 42.4984C103.5 42.4984 104.2 41.9984 104.5 41.0984C104.7 40.4984 104.7 39.7984 104.7 39.1984C104.7 32.7984 104.7 26.2984 104.7 19.8984C104.6 19.3984 104.6 18.8984 104.6 18.3984Z" fill="#FEFDF9"/>
<path id="Vector_6" d="M146 34.5976C146 33.5976 146 32.5976 146 31.4976C146.9 31.4976 147.8 31.4976 148.7 31.4976C149.6 31.4976 150.4 31.4976 151.4 31.4976C151.4 36.0976 151.4 40.5976 151.4 45.1976C150.3 45.4976 149.4 45.4976 149.3 44.2976C148.2 44.7976 147.2 45.3976 146.1 45.5976C143 46.0976 140.5 44.4976 140.4 41.2976C140.1 34.9976 140.1 28.7976 140.4 22.4976C140.5 19.2976 143 17.6976 146.4 17.8976C149.6 18.0976 151.4 19.8976 151.5 23.0976C151.6 24.2976 151.5 25.4976 151.5 26.6976C150.3 26.6976 149.2 26.6976 147.9 26.6976C147.9 25.5976 148 24.5976 147.9 23.5976C147.8 21.8976 147 21.0976 145.8 21.0976C144.6 21.1976 143.8 22.0976 143.8 23.7976C143.8 28.6976 143.8 33.4976 143.8 38.3976C143.8 38.9976 143.8 39.5976 143.8 40.1976C143.9 41.5976 144.6 42.2976 145.8 42.2976C147 42.2976 147.8 41.5976 147.9 40.1976C148 38.5976 148 36.8976 148 35.2976C148 35.0976 147.6 34.6976 147.3 34.5976C146.9 34.4976 146.5 34.5976 146 34.5976Z" fill="#FEFDF9"/>
<path id="Vector_7" d="M54.9 26.7975C53.5 26.7975 52.5 26.7975 51.3 26.7975C51.2 25.4975 51.2 24.1975 51.1 22.8975C51 21.8975 50.3 21.2975 49.2 21.1975C48.2 21.0975 47.4 21.8975 47.2 22.8975C47.1 23.3975 47.1 23.8975 47.1 24.2975C47.1 28.5975 47.1 32.8975 47.1 37.1975C47.1 38.2975 47.1 39.3975 47.2 40.4975C47.3 41.6975 48.1 42.3975 49.2 42.2975C50.3 42.2975 50.9 41.5975 51.1 40.4975C51.2 39.9975 51.2 39.4975 51.2 38.9975C51.2 38.2975 51.2 37.5975 51.2 36.7975C52.4 36.7975 53.5 36.7975 54.8 36.7975C54.9 38.8975 55.1 41.0975 54.1 43.0975C53.1 45.0975 50.6 45.9975 47.7 45.4975C45.5 45.0975 43.9 43.4975 43.6 41.1975C43.5 40.6975 43.5 40.1975 43.5 39.7975C43.5 34.4975 43.5 29.0975 43.5 23.7975C43.5 18.4975 47.4 17.3975 50.9 18.0975C52.9 18.4975 54.2 19.7975 54.6 21.7975C54.8 23.3975 54.8 24.9975 54.9 26.7975Z" fill="#FEFDF9"/>
<path id="Vector_8" d="M180.4 32.9969C178.9 32.9969 177.4 32.9969 175.8 32.9969C175.8 34.1969 175.8 35.1969 175.8 36.2969C175.8 37.8969 175.8 39.5969 175.8 41.1969C175.8 41.8969 176 42.0969 176.7 42.0969C178.1 42.0969 179.5 42.0969 181 42.0969C181 43.1969 181 44.1969 181 45.1969C178.1 45.1969 175.2 45.1969 172.3 45.1969C172.3 36.2969 172.3 27.2969 172.3 18.2969C175.2 18.2969 178.1 18.2969 181 18.2969C181 19.2969 181 20.2969 181 21.4969C179.3 21.4969 177.6 21.4969 175.9 21.4969C175.9 24.2969 175.9 26.8969 175.9 29.6969C177.5 29.6969 178.9 29.6969 180.4 29.6969C180.4 30.8969 180.4 31.8969 180.4 32.9969Z" fill="#FEFDF9"/>
<path id="Vector_9" d="M137.1 18.3984C137.1 19.4984 137.1 20.4984 137.1 21.5984C135.4 21.5984 133.7 21.5984 131.9 21.5984C131.9 24.3984 131.9 26.9984 131.9 29.7984C133.4 29.7984 134.9 29.7984 136.4 29.7984C136.4 30.8984 136.4 31.8984 136.4 33.0984C134.9 33.0984 133.4 33.0984 131.9 33.0984C131.9 36.1984 131.9 39.0984 131.9 42.1984C133.6 42.1984 135.3 42.1984 137 42.1984C137 43.2984 137 44.2984 137 45.3984C134.1 45.3984 131.2 45.3984 128.3 45.3984C128.3 36.3984 128.3 27.4984 128.3 18.4984C131.2 18.3984 134.1 18.3984 137.1 18.3984Z" fill="#FEFDF9"/>
<path id="Vector_10" d="M86.6999 21.5984C85.2999 21.5984 84.0999 21.5984 82.8999 21.5984C82.8999 20.4984 82.8999 19.4984 82.8999 18.3984C86.5999 18.3984 90.3999 18.3984 94.1999 18.3984C94.1999 19.3984 94.1999 20.3984 94.1999 21.5984C92.9999 21.5984 91.6999 21.5984 90.3999 21.5984C90.3999 29.5984 90.3999 37.3984 90.3999 45.2984C89.1999 45.2984 88.0999 45.2984 86.7999 45.2984C86.6999 37.3984 86.6999 29.4984 86.6999 21.5984Z" fill="#FEFDF9"/>
<path id="Vector_11" d="M77.7999 42.1984C79.6999 42.1984 81.3999 42.1984 83.0999 42.1984C83.0999 43.2984 83.0999 44.2984 83.0999 45.2984C80.1999 45.2984 77.3999 45.2984 74.3999 45.2984C74.3999 36.3984 74.3999 27.3984 74.3999 18.3984C75.4999 18.3984 76.5999 18.3984 77.7999 18.3984C77.7999 26.1984 77.7999 34.0984 77.7999 42.1984Z" fill="#FEFDF9"/>
<path id="Vector_12" d="M124 36.8973C124 34.8973 123.9 32.9973 122.3 31.9973C122.9 30.7973 123.7 29.6973 123.8 28.5973C124 26.6973 124 24.6973 123.8 22.6973C123.6 20.3973 122.2 18.6973 119.9 18.4973C117.5 18.1973 115.1 18.3973 112.6 18.3973C112.6 27.2973 112.6 36.2973 112.6 45.1973C113.8 45.1973 114.9 45.1973 116.2 45.1973C116.2 41.2973 116.2 37.3973 116.2 33.4973C116.7 33.4973 117.1 33.3973 117.5 33.3973C119.5 33.3973 120.1 33.8973 120.3 35.9973C120.4 37.0973 120.3 38.1973 120.4 39.1973C120.4 40.8973 120.4 42.5973 120.5 44.1973C120.5 44.5973 121 45.1973 121.3 45.1973C122.3 45.2973 123.3 45.1973 124.1 45.1973C124.1 42.3973 124 39.6973 124 36.8973ZM120.4 27.6973C120.3 29.8973 119.6 30.4973 117.4 30.3973C117.1 30.3973 116.8 30.3973 116.3 30.2973C116.3 27.2973 116.3 24.4973 116.3 21.4973C116.9 21.4973 117.5 21.4973 118.1 21.4973C119.5 21.5973 120.2 22.0973 120.3 23.4973C120.5 24.9973 120.5 26.3973 120.4 27.6973Z" fill="#FEFDF9"/>
</g>
<g id="Group_2">
<path id="Vector_13" d="M208 23.7984V20.4984C208 19.7984 208.2 19.2984 208.6 18.8984C209 18.4984 209.5 18.3984 210.1 18.3984C210.7 18.3984 211.2 18.5984 211.6 18.8984C212 19.1984 212.2 19.7984 212.2 20.4984V20.6984H210.9V20.4984C210.9 20.1984 210.8 19.8984 210.7 19.7984C210.6 19.5984 210.4 19.5984 210.1 19.5984C209.8 19.5984 209.6 19.6984 209.5 19.8984C209.4 20.0984 209.3 20.3984 209.3 20.7984V23.7984C209.3 24.4984 209.6 24.8984 210.1 24.8984C210.3 24.8984 210.5 24.7984 210.7 24.6984C210.8 24.4984 210.9 24.2984 210.9 23.9984V23.7984H212.2V23.9984C212.2 24.6984 212 25.1984 211.6 25.5984C211.2 25.9984 210.7 26.0984 210.1 26.0984C209.5 26.0984 209 25.8984 208.6 25.5984C208.2 24.9984 208 24.4984 208 23.7984Z" fill="#ACACAC"/>
<path id="Vector_14" d="M213.3 24.998C213.1 24.698 213 24.298 213 23.898V18.498H214.3V23.898C214.3 24.198 214.4 24.398 214.5 24.598C214.6 24.698 214.8 24.798 215 24.798C215.5 24.798 215.7 24.498 215.7 23.898V18.498H217V23.898C217 24.298 216.9 24.598 216.7 24.998C216.5 25.298 216.3 25.498 216 25.698C215.7 25.898 215.4 25.998 215 25.998C214.6 25.998 214.3 25.898 214 25.698C213.7 25.498 213.5 25.298 213.3 24.998Z" fill="#ACACAC"/>
<path id="Vector_15" d="M219.3 18.498V24.698H221.3V25.898H218V18.498H219.3Z" fill="#ACACAC"/>
<path id="Vector_16" d="M223.5 19.698V25.898H222.2V19.698H220.9V18.498H224.7V19.698H223.5Z" fill="#ACACAC"/>
<path id="Vector_17" d="M226.6 18.498V25.898H225.3V18.498H226.6Z" fill="#ACACAC"/>
<path id="Vector_18" d="M228.6 18.498L229.5 23.998L230.4 18.498H231.8L230.1 25.898H228.7L227 18.498H228.6Z" fill="#ACACAC"/>
<path id="Vector_19" d="M233.4 24.3984L233.1 25.7984H231.7L233.6 18.3984H234.9L236.8 25.7984H235.4L235.1 24.3984H233.4ZM234.3 20.2984L233.7 23.2984H234.9L234.3 20.2984Z" fill="#ACACAC"/>
<path id="Vector_20" d="M239 19.698V25.898H237.7V19.698H236.4V18.498H240.2V19.698H239Z" fill="#ACACAC"/>
<path id="Vector_21" d="M242.1 18.498V25.898H240.8V18.498H242.1Z" fill="#ACACAC"/>
<path id="Vector_22" d="M247.2 25.7984H245.9L244.4 21.8984V25.7984H243.1V18.3984H244.4L245.9 22.4984V18.3984H247.2V25.7984Z" fill="#ACACAC"/>
<path id="Vector_23" d="M248.1 23.7984V20.4984C248.1 19.7984 248.3 19.2984 248.7 18.8984C249.1 18.4984 249.6 18.3984 250.2 18.3984C250.8 18.3984 251.3 18.5984 251.7 18.8984C252.1 19.1984 252.3 19.7984 252.3 20.3984V20.5984H251V20.3984C251 20.0984 250.9 19.8984 250.8 19.6984C250.7 19.4984 250.5 19.4984 250.2 19.4984C249.9 19.4984 249.7 19.5984 249.6 19.7984C249.5 19.9984 249.4 20.2984 249.4 20.6984V23.6984C249.4 24.3984 249.7 24.7984 250.2 24.7984C250.5 24.7984 250.6 24.6984 250.8 24.4984C250.9 24.2984 251 24.0984 251 23.6984V22.8984H250.2V21.8984H252.3V23.7984C252.3 24.4984 252.1 24.9984 251.7 25.3984C251.3 25.7984 250.8 25.8984 250.2 25.8984C249.6 25.8984 249.1 25.6984 248.7 25.3984C248.3 24.9984 248.1 24.4984 248.1 23.7984Z" fill="#ACACAC"/>
<path id="Vector_24" d="M208.3 34.6992C208.1 34.3992 208 33.9992 208 33.5992V28.1992H209.3V33.5992C209.3 33.8992 209.4 34.0992 209.5 34.2992C209.6 34.3992 209.8 34.4992 210 34.4992C210.5 34.4992 210.7 34.1992 210.7 33.5992V28.1992H212V33.5992C212 33.9992 211.9 34.2992 211.7 34.6992C211.5 34.9992 211.3 35.1992 211 35.3992C210.7 35.5992 210.4 35.6992 210 35.6992C209.6 35.6992 209.3 35.5992 209 35.3992C208.8 35.1992 208.5 34.9992 208.3 34.6992Z" fill="#ACACAC"/>
<path id="Vector_25" d="M214.3 32.5992V35.5992H213V28.1992H215C215.7 28.1992 216.2 28.3992 216.5 28.6992C216.8 28.9992 217 29.5992 217 30.3992C217 30.8992 216.9 31.2992 216.8 31.5992C216.7 31.8992 216.4 32.1992 216.1 32.2992L217.2 35.4992H215.8L214.9 32.4992H214.3V32.5992ZM215 31.3992C215.3 31.3992 215.4 31.2992 215.5 31.0992C215.6 30.8992 215.6 30.6992 215.6 30.2992C215.6 29.8992 215.6 29.6992 215.5 29.4992C215.4 29.2992 215.2 29.1992 215 29.1992H214.3V31.3992H215Z" fill="#ACACAC"/>
<path id="Vector_26" d="M221.9 33.3977C221.9 34.0977 221.7 34.6977 221.4 34.9977C221.1 35.2977 220.6 35.4977 219.8 35.4977H217.8V28.0977H219.8C220.5 28.0977 221 28.2977 221.3 28.5977C221.6 28.8977 221.8 29.3977 221.8 30.0977C221.8 30.4977 221.7 30.7977 221.6 30.9977C221.5 31.2977 221.3 31.4977 221 31.5977C221.3 31.6977 221.5 31.9977 221.6 32.1977C221.7 32.3977 221.9 32.8977 221.9 33.3977ZM219.2 31.0977H219.8C220.1 31.0977 220.3 30.9977 220.4 30.8977C220.5 30.7977 220.6 30.4977 220.6 30.1977C220.6 29.8977 220.5 29.5977 220.4 29.4977C220.3 29.3977 220.1 29.2977 219.8 29.2977H219.2V31.0977ZM220.6 33.2977C220.6 32.8977 220.5 32.6977 220.4 32.4977C220.3 32.2977 220 32.2977 219.7 32.2977H219.2V34.3977H219.7C220 34.3977 220.3 34.2977 220.4 34.1977C220.5 33.9977 220.6 33.6977 220.6 33.2977Z" fill="#ACACAC"/>
<path id="Vector_27" d="M224 34.0977L223.7 35.4977H222.3L224.2 28.0977H225.5L227.4 35.4977H226L225.7 34.0977H224ZM224.9 29.8977L224.3 32.8977H225.5L224.9 29.8977Z" fill="#ACACAC"/>
<path id="Vector_28" d="M232.1 35.4977H230.8L229.3 31.5977V35.4977H228V28.0977H229.3L230.8 32.1977V28.0977H232.1V35.4977Z" fill="#ACACAC"/>
<path id="Vector_29" d="M207.8 43.0992H209C209 43.4992 209.1 43.6992 209.2 43.8992C209.3 44.0992 209.5 44.1992 209.8 44.1992C210.1 44.1992 210.2 44.0992 210.4 43.9992C210.5 43.7992 210.6 43.5992 210.6 43.2992C210.6 42.9992 210.5 42.7992 210.4 42.5992C210.3 42.3992 210 42.2992 209.7 42.0992L209.2 41.8992C208.7 41.6992 208.4 41.3992 208.2 41.0992C208 40.7992 207.9 40.3992 207.9 39.7992C207.9 39.1992 208.1 38.6992 208.4 38.2992C208.8 37.8992 209.2 37.6992 209.9 37.6992C210.5 37.6992 211 37.8992 211.3 38.1992C211.6 38.4992 211.8 39.0992 211.8 39.7992H210.6C210.6 39.4992 210.5 39.1992 210.4 38.9992C210.3 38.7992 210.1 38.6992 209.9 38.6992C209.4 38.6992 209.2 38.9992 209.2 39.4992C209.2 39.7992 209.3 39.9992 209.4 40.0992C209.5 40.2992 209.7 40.3992 210 40.4992L210.5 40.6992C211 40.8992 211.4 41.1992 211.6 41.5992C211.8 41.8992 211.9 42.3992 211.9 42.9992C211.9 43.6992 211.7 44.1992 211.4 44.5992C211 44.9992 210.5 45.1992 209.9 45.1992C209.3 45.1992 208.8 44.9992 208.4 44.5992C208 44.3992 207.8 43.7992 207.8 43.0992Z" fill="#ACACAC"/>
<path id="Vector_30" d="M216.6 40.1988C216.6 40.9988 216.4 41.5988 216.1 41.8988C215.8 42.2988 215.3 42.4988 214.6 42.4988H213.9V45.1988H212.6V37.7988H214.6C215.3 37.7988 215.8 37.9988 216.2 38.3988C216.5 38.7988 216.6 39.3988 216.6 40.1988ZM215.3 40.1988C215.3 39.7988 215.2 39.4988 215.1 39.2988C215 39.0988 214.8 38.9988 214.5 38.9988H213.9V41.2988H214.5C214.8 41.2988 215 41.1988 215.1 40.9988C215.2 40.8988 215.3 40.5988 215.3 40.1988Z" fill="#ACACAC"/>
<path id="Vector_31" d="M218.1 43.7988L217.8 45.1988H216.4L218.3 37.7988H219.6L221.5 45.1988H220.1L219.8 43.7988H218.1ZM219 39.5988L218.4 42.5988H219.6L219 39.5988Z" fill="#ACACAC"/>
<path id="Vector_32" d="M221.9 43.1988V39.8988C221.9 39.1988 222.1 38.6988 222.5 38.2988C222.9 37.8988 223.4 37.7988 224 37.7988C224.6 37.7988 225.1 37.9988 225.5 38.2988C225.9 38.5988 226.1 39.1988 226.1 39.8988V40.0988H224.8V39.8988C224.8 39.5988 224.7 39.2988 224.6 39.1988C224.5 38.9988 224.3 38.9988 224 38.9988C223.7 38.9988 223.5 39.0988 223.4 39.2988C223.3 39.4988 223.2 39.7988 223.2 40.1988V43.1988C223.2 43.8988 223.5 44.2988 224 44.2988C224.2 44.2988 224.4 44.1988 224.6 44.0988C224.7 43.8988 224.8 43.6988 224.8 43.3988V43.1988H226.1V43.3988C226.1 44.0988 225.9 44.5988 225.5 44.9988C225.1 45.3988 224.6 45.4988 224 45.4988C223.4 45.4988 222.9 45.2988 222.5 44.9988C222.1 44.3988 221.9 43.8988 221.9 43.1988Z" fill="#ACACAC"/>
<path id="Vector_33" d="M228.2 40.8984H229.9V42.0984H228.2V44.0984H230.2V45.2984H226.9V37.8984H230.2V39.0984H228.2V40.8984Z" fill="#ACACAC"/>
</g>
</g>
<defs>
<clipPath id="clip0_910_29276">
<rect width="252.2" height="45.3" fill="white" transform="translate(0 0.398438)"/>
</clipPath>
</defs>
</svg>
