<svg width="245" height="62" viewBox="0 0 245 62" fill="none" xmlns="http://www.w3.org/2000/svg">
<path d="M245 0.398438H59V61.7409H245V0.398438Z" fill="#5D5D5D"/>
<path d="M75 43.3377V18.8008H88V20.9951H77.3636V29.3736H85.8333V31.7675H77.3636V43.3377H75Z" fill="white"/>
<path d="M110.714 31.0667C110.714 25.4205 106.524 20.9425 101 20.9425C95.4762 20.9425 91.2857 25.4205 91.2857 31.0667C91.2857 36.9077 95.4762 41.191 101 41.191C106.524 41.191 110.714 36.9077 110.714 31.0667ZM89 31.0667C89 24.2523 94.3333 18.8008 101 18.8008C107.667 18.8008 113 24.447 113 31.0667C113 37.8812 107.476 43.3327 101 43.3327C94.3333 43.5274 89 38.0759 89 31.0667Z" fill="white"/>
<path d="M136.992 31.0667C136.992 25.4205 132.976 20.9425 127.683 20.9425C122.389 20.9425 118.373 25.4205 118.373 31.0667C118.373 36.9077 122.389 41.191 127.683 41.191C132.976 41.191 136.992 36.9077 136.992 31.0667ZM116 31.0667C116 24.2523 121.111 18.8008 127.5 18.8008C133.889 18.8008 139 24.447 139 31.0667C139 37.8812 133.706 43.3327 127.5 43.3327C121.111 43.5274 116 38.0759 116 31.0667Z" fill="white"/>
<path d="M150.511 41.3429C155.394 41.3429 158.83 37.3531 158.83 30.77C158.83 23.389 155.213 20.9951 149.606 20.9951H146.351V41.3429H150.511ZM144 18.8008H149.426C156.479 18.8008 161 22.1921 161 30.77C161 38.949 156.66 43.3377 150.511 43.3377H144.181V18.8008H144Z" fill="white"/>
<path d="M178.906 35.3582C178.719 36.1562 178.532 37.1536 178.158 38.1511L176.287 43.3377H171.982L163 19.0003H167.678L173.667 35.7572C174.041 36.9541 174.228 37.7521 174.415 38.55C174.602 37.5526 174.602 36.9541 175.164 35.7572L176.661 31.568L172.17 19.0003H176.474L178.345 24.1869C178.719 25.1844 178.906 26.1818 179.094 26.9798C179.281 26.1818 179.468 25.3839 179.842 24.1869L181.713 19.0003H186.018L181.339 31.3685L182.836 35.5577C183.211 36.7547 183.398 37.3531 183.585 38.3506C183.772 37.3531 183.772 36.7547 184.333 35.5577L190.322 18.8008H195L186.205 43.3377H181.901L180.029 38.1511C179.468 37.1536 179.281 36.3557 178.906 35.3582Z" fill="white"/>
<path d="M197 43.3377V39.1485H199.946V22.99H197V18.8008H208V22.99H204.857V39.1485H208V43.3377H197Z" fill="white"/>
<path d="M228.807 43.3377H224.17V37.995L217.409 28.4968C216.83 27.7053 216.25 26.7159 216.25 26.7159C216.25 26.7159 216.443 27.9032 216.443 28.8926V43.3377H212V18.9987H216.443L223.398 29.0905C223.784 29.6841 224.17 30.4756 224.364 30.6735C224.364 30.4756 224.364 29.6841 224.364 28.6947V18.8008H229V43.3377H228.807Z" fill="white"/>
<path d="M56 0.398438H0V61.7409H56V0.398438Z" fill="#5D5D5D"/>
<path d="M7.96648 53.5607C7.43017 53.5607 6.89385 53.3455 6.53631 52.6998C6.17877 52.2693 6 51.8388 6 51.1931C6 50.5474 6.17877 49.9017 6.71508 49.4712L11.5419 44.5208C11.7207 44.3056 12.0782 44.3056 12.4358 44.5208C12.6145 44.736 12.6145 45.1665 12.4358 45.597L7.60894 50.5474C7.43017 50.7627 7.43017 50.9779 7.43017 51.1931C7.43017 51.4084 7.43017 51.6236 7.60894 51.8388C7.96648 52.2693 8.32402 52.2693 8.68156 51.8388L12.9721 47.3189C13.1508 47.1036 13.5084 47.1036 13.8659 47.3189C14.0447 47.5341 14.0447 47.9646 13.8659 48.3951L9.57542 52.915C8.86034 53.3455 8.32402 53.5607 7.96648 53.5607Z" fill="white"/>
<path d="M33.6436 54.3764C31.9681 54.3764 30.8511 53.9615 29.9202 53.7541C29.1755 53.5467 28.4309 53.1318 27.3138 53.1318C26.1968 53.1318 25.4521 53.3392 24.7074 53.7541C23.5904 54.169 22.4734 54.5839 20.6117 54.5839C13.3511 54.5839 10 42.9673 10 35.0847C10 29.2764 11.3032 25.3351 13.9096 22.8458C16.8883 20.1491 21.3564 19.3194 27.1277 20.3566C31.5957 18.2822 35.5053 18.2822 38.6702 20.3566C39.0426 20.564 39.0426 20.9789 38.8564 21.1863C38.6702 21.6012 38.2979 21.6012 38.1117 21.3938C35.3191 19.5268 31.7819 19.5268 27.5 21.6012C27.3138 21.6012 27.3138 21.6012 27.1277 21.6012C21.5426 20.564 17.2606 21.1863 14.6543 23.6756C12.234 25.9574 11.117 29.6913 11.117 35.0847C11.117 41.3078 13.9096 53.1318 20.6117 53.1318C22.2872 53.1318 23.4043 52.7169 24.3351 52.5095C25.266 52.302 26.0106 51.8872 27.3138 51.8872C28.617 51.8872 29.3617 52.0946 30.2926 52.5095C31.2234 52.9244 32.1543 53.1318 34.016 53.1318C40.7181 52.9244 43.6968 42.5524 43.6968 35.0847C43.6968 31.5582 42.766 26.3723 40.1596 23.2607C39.9734 23.0533 39.9734 22.6384 40.1596 22.2235C40.3457 21.8086 40.7181 22.0161 41.0904 22.2235C43.5106 25.3351 45 30.1062 45 35.0847C45 44.4194 40.9043 54.169 34.2021 54.3764C33.8298 54.3764 33.8298 54.3764 33.6436 54.3764Z" fill="white"/>
<path d="M19.5189 49.472C19.3439 49.472 19.169 49.472 19.169 49.2696C13.3957 42.7946 13.9206 34.7008 14.0955 31.2609C14.0955 31.0586 14.0955 30.8563 14.0955 30.6539C14.0955 30.2492 14.4454 30.0469 14.6204 30.0469C14.9703 30.0469 15.1452 30.4516 15.1452 30.6539C15.1452 30.8563 15.1452 31.0586 15.1452 31.2609C14.9703 34.4985 14.4454 42.1876 19.8688 48.2579C20.0437 48.4602 20.0437 48.8649 19.8688 49.2696C19.6938 49.472 19.6938 49.472 19.5189 49.472Z" fill="white"/>
<path d="M35.4835 28.0013C35.3077 28.0013 35.1319 28.0013 35.1319 27.8005C34.956 27.5998 34.956 27.1984 35.1319 26.797L41.989 19.9728C42.1648 19.7721 42.5165 19.7721 42.8681 19.9728C43.044 20.1735 43.044 20.5749 42.8681 20.9764L36.011 27.8005C35.8352 27.8005 35.6593 28.0013 35.4835 28.0013Z" fill="white"/>
<path d="M33.4835 25.9563C33.3077 25.9563 33.1319 25.9563 33.1319 25.7556C32.956 25.5549 32.956 25.1535 33.1319 24.7521L39.989 17.9279C40.1648 17.7272 40.5165 17.7272 40.8681 17.9279C41.044 18.1286 41.044 18.53 40.8681 18.9314L34.011 25.7556C33.6593 25.7556 33.6593 25.9563 33.4835 25.9563Z" fill="white"/>
<path d="M37.9394 29.0238C32.6364 29.0238 32.2121 25.2069 32 22.8214C32 22.3443 32.2121 22.1057 32.6364 21.8672C33.0606 21.8672 33.2727 22.1057 33.4849 22.5828C33.697 25.2069 33.9091 27.5925 38.3636 27.5925C38.7879 27.5925 39 27.831 39 28.3081C39 28.7852 38.7879 29.0238 38.3636 29.0238C38.1515 29.0238 37.9394 29.0238 37.9394 29.0238Z" fill="white"/>
<path d="M39.6875 15.8681L44.75 22.1029L48.3125 13.2535L39.6875 15.8681ZM44.9375 23.913C44.75 23.913 44.5625 23.913 44.5625 23.7119L38.1875 15.8681C38 15.667 38 15.4659 38 15.2647C38 15.0636 38.1875 14.8625 38.375 14.8625L49.25 11.6445C49.4375 11.6445 49.625 11.6445 49.8125 11.8457C50 12.0468 50 12.2479 50 12.449L45.5 23.5108C45.3125 23.7119 45.125 23.913 44.9375 23.913Z" fill="white"/>
</svg>
