<svg width="169" height="113" viewBox="0 0 169 113" fill="none" xmlns="http://www.w3.org/2000/svg">
<g id="Group">
<g id="Group_2">
<g id="Group_3">
<g id="Group_4">
<g id="Group_5">
<path id="Vector" d="M139.301 1.35547H32.2061V30.0339H139.301V1.35547Z" fill="#FEFDF9"/>
<path id="Vector_2" d="M138.341 2.31388V29.0768H33.1923V2.31388H138.341ZM140.26 0.398438H31.2461V31.0189H140.26V0.398438Z" fill="#5D5D5D"/>
</g>
<g id="Group_6">
<path id="Vector_3" d="M44.5232 21.0694H40.0176V8.96484H45.243C46.2028 8.96484 47.0026 9.07126 47.6691 9.25748C48.3356 9.4437 48.8688 9.76294 49.2687 10.1354C49.6686 10.5078 49.9619 10.9601 50.1485 11.4922C50.3351 12.0242 50.4151 12.6095 50.4151 13.2746V13.3544C50.4151 14.6047 50.0152 15.5891 49.1887 16.334C48.3623 17.0789 47.1359 17.4247 45.4296 17.4247H44.5232V21.0694ZM46.2028 13.3012C46.2028 12.6361 45.8029 12.2903 45.0031 12.2903H44.5232V14.4185H44.9764C45.8029 14.4185 46.2028 14.0727 46.2028 13.3544V13.3012Z" fill="#5D5D5D"/>
<path id="Vector_4" d="M65.5848 14.9767C65.5848 15.9344 65.4248 16.8123 65.1049 17.6104C64.785 18.3819 64.3317 19.047 63.7452 19.6056C63.1587 20.1643 62.4388 20.59 61.6124 20.8826C60.7859 21.1752 59.8528 21.3349 58.813 21.3349C57.7999 21.3349 56.8935 21.1752 56.067 20.8826C55.2672 20.59 54.574 20.1643 54.0142 19.6322C53.4543 19.1002 53.0277 18.4351 52.7345 17.6636C52.4412 16.8921 52.2812 16.0408 52.2812 15.1097V14.9767C52.2812 14.0189 52.4412 13.1676 52.7878 12.3961C53.1344 11.6246 53.6143 10.9862 54.2008 10.4541C54.814 9.92203 55.5072 9.52298 56.307 9.23034C57.1068 8.9377 57.9599 8.80469 58.893 8.80469C59.8261 8.80469 60.7059 8.9377 61.5324 9.20374C62.3589 9.46977 63.052 9.84222 63.6652 10.3743C64.2517 10.8797 64.7316 11.5182 65.0782 12.2897C65.4248 13.0346 65.5848 13.9125 65.5848 14.8968V14.9767ZM60.8659 14.9235C60.8659 13.9923 60.6793 13.3006 60.306 12.9016C59.9328 12.4759 59.4529 12.2631 58.893 12.2631C58.3331 12.2631 57.8533 12.4759 57.5067 12.9016C57.1601 13.3273 56.9735 13.9923 56.9735 14.9235V15.0565C56.9735 15.961 57.1334 16.6527 57.48 17.1049C57.8266 17.5572 58.2798 17.77 58.9197 17.77C59.5329 17.77 60.0128 17.5306 60.3593 17.0783C60.7059 16.6261 60.8659 15.9344 60.8659 15.0565V14.9235Z" fill="#5D5D5D"/>
<path id="Vector_5" d="M71.6369 17.1313C71.6635 17.4239 71.7701 17.6633 71.9301 17.8762C72.1167 18.0624 72.4367 18.1688 72.8899 18.1688C73.2631 18.1688 73.5031 18.1156 73.6364 17.9826C73.7697 17.8762 73.823 17.7165 73.823 17.5037C73.823 17.2909 73.7164 17.1313 73.5297 16.9982C73.3164 16.8918 72.9699 16.812 72.4633 16.7322C71.5569 16.6258 70.8104 16.4928 70.1705 16.3066C69.5573 16.1203 69.0508 15.8809 68.6776 15.5617C68.3043 15.2424 68.011 14.87 67.8511 14.4177C67.6911 13.9655 67.6111 13.4068 67.6111 12.7683C67.6111 12.183 67.7178 11.651 67.9577 11.1455C68.1977 10.64 68.5176 10.2144 68.9708 9.86855C69.3974 9.52271 69.9306 9.23007 70.5704 9.01725C71.2103 8.80442 71.9301 8.72461 72.7299 8.72461C74.3295 8.72461 75.5559 9.04385 76.3824 9.68233C77.2355 10.3208 77.7154 11.3317 77.7954 12.7417H73.6097C73.5831 12.4757 73.5031 12.2629 73.3431 12.1032C73.1832 11.9436 72.9699 11.8638 72.6766 11.8638C72.1434 11.8638 71.8501 12.05 71.8501 12.4491C71.8501 12.6619 71.9568 12.8215 72.1434 12.9279C72.33 13.0343 72.7033 13.1142 73.2098 13.194C73.9563 13.2738 74.6228 13.3536 75.236 13.5132C75.8492 13.6462 76.3557 13.8591 76.7823 14.1517C77.2089 14.4443 77.5288 14.8168 77.7687 15.269C78.0087 15.7213 78.1153 16.3066 78.1153 17.0248C78.1153 17.6101 78.0087 18.1422 77.7954 18.6743C77.5821 19.2063 77.2355 19.6586 76.809 20.031C76.3557 20.4301 75.8225 20.7227 75.156 20.9621C74.4895 21.175 73.743 21.308 72.8632 21.308C71.9834 21.308 71.2103 21.2282 70.5438 21.0686C69.8773 20.9089 69.2907 20.6695 68.8109 20.3237C68.331 19.9778 67.9844 19.5522 67.7178 19.0201C67.4512 18.488 67.3179 17.8762 67.3179 17.1313H71.6369Z" fill="#5D5D5D"/>
<path id="Vector_6" d="M85.2601 21.0694H80.7012V8.96484H85.2601V21.0694Z" fill="#5D5D5D"/>
<path id="Vector_7" d="M94.9378 21.0694H90.3789V12.3967H87.4463V8.96484H97.8705V12.3967H94.9378V21.0694Z" fill="#5D5D5D"/>
<path id="Vector_8" d="M104.642 21.0694H100.083V8.96484H104.642V21.0694Z" fill="#5D5D5D"/>
<path id="Vector_9" d="M115.76 21.0694H110.694L106.722 8.96484H111.654L113.52 16.334L115.413 8.96484H119.625L115.76 21.0694Z" fill="#5D5D5D"/>
<path id="Vector_10" d="M130.983 21.0694H121.678V8.96484H130.743V12.3967H126.184V13.4342H129.783V16.5468H126.184V17.6375H131.009V21.0694H130.983Z" fill="#5D5D5D"/>
</g>
</g>
<path id="Vector_11" d="M137.354 31.0195L129.116 36.2072H26.927L33.832 31.0195H137.354ZM140.26 31.0195H31.246L22.2881 37.7768H129.543L140.26 31.0195Z" fill="#5D5D5D"/>
</g>
<path id="Vector_12" d="M31.246 0.398438V31.0189L22.2881 37.7495V8.16661L31.246 0.398438Z" fill="#5D5D5D"/>
<g id="Group_7">
<path id="Vector_13" d="M34.8187 37.776H32.126L41.9636 30.9922L43.9365 31.0188L34.8187 37.776Z" fill="#5D5D5D"/>
</g>
<g id="Group_8">
<path id="Vector_14" d="M44.2293 37.776H41.5366L51.3743 30.9922L53.3738 31.0188L44.2293 37.776Z" fill="#5D5D5D"/>
</g>
<g id="Group_9">
<path id="Vector_15" d="M53.6404 37.776H50.9478L60.8121 30.9922L62.785 31.0188L53.6404 37.776Z" fill="#5D5D5D"/>
</g>
<g id="Group_10">
<path id="Vector_16" d="M63.0516 37.776H60.3589L70.2232 30.9922L72.1961 31.0188L63.0516 37.776Z" fill="#5D5D5D"/>
</g>
<g id="Group_11">
<path id="Vector_17" d="M72.4896 37.776H69.7969L79.6346 30.9922L81.6074 31.0188L72.4896 37.776Z" fill="#5D5D5D"/>
</g>
<g id="Group_12">
<path id="Vector_18" d="M81.9007 37.776H79.208L89.0457 30.9922L91.0185 31.0188L81.9007 37.776Z" fill="#5D5D5D"/>
</g>
<g id="Group_13">
<path id="Vector_19" d="M91.3118 37.776H88.6191L98.4568 30.9922L100.43 31.0188L91.3118 37.776Z" fill="#5D5D5D"/>
</g>
<g id="Group_14">
<path id="Vector_20" d="M100.723 37.776H98.0303L107.868 30.9922L109.841 31.0188L100.723 37.776Z" fill="#5D5D5D"/>
</g>
<g id="Group_15">
<path id="Vector_21" d="M110.134 37.776H107.441L117.306 30.9922L119.279 31.0188L110.134 37.776Z" fill="#5D5D5D"/>
</g>
<g id="Group_16">
<path id="Vector_22" d="M119.545 37.776H116.853L126.717 30.9922L128.69 31.0188L119.545 37.776Z" fill="#5D5D5D"/>
</g>
</g>
<g id="Group_17">
<g id="Group_18">
<g id="Group_19">
<g id="Group_20">
<path id="Vector_23" d="M167.161 25.7773H75.5024V54.4557H167.161V25.7773Z" fill="#FEFDF9"/>
<path id="Vector_24" d="M166.227 26.7358V53.4987H76.462V26.7358H166.227ZM168.147 24.8203H74.5425V55.4407H168.147V24.8203Z" fill="#5D5D5D"/>
</g>
<g id="Group_21">
<path id="Vector_25" d="M92.6448 45.4658H83.3403V33.3613H92.4049V36.7932H87.8459V37.8307H91.4451V40.9433H87.8459V42.034H92.6715V45.4658H92.6448Z" fill="#5D5D5D"/>
<path id="Vector_26" d="M107.095 45.4658H102.802L99.4432 38.8682V45.4658H95.4175V33.3613H100.456L103.096 38.9746V33.3613H107.095V45.4658Z" fill="#5D5D5D"/>
<path id="Vector_27" d="M119.572 45.4658H110.267V33.3613H119.332V36.7932H114.773V37.8307H118.372V40.9433H114.773V42.034H119.598V45.4658H119.572Z" fill="#5D5D5D"/>
<path id="Vector_28" d="M133.675 45.4658H128.983L127.09 41.635H126.823V45.4658H122.318V33.3613H127.65C129.463 33.3613 130.796 33.7072 131.649 34.4255C132.502 35.1438 132.929 36.1281 132.929 37.4582V37.5381C132.929 38.3362 132.769 39.0012 132.449 39.4801C132.129 39.9856 131.702 40.3846 131.142 40.6772L133.675 45.4658ZM128.61 37.6711C128.61 37.0326 128.21 36.7133 127.383 36.7133H126.85V38.7884H127.357C127.81 38.7884 128.13 38.7086 128.316 38.5224C128.53 38.3362 128.61 38.0701 128.61 37.7243V37.6711Z" fill="#5D5D5D"/>
<path id="Vector_29" d="M147.965 40.2777C147.965 40.9959 147.832 41.6876 147.592 42.3527C147.352 43.0178 146.952 43.5765 146.445 44.0819C145.939 44.5874 145.272 44.9864 144.499 45.2791C143.699 45.5717 142.766 45.7313 141.673 45.7313C140.607 45.7313 139.647 45.5717 138.821 45.2791C137.994 44.9864 137.301 44.5608 136.741 44.0021C136.181 43.4434 135.781 42.805 135.488 42.0335C135.195 41.262 135.062 40.4373 135.062 39.5328V39.3997C135.062 38.4686 135.221 37.6173 135.568 36.8458C135.915 36.0743 136.368 35.4358 136.954 34.9038C137.541 34.3717 138.234 33.9461 139.061 33.6534C139.86 33.3608 140.74 33.2012 141.647 33.2012C142.42 33.2012 143.166 33.281 143.859 33.4672C144.579 33.6534 145.192 33.9195 145.752 34.3185C146.312 34.691 146.739 35.1964 147.085 35.8083C147.432 36.4202 147.619 37.1385 147.645 37.9898H143.193C143.166 37.6439 143.033 37.3513 142.793 37.1119C142.553 36.8724 142.18 36.766 141.647 36.766C141.06 36.766 140.607 37.0054 140.26 37.4577C139.914 37.91 139.727 38.6016 139.727 39.4796V39.6126C139.727 39.985 139.754 40.3043 139.807 40.6501C139.86 40.9693 139.967 41.262 140.127 41.528C140.287 41.794 140.5 41.9803 140.767 42.1399C141.033 42.2729 141.38 42.3527 141.807 42.3527C142.1 42.3527 142.366 42.3261 142.58 42.2463C142.793 42.1931 142.953 42.1133 143.086 42.0069C143.22 41.9271 143.326 41.8206 143.406 41.6876C143.486 41.5812 143.54 41.4482 143.566 41.3418H141.86V38.6016H147.965V40.2777Z" fill="#5D5D5D"/>
<path id="Vector_30" d="M157.056 45.4658H152.497V40.3314L148.605 33.3613H153.484L154.95 36.6335L156.47 33.3613H160.762L157.03 40.3314V45.4658H157.056Z" fill="#5D5D5D"/>
</g>
</g>
<path id="Vector_31" d="M165.241 55.4141L157.003 60.6017H70.2234L77.1284 55.4141H165.241ZM168.147 55.4141H74.5424L65.5845 62.1713H157.429L168.147 55.4141Z" fill="#5D5D5D"/>
</g>
<path id="Vector_32" d="M74.5424 24.8203V55.4141L65.5845 62.1714V32.5619L74.5424 24.8203Z" fill="#5D5D5D"/>
<g id="Group_22">
<path id="Vector_33" d="M78.3546 62.1713H75.502L85.9261 55.4141L88.0057 55.4407L78.3546 62.1713Z" fill="#5D5D5D"/>
</g>
<g id="Group_23">
<path id="Vector_34" d="M88.299 62.1713H85.4463L95.8705 55.4141L97.95 55.4407L88.299 62.1713Z" fill="#5D5D5D"/>
</g>
<g id="Group_24">
<path id="Vector_35" d="M98.2435 62.1713H95.4175L105.815 55.4141L107.895 55.4407L98.2435 62.1713Z" fill="#5D5D5D"/>
</g>
<g id="Group_25">
<path id="Vector_36" d="M108.214 62.1713H105.362L115.759 55.4141L117.839 55.4407L108.214 62.1713Z" fill="#5D5D5D"/>
</g>
<g id="Group_26">
<path id="Vector_37" d="M118.159 62.1713H115.306L125.704 55.4141L127.81 55.4407L118.159 62.1713Z" fill="#5D5D5D"/>
</g>
<g id="Group_27">
<path id="Vector_38" d="M128.103 62.1713H125.25L135.675 55.4141L137.754 55.4407L128.103 62.1713Z" fill="#5D5D5D"/>
</g>
<g id="Group_28">
<path id="Vector_39" d="M138.047 62.1713H135.195L145.619 55.4141L147.699 55.4407L138.047 62.1713Z" fill="#5D5D5D"/>
</g>
<g id="Group_29">
<path id="Vector_40" d="M147.992 62.1713H145.166L155.563 55.4141L157.643 55.4407L147.992 62.1713Z" fill="#5D5D5D"/>
</g>
</g>
<g id="Group_30">
<g id="Group_31">
<g id="Group_32">
<g id="Group_33">
<path id="Vector_41" d="M130.183 51.582H9.91797V80.2604H130.183V51.582Z" fill="#FEFDF9"/>
<path id="Vector_42" d="M129.223 52.5404V79.3034H10.9042V52.5404H129.223ZM131.169 50.625H8.95801V81.2454H131.169V50.625Z" fill="#5D5D5D"/>
</g>
<g id="Group_34">
<path id="Vector_43" d="M29.4598 65.1764C29.4598 67.1983 28.8999 68.7147 27.7535 69.7256C26.6071 70.7365 24.9542 71.2686 22.7947 71.2686H17.7559V59.1641H22.768C24.9808 59.1641 26.6338 59.6429 27.7535 60.6272C28.8732 61.585 29.4331 63.0748 29.4331 65.07V65.1764H29.4598ZM22.6347 67.8367C23.3812 67.8367 23.9411 67.6505 24.261 67.2515C24.5809 66.879 24.7409 66.2139 24.7409 65.2828V65.1498C24.7409 64.6443 24.6876 64.2187 24.6076 63.8995C24.5276 63.5536 24.3943 63.3142 24.2077 63.128C24.021 62.9417 23.8078 62.8087 23.5412 62.7289C23.2746 62.6491 22.9546 62.6225 22.5814 62.6225H22.2615V67.8634H22.6347V67.8367Z" fill="#5D5D5D"/>
<path id="Vector_44" d="M36.578 71.2686H32.019V59.1641H36.578V71.2686Z" fill="#5D5D5D"/>
<path id="Vector_45" d="M43.403 67.3578C43.4296 67.6505 43.5363 67.8899 43.6962 68.1027C43.8828 68.2889 44.2028 68.3954 44.656 68.3954C45.0292 68.3954 45.2692 68.3421 45.4025 68.2091C45.5358 68.1027 45.5891 67.9431 45.5891 67.7303C45.5891 67.5174 45.4825 67.3578 45.2958 67.2248C45.0826 67.1184 44.736 67.0386 44.2294 66.9588C43.323 66.8524 42.5765 66.7193 41.9366 66.5331C41.3235 66.3469 40.8169 66.1075 40.4437 65.7882C40.0704 65.469 39.7772 65.0965 39.6172 64.6443C39.4572 64.192 39.3772 63.6334 39.3772 62.9949C39.3772 62.4096 39.4839 61.8775 39.7238 61.3721C39.9638 60.8666 40.2837 60.441 40.7369 60.0951C41.1635 59.7493 41.6967 59.4566 42.3365 59.2438C42.9764 59.031 43.6962 58.9512 44.496 58.9512C46.0957 58.9512 47.322 59.2704 48.1485 59.9089C49.0016 60.5474 49.4815 61.5583 49.5615 62.9683H45.3758C45.3492 62.7022 45.2692 62.4894 45.1092 62.3298C44.9493 62.1702 44.736 62.0904 44.4427 62.0904C43.9095 62.0904 43.6162 62.2766 43.6162 62.6756C43.6162 62.8885 43.7229 63.0481 43.9095 63.1545C44.0961 63.2609 44.4694 63.3407 44.9759 63.4205C45.7224 63.5003 46.3889 63.5802 47.0021 63.7398C47.6153 63.8728 48.1218 64.0856 48.5484 64.3782C48.975 64.6709 49.2949 65.0433 49.5348 65.4956C49.7748 65.9478 49.8814 66.5331 49.8814 67.2514C49.8814 67.8367 49.7748 68.3687 49.5615 68.9008C49.3482 69.4329 49.0016 69.8851 48.5751 70.2576C48.1218 70.6566 47.5886 70.9493 46.9221 71.1887C46.2556 71.4015 45.5091 71.5345 44.6293 71.5345C43.7495 71.5345 42.9764 71.4547 42.3099 71.2951C41.6434 71.1355 41.0568 70.8961 40.577 70.5502C40.0971 70.2044 39.7505 69.7787 39.4839 69.2467C39.2173 68.7146 39.084 68.1027 39.084 67.3578H43.403Z" fill="#5D5D5D"/>
<path id="Vector_46" d="M59.0262 71.2686H54.4673V62.5959H51.5347V59.1641H61.9589V62.5959H59.0262V71.2686Z" fill="#5D5D5D"/>
<path id="Vector_47" d="M75.4755 71.2686H70.7833L68.8904 67.4377H68.6238V71.2686H64.1182V59.1641H69.4502C71.2631 59.1641 72.5962 59.5099 73.4493 60.2282C74.3024 60.9465 74.729 61.9308 74.729 63.261V63.3408C74.729 64.1389 74.569 64.804 74.2491 65.2828C73.9292 65.7883 73.5026 66.1873 72.9427 66.48L75.4755 71.2686ZM70.4367 63.4738C70.4367 62.8353 70.0368 62.5161 69.2103 62.5161H68.6771V64.5911H69.1836C69.6369 64.5911 69.9568 64.5113 70.1434 64.3251C70.3567 64.1389 70.4367 63.8729 70.4367 63.527V63.4738Z" fill="#5D5D5D"/>
<path id="Vector_48" d="M82.2474 71.2686H77.6885V59.1641H82.2474V71.2686Z" fill="#5D5D5D"/>
<path id="Vector_49" d="M97.417 66.4541C97.3903 67.2788 97.2037 67.997 96.9104 68.6355C96.6172 69.274 96.1906 69.8061 95.6574 70.2051C95.1242 70.6042 94.511 70.95 93.7912 71.1628C93.0713 71.3757 92.2982 71.4821 91.4717 71.4821C90.3253 71.4821 89.3122 71.3225 88.4858 71.0298C87.6593 70.7372 86.9661 70.3115 86.4063 69.7529C85.8464 69.1942 85.4465 68.5557 85.2065 67.7842C84.9399 67.0127 84.8066 66.188 84.8066 65.2569V65.1239C84.8066 64.1662 84.9666 63.3149 85.2865 62.57C85.6064 61.7985 86.0597 61.16 86.6462 60.6279C87.2327 60.0959 87.8992 59.6702 88.6991 59.4042C89.4722 59.1115 90.3253 58.9785 91.2584 58.9785C92.1382 58.9785 92.9114 59.0849 93.6312 59.2712C94.351 59.4574 94.9376 59.7766 95.4708 60.1757C95.9773 60.5747 96.4039 61.1068 96.6972 61.7453C96.9904 62.3837 97.2037 63.1286 97.2837 64.0065H92.5915C92.5648 63.5543 92.4315 63.1818 92.2182 62.9424C92.0049 62.6764 91.685 62.57 91.2851 62.57C90.7519 62.57 90.3253 62.7828 90.0321 63.2084C89.7388 63.6341 89.5788 64.2992 89.5788 65.1771V65.3101C89.5788 66.1614 89.7388 66.8265 90.0321 67.2522C90.3253 67.7044 90.7786 67.9172 91.3651 67.9172C91.7917 67.9172 92.1382 67.8108 92.4048 67.5714C92.6714 67.332 92.8581 66.9595 92.9114 66.4541H97.417Z" fill="#5D5D5D"/>
<path id="Vector_50" d="M106.508 71.2686H101.949V62.5959H99.0166V59.1641H109.441V62.5959H106.508V71.2686Z" fill="#5D5D5D"/>
<path id="Vector_51" d="M115.413 67.3578C115.439 67.6505 115.546 67.8899 115.706 68.1027C115.893 68.2889 116.213 68.3954 116.666 68.3954C117.039 68.3954 117.279 68.3421 117.412 68.2091C117.546 68.1027 117.599 67.9431 117.599 67.7303C117.599 67.5174 117.492 67.3578 117.306 67.2248C117.092 67.1184 116.746 67.0386 116.239 66.9588C115.333 66.8524 114.586 66.7193 113.946 66.5331C113.333 66.3469 112.827 66.1075 112.453 65.7882C112.08 65.469 111.787 65.0965 111.627 64.6443C111.467 64.192 111.387 63.6334 111.387 62.9949C111.387 62.4096 111.494 61.8775 111.734 61.3721C111.974 60.8666 112.293 60.441 112.747 60.0951C113.173 59.7493 113.706 59.4566 114.346 59.2438C114.986 59.031 115.706 58.9512 116.506 58.9512C118.105 58.9512 119.332 59.2704 120.158 59.9089C121.011 60.5474 121.491 61.5583 121.571 62.9683H117.386C117.359 62.7022 117.279 62.4894 117.119 62.3298C116.959 62.1702 116.746 62.0904 116.452 62.0904C115.919 62.0904 115.626 62.2766 115.626 62.6756C115.626 62.8885 115.733 63.0481 115.919 63.1545C116.106 63.2609 116.479 63.3407 116.986 63.4205C117.732 63.5003 118.399 63.5802 119.012 63.7398C119.625 63.8728 120.132 64.0856 120.558 64.3782C120.985 64.6709 121.305 65.0433 121.545 65.4956C121.785 65.9478 121.891 66.5331 121.891 67.2514C121.891 67.8367 121.785 68.3687 121.571 68.9008C121.358 69.4329 121.011 69.8851 120.585 70.2576C120.132 70.6566 119.598 70.9493 118.932 71.1887C118.265 71.4015 117.519 71.5345 116.639 71.5345C115.759 71.5345 114.986 71.4547 114.32 71.2951C113.653 71.1355 113.067 70.8961 112.587 70.5502C112.107 70.2044 111.76 69.7787 111.494 69.2467C111.227 68.7146 111.094 68.1027 111.094 67.3578H115.413Z" fill="#5D5D5D"/>
</g>
</g>
<path id="Vector_52" d="M128.236 81.2188L119.998 86.4064H4.6389L11.5439 81.2188H128.236ZM8.95788 81.2188L0 87.976H120.451L131.169 81.2188" fill="#5D5D5D"/>
</g>
<path id="Vector_53" d="M8.95788 50.625V81.2188L0 87.9761V58.3666L8.95788 50.625Z" fill="#5D5D5D"/>
<g id="Group_35">
<path id="Vector_54" d="M10.744 87.976H8.05127L17.9156 81.2188L19.8885 81.2454L10.744 87.976Z" fill="#5D5D5D"/>
</g>
<g id="Group_36">
<path id="Vector_55" d="M20.182 87.976H17.4893L27.3269 81.2188L29.2998 81.2454L20.182 87.976Z" fill="#5D5D5D"/>
</g>
<g id="Group_37">
<path id="Vector_56" d="M29.5931 87.976H26.9004L36.7381 81.2188L38.7109 81.2454L29.5931 87.976Z" fill="#5D5D5D"/>
</g>
<g id="Group_38">
<path id="Vector_57" d="M39.0042 87.976H36.3115L46.1492 81.2188L48.1221 81.2454L39.0042 87.976Z" fill="#5D5D5D"/>
</g>
<g id="Group_39">
<path id="Vector_58" d="M48.4154 87.976H45.7227L55.5603 81.2188L57.5332 81.2454L48.4154 87.976Z" fill="#5D5D5D"/>
</g>
<g id="Group_40">
<path id="Vector_59" d="M57.8265 87.976H55.1338L64.9981 81.2188L66.971 81.2454L57.8265 87.976Z" fill="#5D5D5D"/>
</g>
<g id="Group_41">
<path id="Vector_60" d="M67.2376 87.976H64.5449L74.4093 81.2188L76.3821 81.2454L67.2376 87.976Z" fill="#5D5D5D"/>
</g>
<g id="Group_42">
<path id="Vector_61" d="M76.6488 87.976H73.9561L83.8204 81.2188L85.7933 81.2454L76.6488 87.976Z" fill="#5D5D5D"/>
</g>
<g id="Group_43">
<path id="Vector_62" d="M86.0863 87.976H83.3936L93.2312 81.2188L95.2041 81.2454L86.0863 87.976Z" fill="#5D5D5D"/>
</g>
<g id="Group_44">
<path id="Vector_63" d="M95.4974 87.976H92.8047L102.642 81.2188L104.615 81.2454L95.4974 87.976Z" fill="#5D5D5D"/>
</g>
<g id="Group_45">
<path id="Vector_64" d="M105.922 87.976H103.229L113.093 81.2188L115.066 81.2454L105.922 87.976Z" fill="#5D5D5D"/>
</g>
<g id="Group_46">
<path id="Vector_65" d="M115.359 87.976H112.667L122.504 81.2188L124.477 81.2454L115.359 87.976Z" fill="#5D5D5D"/>
</g>
</g>
<g id="Group_47">
<g id="Group_48">
<g id="Group_49">
<g id="Group_50">
<path id="Vector_66" d="M168.04 76.0059H76.3818V104.684H168.04V76.0059Z" fill="#FEFDF9"/>
<path id="Vector_67" d="M167.08 76.9635V103.726H77.3414V76.9635H167.08ZM169 75.0215H75.4219V105.642H169.026V75.0215H169Z" fill="#5D5D5D"/>
</g>
<g id="Group_51">
<path id="Vector_68" d="M88.0591 95.6924H83.5269V83.5879H92.2981V87.0197H88.0591V88.7223H91.4983V91.9945H88.0591V95.6924Z" fill="#5D5D5D"/>
<path id="Vector_69" d="M107.281 89.5997C107.281 90.5574 107.121 91.4353 106.801 92.2334C106.481 93.0315 106.028 93.67 105.441 94.2287C104.855 94.7874 104.135 95.213 103.309 95.5056C102.482 95.7983 101.549 95.9579 100.509 95.9579C99.4962 95.9579 98.5898 95.7983 97.7633 95.5056C96.9635 95.213 96.2703 94.7873 95.7105 94.2553C95.1506 93.7232 94.724 93.0581 94.4308 92.2866C94.1375 91.5151 93.9775 90.6638 93.9775 89.7327V89.5997C93.9775 88.642 94.1375 87.7907 94.4841 87.0192C94.8307 86.2477 95.3106 85.6092 95.8971 85.0771C96.5103 84.5451 97.2034 84.146 98.0033 83.8534C98.8031 83.5608 99.6562 83.4277 100.589 83.4277C101.522 83.4277 102.402 83.5608 103.229 83.8268C104.055 84.0928 104.748 84.4653 105.362 84.9973C105.948 85.5028 106.428 86.1413 106.775 86.9128C107.121 87.6577 107.281 88.5356 107.281 89.5199V89.5997ZM102.589 89.5731C102.589 88.642 102.402 87.9503 102.029 87.5512C101.656 87.1256 101.176 86.9128 100.616 86.9128C100.056 86.9128 99.5762 87.1256 99.2296 87.5512C98.883 87.9769 98.6964 88.642 98.6964 89.5731V89.7061C98.6964 90.6106 98.8564 91.3023 99.203 91.7546C99.5496 92.2068 100.003 92.4197 100.643 92.4197C101.256 92.4197 101.736 92.1802 102.082 91.728C102.429 91.2757 102.589 90.584 102.589 89.7061V89.5731Z" fill="#5D5D5D"/>
<path id="Vector_70" d="M121.144 95.6924H116.452L114.559 91.8615H114.293V95.6924H109.787V83.5879H115.119C116.932 83.5879 118.265 83.9337 119.118 84.652C119.971 85.3703 120.398 86.3546 120.398 87.6848V87.7646C120.398 88.5627 120.238 89.2278 119.918 89.7067C119.598 90.2121 119.172 90.6112 118.612 90.9038L121.144 95.6924ZM116.079 87.8976C116.079 87.2591 115.679 86.9399 114.853 86.9399H114.319V89.015H114.826C115.279 89.015 115.599 88.9352 115.786 88.7489C115.999 88.5627 116.079 88.2967 116.079 87.9508V87.8976Z" fill="#5D5D5D"/>
<path id="Vector_71" d="M140.18 95.6924H135.355L134.955 94.0962H131.516L131.116 95.6924H126.903L130.636 83.5879H136.448L140.18 95.6924ZM134.208 91.0634L133.248 87.2059L132.262 91.0634H134.208Z" fill="#5D5D5D"/>
<path id="Vector_72" d="M150.844 95.6924H142.233V83.5879H146.765V92.2606H150.844V95.6924Z" fill="#5D5D5D"/>
<path id="Vector_73" d="M161.722 95.6924H153.11V83.5879H157.643V92.2606H161.722V95.6924Z" fill="#5D5D5D"/>
</g>
</g>
<path id="Vector_74" d="M166.094 105.643L157.829 110.83H71.0764L77.9814 105.643H166.094ZM169 105.643H75.422L66.4375 112.4H158.282L169 105.643Z" fill="#5D5D5D"/>
</g>
<path id="Vector_75" d="M75.422 75.0215V105.642L66.4375 112.399V82.7897L75.422 75.0215Z" fill="#5D5D5D"/>
<g id="Group_52">
<path id="Vector_76" d="M79.2078 112.4H76.3818L86.7794 105.643H88.8589L79.2078 112.4Z" fill="#5D5D5D"/>
</g>
<g id="Group_53">
<path id="Vector_77" d="M89.1788 112.4H86.3262L96.7237 105.643H98.8299L89.1788 112.4Z" fill="#5D5D5D"/>
</g>
<g id="Group_54">
<path id="Vector_78" d="M99.1232 112.4H96.2705L106.668 105.643H108.774L99.1232 112.4Z" fill="#5D5D5D"/>
</g>
<g id="Group_55">
<path id="Vector_79" d="M109.068 112.4H106.215L116.639 105.643H118.719L109.068 112.4Z" fill="#5D5D5D"/>
</g>
<g id="Group_56">
<path id="Vector_80" d="M119.012 112.4H116.159L126.583 105.643H128.663L119.012 112.4Z" fill="#5D5D5D"/>
</g>
<g id="Group_57">
<path id="Vector_81" d="M128.956 112.4H126.13L136.527 105.643H138.607L128.956 112.4Z" fill="#5D5D5D"/>
</g>
<g id="Group_58">
<path id="Vector_82" d="M138.927 112.4H136.074L146.472 105.643H148.578L138.927 112.4Z" fill="#5D5D5D"/>
</g>
<g id="Group_59">
<path id="Vector_83" d="M148.871 112.4H146.019L156.416 105.643H158.522L148.871 112.4Z" fill="#5D5D5D"/>
</g>
</g>
</g>
</svg>
