<svg width="234" height="105" viewBox="0 0 234 105" fill="none" xmlns="http://www.w3.org/2000/svg">
<g id="Vrije_Universiteit_Brussel_logo 1">
<path id="Vector" d="M109.533 39.3946L115.475 25.1211H113.907L108.855 37.6174L103.842 25.1211H102.273L108.178 39.3946H109.533Z" fill="#5D5D5D"/>
<path id="Vector_2" d="M119.113 26.415H121.378C122.501 26.415 123.661 26.415 124.611 27.091C125.424 27.6507 125.946 28.6551 125.946 29.64C125.946 30.9145 125.269 31.9963 124.088 32.5367C123.139 32.9619 121.977 32.9231 120.971 32.9231H120.545L125.404 39.3936H127.185L123.159 34.0631C125.481 34.0049 127.378 32.1125 127.378 29.7756C127.378 28.1147 126.603 26.6464 125.152 25.8165C123.953 25.1405 122.442 25.1211 121.087 25.1211H117.681V39.3946H119.113V26.415Z" fill="#5D5D5D"/>
<path id="Vector_3" d="M131.404 25.1211H129.971V39.3946H131.404V25.1211Z" fill="#5D5D5D"/>
<path id="Vector_4" d="M137.443 39.6454C138.624 39.6454 139.746 39.1815 140.501 38.2353C141.256 37.3085 141.198 36.4969 141.276 35.3773V25.1211H139.843V34.9522C139.843 35.5507 139.863 36.2848 139.669 36.8445C139.34 37.7326 138.527 38.274 137.579 38.274C136.224 38.274 135.14 37.3666 135.043 36.0146H133.629C133.688 38.0813 135.352 39.6454 137.443 39.6454Z" fill="#5D5D5D"/>
<path id="Vector_5" d="M152.579 38.1007H146.192V32.8467H152.367V31.5528H146.192V26.415H152.579V25.1211H144.759V39.3946H152.579V38.1007Z" fill="#5D5D5D"/>
<path id="Vector_6" d="M111.855 54.2616C111.855 55.3822 111.758 56.5211 111.061 57.4489C110.461 58.2799 109.436 58.7428 108.429 58.7428C107.306 58.7428 106.241 58.2024 105.641 57.2552C105.08 56.3671 104.983 55.2853 104.983 54.2616V45.5898H103.551V54.2616C103.551 55.7676 103.706 57.1971 104.693 58.4145C105.603 59.5156 106.996 60.1142 108.429 60.1142C109.9 60.1142 111.332 59.4769 112.223 58.2982C113.152 57.1012 113.288 55.7105 113.288 54.2616V45.5898H111.855V54.2616Z" fill="#5D5D5D"/>
<path id="Vector_7" d="M128.152 45.5898H126.721V57.4295L118.706 45.5898H116.771V59.8633H118.204V47.3089L126.721 59.8633H128.152V45.5898Z" fill="#5D5D5D"/>
<path id="Vector_8" d="M133.068 45.5898H131.636V59.8633H133.068V45.5898Z" fill="#5D5D5D"/>
<path id="Vector_9" d="M141.856 58.0862L136.843 45.5898H135.274L141.179 59.8633H142.534L148.475 45.5898H146.908L141.856 58.0862Z" fill="#5D5D5D"/>
<path id="Vector_10" d="M158.502 46.8837V45.5898H150.682V59.8633H158.502V58.5695H152.114V53.3154H158.289V52.0215H152.114V46.8837H158.502Z" fill="#5D5D5D"/>
<path id="Vector_11" d="M171.296 50.2444C171.296 48.5834 170.522 47.1152 169.071 46.2852C167.871 45.6092 166.361 45.5898 165.006 45.5898H161.599V59.8633H163.032V46.8837H165.296C166.419 46.8837 167.58 46.8837 168.528 47.5597C169.342 48.1195 169.864 49.1238 169.864 50.1087C169.864 51.3833 169.186 52.4651 168.005 53.0055C167.057 53.4306 165.895 53.3919 164.888 53.3919H164.462L169.321 59.8623H171.102L167.076 54.5318C169.4 54.4747 171.296 52.5813 171.296 50.2444Z" fill="#5D5D5D"/>
<path id="Vector_12" d="M180.297 52.9484C179.465 52.1949 178.574 52.0216 177.548 51.732C176.154 51.3456 174.721 50.9398 174.721 49.2207C174.721 47.8687 175.786 46.7288 177.18 46.7288C178.651 46.7288 179.697 47.7719 179.793 49.2207H181.284C181.303 47.0377 179.522 45.3574 177.355 45.3574C175.11 45.3574 173.29 46.9021 173.29 49.2013C173.29 50.225 173.697 51.1906 174.49 51.8666C175.206 52.4845 176.115 52.717 177.006 52.9484C177.82 53.1605 178.554 53.3542 179.212 53.8946C179.812 54.3779 180.2 55.1497 180.2 55.9226C180.2 57.5642 178.864 58.7428 177.238 58.7428C175.632 58.7428 174.412 57.4296 174.373 55.8655H172.844C172.825 58.3574 174.838 60.1142 177.277 60.1142C179.6 60.1142 181.632 58.2983 181.632 55.942C181.632 54.8031 181.149 53.6825 180.297 52.9484Z" fill="#5D5D5D"/>
<path id="Vector_13" d="M185.503 45.5898H184.07V59.8633H185.503V45.5898Z" fill="#5D5D5D"/>
<path id="Vector_14" d="M187.652 46.8837H190.942V59.8633H192.375V46.8837H195.626V45.5898H187.652V46.8837Z" fill="#5D5D5D"/>
<path id="Vector_15" d="M197.774 59.8633H205.594V58.5695H199.207V53.3154H205.381V52.0215H199.207V46.8837H205.594V45.5898H197.774V59.8633Z" fill="#5D5D5D"/>
<path id="Vector_16" d="M210.124 45.5898H208.691V59.8633H210.124V45.5898Z" fill="#5D5D5D"/>
<path id="Vector_17" d="M212.271 45.5898V46.8837H215.562V59.8633H216.994V46.8837H220.246V45.5898H212.271Z" fill="#5D5D5D"/>
<path id="Vector_18" d="M110.249 72.7024C111.236 72.007 111.836 71.0802 111.836 69.8444C111.836 68.6086 111.178 67.4493 110.152 66.7733C109.165 66.1361 108.042 66.0586 106.9 66.0586H103.552V80.3321H106.92C108.352 80.3127 109.591 80.3515 110.849 79.5592C111.952 78.8639 112.61 77.5893 112.61 76.2955C112.61 74.6529 111.758 73.3202 110.249 72.7024ZM104.983 67.3515H106.648C107.499 67.3127 108.525 67.3321 109.261 67.7766C109.919 68.1824 110.403 68.9737 110.403 69.7465C110.403 70.5388 109.938 71.3687 109.241 71.7358C108.428 72.1803 107.441 72.161 106.531 72.161H104.983V67.3515ZM109.765 78.612C108.894 79.0566 107.713 79.0566 106.745 79.0372H104.983V73.4559H106.494C107.442 73.4559 108.487 73.4365 109.377 73.7454C110.481 74.1319 111.178 75.0974 111.158 76.3138C111.178 77.2213 110.578 78.1868 109.765 78.612Z" fill="#5D5D5D"/>
<path id="Vector_19" d="M124.901 70.7131C124.901 69.0522 124.126 67.5839 122.675 66.754C121.476 66.078 119.965 66.0586 118.61 66.0586H115.204V80.3321H116.636V67.3525H118.901C120.024 67.3525 121.184 67.3525 122.133 68.0285C122.946 68.5882 123.468 69.5926 123.468 70.5775C123.468 71.852 122.791 72.9338 121.609 73.4742C120.661 73.8994 119.499 73.8606 118.493 73.8606H118.067L122.926 80.3311H124.707L120.681 75.0006C123.003 74.9424 124.901 73.05 124.901 70.7131Z" fill="#5D5D5D"/>
<path id="Vector_20" d="M135.798 74.7304C135.798 75.8509 135.701 76.9898 135.004 77.9177C134.404 78.7486 133.378 79.2115 132.371 79.2115C131.248 79.2115 130.185 78.6711 129.584 77.7239C129.023 76.8359 128.926 75.7541 128.926 74.7304V66.0586H127.493V74.7304C127.493 76.2363 127.648 77.6658 128.636 78.8832C129.545 79.9844 130.939 80.5829 132.371 80.5829C133.843 80.5829 135.274 79.9457 136.165 78.767C137.094 77.57 137.23 76.1792 137.23 74.7304V66.0586H135.798V74.7304Z" fill="#5D5D5D"/>
<path id="Vector_21" d="M147.121 73.4152C146.288 72.6617 145.398 72.4884 144.372 72.1988C142.978 71.8124 141.546 71.4066 141.546 69.6875C141.546 68.3355 142.61 67.1956 144.004 67.1956C145.476 67.1956 146.521 68.2387 146.617 69.6875H148.108C148.127 67.5045 146.346 65.8242 144.179 65.8242C141.934 65.8242 140.114 67.3689 140.114 69.6681C140.114 70.6918 140.521 71.6574 141.314 72.3334C142.03 72.9513 142.939 73.1837 143.83 73.4152C144.644 73.6273 145.379 73.821 146.038 74.3614C146.637 74.8447 147.025 75.6165 147.025 76.3894C147.025 78.031 145.689 79.2096 144.063 79.2096C142.457 79.2096 141.237 77.8964 141.198 76.3323H139.67C139.65 78.8242 141.663 80.581 144.102 80.581C146.425 80.581 148.457 78.7651 148.457 76.4088C148.456 75.2699 147.973 74.1493 147.121 73.4152Z" fill="#5D5D5D"/>
<path id="Vector_22" d="M157.302 73.4152C156.469 72.6617 155.579 72.4884 154.553 72.1988C153.159 71.8124 151.727 71.4066 151.727 69.6875C151.727 68.3355 152.792 67.1956 154.185 67.1956C155.657 67.1956 156.702 68.2387 156.798 69.6875H158.289C158.308 67.5045 156.527 65.8242 154.36 65.8242C152.115 65.8242 150.295 67.3689 150.295 69.6681C150.295 70.6918 150.702 71.6574 151.495 72.3334C152.211 72.9513 153.121 73.1837 154.012 73.4152C154.825 73.6273 155.56 73.821 156.218 74.3614C156.818 74.8447 157.205 75.6165 157.205 76.3894C157.205 78.031 155.869 79.2096 154.244 79.2096C152.637 79.2096 151.417 77.8964 151.379 76.3323H149.851C149.831 78.8242 151.844 80.581 154.283 80.581C156.606 80.581 158.638 78.7651 158.638 76.4088C158.637 75.2699 158.153 74.1493 157.302 73.4152Z" fill="#5D5D5D"/>
<path id="Vector_23" d="M161.076 80.3301H168.896V79.0362H162.508V73.7822H168.682V72.4883H162.508V67.3505H168.896V66.0566H161.076V80.3301Z" fill="#5D5D5D"/>
<path id="Vector_24" d="M173.425 66.0566H171.992V80.3301H179.348V79.0362H173.425V66.0566Z" fill="#5D5D5D"/>
<path id="Vector_25" d="M14.0474 35.1305L23.2326 61.0081H23.2612L31.0813 38.2107C31.0813 38.2107 31.0926 38.1781 31.111 38.1312C31.6198 36.3968 33.2354 35.1305 35.138 35.1305L37.0989 35.1294L43.1155 35.1305V58.8017C43.1441 59.9589 43.2698 61.0815 43.795 62.1297C44.6462 63.6234 46.2188 64.6909 48.0693 64.9091C48.1327 64.9163 48.196 64.9224 48.2594 64.9285C48.428 64.9428 48.5976 64.9509 48.7703 64.9509C48.942 64.9509 49.1126 64.9428 49.2812 64.9285C49.3446 64.9234 49.409 64.9173 49.4713 64.9091C51.3218 64.6899 52.8954 63.6224 53.7456 62.1297C54.2708 61.0815 54.3955 59.9589 54.4251 58.8017V35.1305H60.7074V57.467C60.7074 59.9814 60.551 62.3917 59.5333 64.5604C57.6766 68.232 53.8079 70.8086 49.2884 70.9921C49.1167 70.9993 48.944 71.0033 48.7703 71.0033C48.5966 71.0033 48.4239 70.9993 48.2522 70.9921C43.7327 70.8086 39.863 68.232 38.0073 64.5604C36.9896 62.3907 36.8332 59.9804 36.8332 57.467V41.6498H36.7821L36.7106 41.868L26.4698 70.1275H20.1324L14.0474 53.6945V46.7326V90.1393H89.2206V15.1309H14.0474V35.1305ZM62.6673 35.1305L70.8194 35.1162C74.0025 35.1162 77.2315 34.9734 80.1764 36.4427C83.0743 37.912 85.1159 41.0401 85.1159 44.31C85.1159 47.0589 83.8335 49.7608 81.2687 50.9925C85.1159 52.2252 87.2536 55.4951 87.2536 59.4756C87.2536 62.8883 85.6861 65.7799 82.9793 67.8171C80.1764 69.8553 76.6143 70.0449 73.2422 70.1387H62.6611L62.6673 35.1305Z" fill="#5D5D5D"/>
<path id="Vector_26" d="M76.6149 48.0555C77.8503 47.4866 78.6106 46.1591 78.6106 44.8326C78.6106 43.4102 77.7083 42.2734 76.4259 41.7523C75.4633 41.3374 73.529 41.421 72.1516 41.421L69.1934 41.4159V48.5847L72.1996 48.5776C73.575 48.5766 75.3795 48.6245 76.6149 48.0555Z" fill="#5D5D5D"/>
<path id="Vector_27" d="M79.0378 62.6051C80.2252 61.7996 80.7473 60.6617 80.7473 59.1924C80.7473 57.4866 79.9401 56.4436 78.4196 55.5902C76.9471 54.8316 75.3796 54.8795 73.8121 54.8795H69.1914V63.8347L73.6691 63.8368C75.5697 63.8368 77.3272 63.743 79.0378 62.6051Z" fill="#5D5D5D"/>
<path id="Vector_28" d="M6.98926 35.1309L14.0471 53.704V42.0927V35.1309H6.98926Z" fill="#ACACAC"/>
</g>
</svg>
